<svg width="229" height="228" viewBox="0 0 229 228" fill="none" xmlns="http://www.w3.org/2000/svg">
    <path d="M138.24 108.91C138.87 109.13 139.51 109.32 140.12 109.57C140.8 109.85 141.43 110.25 141.9 110.83C142.56 111.65 142.9 112.55 142.49 113.61C142.35 113.98 142.23 114.36 142.09 114.74C142.47 115.21 143.03 115.22 143.52 115.36C144.55 115.65 145.56 115.98 146.49 116.52C147 116.82 147.51 117.16 147.94 117.56C149.55 119.06 150.06 121.05 148.43 123.06C148.22 123.31 148 123.55 147.82 123.77C147.88 124.36 148.37 124.38 148.68 124.54C149.88 125.14 151 125.85 152.03 126.71C152.76 127.31 153.34 128.03 153.84 128.83C154.77 130.33 154.7 132.47 153.02 133.63C152.22 134.18 152.26 134.27 152.91 134.97C153.64 135.75 154.32 136.57 154.89 137.48C155.38 138.27 155.78 139.1 156.03 140.02C156.53 141.88 156.11 143.43 154.65 144.7C154.46 144.87 154.27 145.04 154.04 145.25C154.48 145.83 154.9 146.34 155.27 146.88C157.03 149.44 158.36 152.18 158.35 155.38C158.35 158.64 157.11 161.19 153.98 162.59C153.19 162.94 153.17 163.04 153.6 163.76C154.11 164.62 154.58 165.5 154.9 166.45C155.22 167.42 155.31 168.4 155.21 169.41C155.08 170.8 154.41 171.78 153.04 172.22C152.79 172.3 152.52 172.35 152.27 172.43C151.89 172.54 151.76 172.8 151.83 173.19C152.02 174.18 152.06 175.17 152.02 176.17C151.99 176.92 151.81 177.62 151.43 178.26C150.97 179.04 150.3 179.55 149.45 179.84C149.14 179.94 148.85 180.09 148.61 180.19C148.44 180.78 148.73 181.19 148.88 181.61C149.57 183.53 149.72 185.5 149.6 187.52C149.51 188.87 149.12 190.14 148.45 191.31C147.41 193.13 145.88 194.14 143.72 194.07C143.46 194.07 143.2 194.07 142.96 194.07C142.56 194.66 142.74 195.27 142.72 195.86C142.69 197.34 142.4 198.77 141.87 200.15C141.43 201.28 140.76 202.28 139.82 203.06C138.49 204.17 137.03 204.57 135.37 203.87C135.25 203.82 135.13 203.76 135 203.72C134.88 203.69 134.75 203.69 134.6 203.68C134.19 204.05 134.12 204.6 133.91 205.08C133.39 206.24 132.84 207.37 132.08 208.4C131.64 209 131.14 209.52 130.54 209.95C129.32 210.82 128.03 211.16 126.61 210.46C126.43 210.37 126.26 210.27 126.07 210.2C125.71 210.05 125.41 210.16 125.24 210.5C124.82 211.33 124.44 212.19 124 213C122.91 215.01 121.61 216.85 119.78 218.25C118.87 218.95 117.89 219.47 116.8 219.84C115.05 220.42 113.52 220.18 112.27 218.75C112.1 218.55 111.97 218.31 111.9 218.22C111.05 218.22 110.82 218.8 110.42 219.1C108.86 220.29 107.23 220.75 105.43 219.68C105.01 219.43 104.71 219.44 104.42 219.85C104.11 220.29 103.81 220.72 103.47 221.14C102.66 222.14 101.66 222.9 100.45 223.38C98.5403 224.14 96.7403 223.71 95.4003 222.15C95.0603 221.75 94.7703 221.31 94.4603 220.9C93.8303 220.93 93.7303 221.47 93.4803 221.82C92.5803 223.08 91.5703 224.22 90.3603 225.18C88.7603 226.44 86.9903 227.33 84.9003 227.4C82.4203 227.48 80.7403 226.3 79.8803 223.95C79.7303 223.53 79.7703 223.02 79.3803 222.69C78.7903 222.74 78.4603 223.21 78.0403 223.5C77.0503 224.18 76.0203 224.78 74.8603 225.14C74.1503 225.36 73.4203 225.44 72.6903 225.37C71.3303 225.24 70.3003 224.58 69.6903 223.34C69.4903 222.93 69.3503 222.48 69.1603 221.97C68.5303 222.19 67.9303 222.4 67.3303 222.6C66.2203 222.99 65.5903 222.28 64.9703 221.56C64.0103 220.43 63.4003 219.1 62.7003 217.81C61.4003 215.43 59.9703 214.69 57.3103 214.98C54.2803 215.31 54.0503 215.13 53.7603 212.03C53.5203 209.45 52.2503 207.71 49.8003 206.8C47.6703 206.01 47.6403 205.96 48.2903 203.75C48.8403 201.89 48.4603 200.28 47.0703 199.01C45.8103 197.86 45.4403 196.6 45.7103 194.91C46.4603 190.13 44.6303 188.1 39.7403 188.06C38.7403 188.06 37.7403 188.12 36.7403 188C35.1103 187.81 34.6403 187.2 34.9103 185.6C35.0803 184.62 35.3303 183.66 35.4103 182.65C35.5703 180.31 34.6503 178.51 32.8203 177.13C32.2903 176.73 31.7303 176.36 31.2103 175.94C28.2903 173.58 28.0203 171.86 30.1903 168.77C31.0703 167.52 32.1003 166.37 33.1003 165.22C34.4803 163.63 35.0003 161.85 34.2403 159.85C33.4803 157.84 31.7003 157.2 29.7903 156.97C28.0703 156.77 26.3303 156.7 24.6703 156.18C22.3303 155.45 21.9703 154.19 23.6403 152.41C24.8703 151.09 26.4403 150.16 27.8503 149.05C31.6503 146.08 32.0403 143.29 29.1803 139.48C27.1303 136.74 27.2303 135.7 29.8003 133.45C30.6503 132.71 31.5803 132.04 32.3203 131.18C34.4603 128.72 34.1103 125.81 31.4203 123.97C30.0903 123.06 28.5803 122.52 27.1503 121.8C25.7503 121.09 23.8303 120.49 23.9503 118.64C24.0703 116.85 26.0703 116.65 27.4703 116.17C29.6803 115.4 32.0203 115.19 34.3203 114.78C38.9303 113.96 40.2903 111.61 38.5303 107.23C37.9003 105.65 38.2703 104.53 39.5403 103.57C40.1203 103.13 40.7203 102.7 41.2803 102.23C43.3703 100.48 44.1003 98.3295 43.5203 95.6295C42.6603 91.6595 43.9703 90.1395 48.1003 89.9895C49.9103 89.9295 51.6803 90.2795 53.4703 90.3595C58.0203 90.5595 60.0003 87.7895 58.3903 83.5695C57.9803 82.4895 56.9903 81.1995 58.1203 80.2595C59.3803 79.2195 60.4203 80.5395 61.4203 81.2495C62.1803 81.7895 62.8603 82.4395 63.6303 82.9595C66.6403 85.0195 69.8003 83.5395 70.1203 79.9295C70.2303 78.6695 70.1203 77.3995 70.1903 76.1395C70.3203 74.0895 71.1403 73.4495 73.1903 73.7595C74.2603 73.9195 75.2303 74.3595 76.1903 74.8295C77.3903 75.4095 78.5803 75.9995 79.8203 76.4995C81.6103 77.2395 83.3203 77.2595 84.9503 76.1195C86.4703 75.0595 87.9303 75.2295 89.3903 76.2495C90.2103 76.8195 91.0203 77.3995 91.8403 77.9795C93.0903 78.8595 94.4403 79.3495 95.9803 78.9595C97.4803 78.5795 98.6103 79.1395 99.4503 80.3195C100.87 82.3195 102.74 83.3395 105.23 83.2395C106.65 83.1795 107.64 83.9495 108.2 85.2195C109.42 88.0095 111.25 89.7495 114.57 89.7395C116.2 89.7395 117.4 90.8095 117.59 92.6295C116.41 95.2895 115 95.7695 112.67 94.1695C107.03 90.3095 101.06 87.2795 94.1603 86.4795C93.8303 86.4395 93.5203 86.3295 93.2203 86.1795C92.6703 85.8695 92.4203 85.3195 92.1003 84.8095C90.4803 82.1395 87.8003 81.7295 85.6903 84.0195C84.5403 85.2695 83.5803 85.9695 81.8103 85.3195C80.7303 84.9195 79.6903 85.5795 79.0803 86.4195C80.0703 85.1795 81.4003 84.8895 82.8503 85.8495C83.7503 86.4495 84.2103 86.1495 84.8203 85.4195C86.8103 83.0295 88.3003 82.4495 90.0403 83.2595C91.7403 84.0595 92.5303 86.1095 92.1703 88.8295C92.0203 89.9495 91.6603 91.0295 91.4403 92.1395C91.2403 93.1595 91.5703 93.4495 92.6203 93.2095C95.7703 92.4795 97.0403 93.8395 96.2903 97.0495C96.1403 97.6995 95.9903 98.3595 95.6903 98.9495C94.9603 100.42 94.3903 101.55 96.6303 102.48C98.0503 103.07 97.5403 104.88 96.9303 106.06C96.2003 107.47 96.1103 108.17 97.9403 108.73C99.9203 109.34 100.59 111.33 100.05 113.73C99.5603 115.91 99.5603 115.9 101.66 115.39C102.82 115.11 103.99 114.8 105.2 114.84C108.59 114.96 110.12 117.25 108.92 120.4C108.66 121.09 108.28 121.7 107.8 122.28C107.11 123.11 107.05 123.79 108.29 124.19C109.61 124.62 110.39 125.61 110.57 126.97C110.72 128.15 111.32 128.18 112.24 127.87C113.33 127.5 114.47 127.49 115.59 127.73C116.61 127.95 117.62 128.45 117.88 129.46C118.29 131.1 119.22 130.75 120.27 130.37C121.4 129.97 122.52 129.56 123.75 129.61C125.22 129.67 126.41 130.1 126.57 131.79C126.67 132.8 127.2 132.78 127.95 132.57C128.9 132.3 129.85 131.98 130.87 132C132.52 132.03 133.93 132.28 134.22 134.32C134.37 135.36 135.13 135.24 135.91 135.01C137.65 134.49 139.37 134.18 141.18 134.84C143.92 135.83 144.38 137.81 142.24 139.76C142 139.98 141.76 140.22 141.49 140.41C139.78 141.62 139.77 141.63 141.27 143.09C142.1 143.89 142.49 144.8 142.18 146.11C142.61 144.52 141.9 143.54 140.87 142.73C139.89 141.96 140.03 141.3 141 140.73C141.52 140.42 141.98 140.04 142.42 139.64C144.54 137.75 144.17 135.83 141.47 134.89C140.72 134.63 139.91 134.54 139.36 133.88C138.63 132.38 139.15 130.75 138.83 129.19C137.92 124.72 136.16 120.61 133.87 116.7C132.27 113.97 132.4 113.17 134.87 111.14C135.91 110.28 136.74 109.02 138.29 108.93L138.24 108.91Z" fill="#C56DA3"/>
    <path d="M205.39 0.250417C206.15 -0.109583 206.95 0.0204172 207.74 0.0504172C209.19 0.110417 210.65 0.200417 212.1 0.310417C214.55 0.480417 216.94 0.940417 219.28 1.73042C222.32 2.76042 224.61 4.60042 225.83 7.65042C226.17 8.50042 226.69 9.30042 226.71 10.2604C227.73 16.0104 227.48 21.7704 226.9 27.5304C225.96 36.8804 224.75 46.1904 222.19 55.2504C216.88 74.0704 206.63 89.2904 189.25 99.0304C182.53 102.8 175.17 104.61 167.47 104.91C163.01 105.08 158.56 104.81 154.13 104.2C152.66 104 151.31 103.48 149.92 103.04C148.99 102.69 148.3 101.97 147.5 101.42C147.05 101.11 146.61 100.89 146.06 101.12C145.98 101.09 145.89 101.06 145.81 101.03C145.11 100.34 144.39 99.6604 143.82 98.8404C143.69 98.7004 143.58 98.5504 143.47 98.4004C143.34 98.2504 143.24 98.1004 143.13 97.9304C143.03 97.7604 142.93 97.5804 142.83 97.4104C136.32 89.8104 132.08 81.1704 130.69 71.1904C130.11 67.0304 129.94 62.8704 130.39 58.6904C130.38 57.7504 130.5 56.8204 130.68 55.8904C131.4 53.2604 131.83 50.5604 132.64 47.9504C136.67 34.8904 144.99 25.1804 156.07 17.5504C164.01 12.0804 172.79 8.52042 181.98 5.83042C188.75 3.84042 195.48 1.71042 202.52 0.790417C203.48 0.670417 204.59 1.14042 205.41 0.250417H205.39Z" fill="#202424"/>
    <path d="M117.15 92.5302C116.57 91.0302 115.59 90.1102 113.86 90.2202C113.2 90.2602 112.49 90.2902 111.88 90.1002C110.74 89.7402 109.72 89.1902 109.03 88.0702C108.4 87.0402 107.84 85.9902 107.31 84.9202C106.94 84.1802 106.42 83.7902 105.58 83.8402C105.18 83.8602 104.78 83.8202 104.38 83.8402C102.24 84.0002 100.69 82.9702 99.3997 81.4002C99.1497 81.0902 98.9597 80.7402 98.7297 80.4102C98.0397 79.4302 97.2197 79.0702 95.9997 79.5902C94.5897 80.1902 93.2497 79.7202 92.0397 78.9202C90.8197 78.1202 89.6497 77.2402 88.4297 76.4302C87.1097 75.5602 86.7397 75.5702 85.4197 76.5802C84.5997 77.2102 83.6497 77.4802 82.6897 77.7502C82.1697 77.9002 81.6397 77.7802 81.1197 77.6102C79.7897 77.1802 78.4797 76.7102 77.2297 76.0702C76.1097 75.4902 75.0197 74.8202 73.7797 74.5202C73.3297 74.4102 72.8797 74.2802 72.4197 74.2502C71.0597 74.1702 70.7997 74.4102 70.7797 75.8102C70.7597 77.2702 70.8297 78.7402 70.7597 80.2002C70.6197 83.1202 68.1897 84.8602 65.6597 84.6002C64.5697 84.4902 63.6497 83.9502 62.8197 83.2502C61.8997 82.4902 61.0097 81.6902 60.0697 80.9602C59.7097 80.6802 59.2697 80.5002 58.8397 80.3302C58.4497 80.1702 57.9997 80.5702 58.0897 80.9702C58.2997 81.9502 58.7397 82.8502 59.1497 83.7602C59.8197 85.2202 59.7997 86.7202 59.1897 88.2002C58.4197 90.0802 56.9397 90.9402 54.9797 90.9902C53.7297 91.0202 52.4797 90.9602 51.2097 90.7502C49.7197 90.5002 48.1597 90.6302 46.6297 90.6702C46.1797 90.6702 45.7197 90.8702 45.2897 91.0502C44.1297 91.5402 43.2397 92.5602 43.7297 94.0702C43.9197 94.6402 44.0497 95.2202 44.1797 95.8102C44.7097 98.1102 44.2497 100.15 42.5497 101.86C41.7897 102.62 41.0097 103.33 40.0997 103.89C39.7097 104.13 39.3097 104.4 38.9997 104.73C38.4797 105.28 38.4397 105.81 38.8897 106.51C39.3397 107.19 39.5897 107.94 39.8197 108.71C40.5697 111.22 39.1897 113.94 36.8997 114.74C36.0897 115.02 35.2797 115.29 34.4097 115.42C32.2497 115.75 30.0997 116.14 27.9697 116.62C26.8197 116.88 25.6797 117.29 24.6997 118.02C24.0797 118.48 24.0197 118.78 24.5297 119.29C25.4297 120.2 26.4797 120.89 27.6797 121.35C29.2397 121.95 30.7397 122.65 32.1097 123.61C34.7197 125.43 35.1897 128.86 33.0897 131.27C32.3997 132.07 31.6597 132.83 30.7497 133.43C29.7497 134.1 28.8797 134.92 28.2997 136.01C27.9797 136.61 28.0197 137.13 28.4797 137.65C29.1297 138.4 29.7297 139.2 30.3697 139.96C32.2397 142.17 32.0397 146.18 29.8497 148.15C28.3597 149.49 26.7097 150.59 25.1297 151.8C24.2797 152.45 23.4597 153.12 23.0397 154.15C22.8997 154.5 22.9797 154.82 23.3397 154.98C23.8197 155.2 24.3097 155.44 24.8297 155.54C26.1897 155.82 27.5297 156.26 28.9497 156.15C30.1197 156.06 31.1797 156.44 32.2297 156.87C34.2597 157.7 35.1397 159.23 35.2197 161.38C35.2797 163.02 34.7097 164.35 33.6297 165.54C32.6497 166.62 31.6297 167.68 30.7797 168.86C30.1597 169.71 29.7197 170.71 29.3297 171.69C29.0497 172.4 29.1997 173.12 29.7797 173.71C30.7197 174.66 31.6097 175.67 32.8097 176.28C34.1297 176.96 34.8597 178.15 35.5797 179.34C35.7797 179.67 35.9497 180.08 35.9597 180.46C35.9697 181.98 36.2197 183.51 35.6497 185.01C34.7597 187.34 35.4197 187.37 37.4297 187.34C38.6997 187.32 39.9597 187.32 41.2297 187.34C44.1397 187.39 46.6097 189.73 46.6897 192.62C46.7097 193.6 46.5197 194.62 46.2297 195.55C45.8697 196.7 46.1797 197.41 47.1197 198.1C48.6697 199.24 49.3897 200.81 49.1997 202.77C49.1397 203.39 48.8797 203.92 48.6297 204.46C48.4897 204.76 48.3697 205.06 48.2597 205.34C48.6597 205.86 49.2097 205.92 49.6997 206.06C52.5497 206.84 54.2997 209.02 54.3897 211.98C54.4097 212.51 54.3897 213.05 54.4197 213.58C54.4697 214.24 54.7697 214.48 55.4697 214.51C56.0097 214.53 56.5197 214.37 57.0397 214.26C58.3797 213.97 59.6597 214.06 60.8997 214.77C61.8697 215.32 62.5697 216.05 63.0497 217.04C63.7997 218.59 64.5397 220.16 65.6697 221.5C66.1197 222.03 66.5497 222.5 67.2797 222.56C64.2397 223.7 61.4497 222.58 60.1897 219.71C60.0597 219.41 59.9797 219.08 59.8697 218.77C59.7597 218.46 59.6397 218.16 59.5497 217.91C58.9897 217.71 58.7197 218.07 58.3997 218.26C57.3597 218.88 56.2497 219.3 55.0697 219.54C52.2297 220.11 49.7097 218.66 48.7997 215.91C48.5697 215.22 48.4297 214.51 48.2397 213.79C47.3197 213.64 46.5697 214.35 45.6897 214.16C42.7397 214.34 40.4897 211.29 41.5397 208.54C42.8497 205.11 42.8697 205.08 39.9597 203.03C38.8797 202.27 38.6297 201.33 38.7497 200.1C39.0097 197.35 38.8797 197.11 36.3797 195.97C35.1597 195.41 34.1897 194.66 33.8697 193.32C33.3797 191.24 31.9597 190.21 30.0097 189.74C29.5597 189.63 29.1097 189.5 28.6697 189.35C25.9197 188.45 25.4397 187.46 26.4097 184.71C27.3797 181.98 26.9097 180.66 24.2197 179.7C18.5197 177.68 18.5297 174.84 21.0397 170.76C22.3997 168.53 21.6897 167.05 19.1897 166.16C18.7497 166 18.2997 165.9 17.8597 165.73C16.5697 165.24 16.2997 164.49 17.0697 163.26C18.4297 161.11 18.3497 160.58 16.6897 158.75C16.2397 158.26 15.7597 157.8 15.3297 157.29C13.2397 154.78 13.0497 153.07 14.5597 150.15C16.7397 145.95 16.6897 145.76 12.7497 143.2C10.3597 141.65 10.2597 140.23 12.4497 138.32C13.5097 137.39 14.7297 136.71 16.0397 136.19C17.0297 135.8 18.0497 135.47 18.9697 134.92C20.8697 133.78 20.9797 132.36 19.2797 130.96C19.0197 130.75 18.7397 130.57 18.4697 130.37C17.3197 129.53 17.3397 128.67 18.3997 127.77C18.5497 127.64 18.7097 127.52 18.8697 127.4C21.8497 125.04 21.9097 124.22 19.2997 121.35C18.8097 120.81 18.2997 120.28 17.8997 119.66C16.5697 117.61 16.8197 115.76 18.6697 114.16C19.5797 113.37 20.6597 112.84 21.6797 112.21C23.5597 111.05 23.9797 110.02 23.5397 107.85C22.9297 104.82 23.3297 104.18 26.3897 103.37C27.8097 103 29.2697 102.85 30.7197 102.64C33.5697 102.22 34.3697 100.71 33.1897 98.1302C31.9297 95.3802 32.0497 94.8202 34.8597 93.5202C37.0697 92.5002 38.4597 91.0802 39.0297 88.6002C40.0397 84.1902 42.6597 82.7502 47.0597 83.8402C47.7697 84.0102 48.4497 84.3002 49.1697 84.4602C51.2697 84.9502 52.6697 84.0202 52.6397 81.8702C52.6097 80.0802 53.1397 78.9402 54.8897 78.3902C55.6597 78.1502 56.2897 77.5902 56.7197 76.9002C57.6597 75.3902 59.0597 75.0602 60.6997 75.2402C61.6897 75.3502 62.6697 75.5302 63.6797 75.5702C65.1497 75.6302 66.1997 75.0302 67.0497 73.8402C70.0497 69.6502 73.3297 68.6302 78.4697 70.2202C78.8197 70.4102 79.1797 70.5902 79.5097 70.8002C80.0097 71.1302 80.4497 71.6702 80.9797 71.7802C81.6897 71.9202 81.7597 71.0102 82.1897 70.6302C82.9797 69.9002 83.9097 69.6302 84.9397 69.6802C86.0897 69.7402 87.1497 70.1302 88.1397 70.7102C89.3597 71.4202 90.4297 72.3202 91.3997 73.3402C91.8497 73.8202 92.2997 74.3002 92.6197 74.6302C92.9797 74.7502 93.0697 74.6902 93.1597 74.5502C94.3397 72.7702 95.4097 72.3902 97.3697 73.0102C98.7497 73.4502 99.8397 74.3202 100.77 75.3802C101.34 76.0302 101.81 76.7602 102.33 77.4502C102.6 77.8102 102.72 78.3002 103.18 78.5202C103.64 78.5302 103.85 78.1302 104.18 77.9302C105.62 77.0502 107.11 77.1002 108.47 78.0902C109.12 78.5702 109.65 79.1602 110.09 79.8402C110.68 80.7402 111.02 81.7402 111.39 82.7502C111.61 83.3502 111.39 84.2302 112.1 84.5102C112.66 84.7302 113.17 84.1202 113.74 83.9702C115.14 83.6002 116.23 84.1102 117.1 85.1702C117.92 86.1802 118.3 87.3902 118.42 88.6702C118.5 89.5302 118.49 90.4002 118.52 91.2602C118.62 92.2302 118.32 92.7902 117.22 92.5202L117.15 92.5302Z" fill="#BE5A98"/>
    <path d="M78.4205 70.2196C77.1605 70.2196 75.8905 70.2396 74.6305 70.2396C73.6905 70.2396 72.7905 70.3896 71.8705 70.5596C70.0105 70.9096 68.7305 71.9096 67.9405 73.5696C67.5605 74.3596 67.0505 75.0496 66.4005 75.6296C66.0405 75.9496 65.6705 76.2196 65.1705 76.2196C63.9805 76.1996 62.7805 76.3696 61.6005 76.0496C61.0905 75.9096 60.5505 75.8996 60.0305 75.8396C58.7105 75.6796 57.6805 75.9896 57.2005 77.4096C56.9805 78.0596 56.4005 78.4496 55.7805 78.7496C55.1805 79.0396 54.6005 79.3696 53.9305 79.4696C53.4605 79.5396 53.2405 79.8696 53.2405 80.3096C53.2405 80.7696 53.3005 81.2296 53.3605 81.6896C53.6705 84.0196 51.6705 85.8696 49.4205 85.2896C48.5805 85.0696 47.7705 84.7696 46.9505 84.4896C45.7105 84.0596 44.4405 84.1596 43.2005 84.3396C41.6205 84.5696 40.5505 85.5196 40.0705 87.0596C39.7705 88.0096 39.4405 88.9596 39.2905 89.9396C39.0205 91.6296 38.0405 92.6696 36.5705 93.3696C35.6105 93.8196 34.6505 94.2896 33.7105 94.7996C32.7805 95.2996 32.6305 95.7896 33.1105 96.7596C33.3105 97.1696 33.5805 97.5596 33.8505 97.9396C34.4605 98.8196 34.5305 99.8096 34.3805 100.81C34.2405 101.71 33.7905 102.44 32.8905 102.78C32.0205 103.11 31.1605 103.43 30.2005 103.44C28.3205 103.47 26.5405 103.99 24.7705 104.57C23.9305 104.85 23.4705 105.41 23.7605 106.4C23.8505 106.72 23.9705 107.03 24.0705 107.35C24.9205 110.13 24.3105 111.62 21.8105 112.95C21.0505 113.35 20.3105 113.81 19.5805 114.27C19.2505 114.48 18.9405 114.75 18.6505 115.02C17.4305 116.19 17.2905 117.5 18.1305 118.95C18.6405 119.83 19.3205 120.55 20.0605 121.22C20.8105 121.91 21.3305 122.74 21.7605 123.65C22.1105 124.39 22.0405 125.06 21.6605 125.74C21.2605 126.46 20.6805 126.97 20.0105 127.43C19.3105 127.91 18.5005 128.27 17.8405 129.04C18.3905 129.77 19.1505 130.15 19.9005 130.52C20.7005 130.91 21.0505 131.6 21.2005 132.42C21.3805 133.41 21.1405 134.26 20.3105 134.91C19.5705 135.5 18.7105 135.85 17.8505 136.2C16.3705 136.79 14.8405 137.26 13.5405 138.24C12.7905 138.81 12.1305 139.46 11.5405 140.17C11.2105 140.57 11.2405 141.02 11.5605 141.45C12.0905 142.17 12.8205 142.63 13.6205 142.97C14.4905 143.35 15.2305 143.9 15.8605 144.6C16.8505 145.7 17.1705 146.9 16.4005 148.25C16.1405 148.71 15.8805 149.18 15.5905 149.62C15.1205 150.35 14.7905 151.14 14.4305 151.93C13.8305 153.23 14.1605 154.39 14.8205 155.52C15.2905 156.33 15.8805 157.05 16.5605 157.69C17.1405 158.24 17.7305 158.79 18.2105 159.42C19.1605 160.68 19.0405 162.04 17.9905 163.2C17.9005 163.3 17.8005 163.39 17.7105 163.48C16.7005 164.58 16.7705 164.8 18.2805 165.23C18.7905 165.37 19.3005 165.52 19.8205 165.62C20.8105 165.81 21.5305 166.44 22.0205 167.22C22.7205 168.31 22.5705 169.51 21.9705 170.62C21.5605 171.38 21.1005 172.11 20.6705 172.86C20.5105 173.15 20.3605 173.45 20.2405 173.76C19.6405 175.38 20.0005 176.59 21.4105 177.59C22.1105 178.09 22.8505 178.52 23.7005 178.77C24.3305 178.95 24.9605 179.2 25.5505 179.5C27.5205 180.49 28.1605 182.29 27.3005 184.35C27.1205 184.78 26.8705 185.18 26.7105 185.61C26.5805 185.98 26.4905 186.37 26.4605 186.76C26.4105 187.34 26.6705 187.79 27.1905 188.07C27.9605 188.48 28.7905 188.7 29.6305 188.92C30.4005 189.13 31.1505 189.41 31.9005 189.65C33.0705 190.03 33.7605 190.88 34.1605 192C34.2705 192.31 34.3805 192.63 34.4305 192.95C34.6205 194.22 35.3705 194.95 36.5805 195.3C37.0905 195.45 37.5605 195.7 38.0505 195.91C39.1605 196.39 39.6205 197.3 39.6205 198.46C39.6205 198.92 39.5905 199.39 39.5005 199.85C39.1405 201.76 39.1205 201.77 40.9005 202.73C41.3705 202.99 41.8005 203.28 42.1905 203.66C43.4205 204.86 43.6005 206.09 42.7505 207.59C42.6505 207.76 42.5605 207.94 42.4305 208.1C41.3005 209.51 41.7105 210.87 42.7005 212.08C43.4805 213.02 44.2005 214.19 45.7005 214.13C43.7905 214.76 42.1505 214.09 40.7105 212.93C39.3205 211.81 38.7805 210.27 39.0405 208.47C39.0705 208.27 39.1105 208.08 39.1305 207.88C39.1505 207.59 39.0405 207.36 38.7605 207.25C38.4505 207.12 38.1405 207.02 37.8305 206.89C36.6305 206.4 35.9605 205.47 35.6005 204.25C35.3605 203.43 35.5105 202.53 35.0005 201.78C34.2205 201.91 33.4505 202.09 32.6705 202.17C30.0005 202.47 28.1705 201.03 27.3805 198.6C27.0905 197.73 26.9405 196.81 26.7405 195.95C26.1205 195.67 25.6505 196.05 25.1305 196.1C22.8705 196.3 21.2705 195.44 20.2505 193.41C19.8605 192.63 19.6505 191.8 19.5605 190.93C19.4905 190.21 19.6105 189.46 19.3305 188.79C18.9905 188.56 18.6705 188.69 18.3405 188.74C14.1905 189.37 11.4705 185.92 12.2005 182.27C12.4005 181.23 12.7605 180.23 13.0505 179.21C12.7505 178.85 12.3205 178.93 11.9505 178.84C8.95047 178.11 8.10047 175.56 8.25047 173.43C8.34047 172.02 8.76047 170.69 9.41047 169.43C9.65047 168.97 10.0505 168.56 9.96047 167.93C9.28047 167.73 8.57047 167.58 7.90047 167.31C5.69047 166.43 4.59047 164.32 5.11047 161.99C5.27047 161.28 5.54047 160.6 5.80047 159.92C5.94047 159.55 6.20047 159.23 6.10047 158.73C5.72047 158.68 5.32047 158.65 4.94047 158.58C3.01047 158.22 1.89047 157.02 1.69047 155.07C1.61047 154.34 1.67047 153.61 1.87047 152.89C2.20047 151.66 2.68047 150.5 3.35047 149.41C3.66047 148.91 3.96047 148.41 4.23047 147.96C4.07047 147.47 3.70047 147.46 3.40047 147.35C1.28047 146.57 0.320469 144.92 0.0704688 142.79C-0.0895312 141.44 0.160469 140.14 0.670469 138.89C1.47047 136.95 2.62047 135.26 4.31047 133.97C4.73047 133.65 5.13047 133.31 5.51047 133C5.51047 132.36 4.98047 132.21 4.67047 131.9C3.00047 130.2 2.65047 127.98 3.74047 125.86C4.24047 124.9 4.95047 124.11 5.79047 123.44C6.15047 123.15 6.54047 122.89 6.91047 122.6C7.22047 122.37 7.30047 122.08 7.04047 121.76C6.87047 121.55 6.68047 121.36 6.54047 121.14C5.69047 119.84 5.74047 118.51 6.45047 117.17C6.86047 116.4 7.49047 115.8 8.04047 115.26C8.04047 114.84 7.87047 114.65 7.66047 114.48C6.13047 113.23 6.13047 111.61 6.69047 109.94C7.23047 108.33 8.29047 107.04 9.53047 105.9C10.9605 104.58 12.6005 103.56 14.3505 102.74C14.7105 102.57 15.0905 102.44 15.4505 102.27C16.2305 101.91 16.3105 101.86 16.0005 101.08C15.4405 99.6796 15.8605 98.4596 16.5405 97.2796C17.0705 96.3396 17.8505 95.5996 18.7105 94.9596C19.6205 94.2796 20.6105 93.7396 21.6605 93.3096C22.1305 93.1196 22.7205 93.1096 23.0405 92.6296C23.0205 92.4896 23.0405 92.3496 22.9805 92.2396C22.0405 90.2096 22.2505 88.8996 23.7805 87.3896C25.3205 85.8696 27.2505 85.2096 29.3605 85.0196C30.0205 84.9596 30.6905 84.9796 31.3505 84.9396C31.8605 84.9096 32.0105 84.7096 32.0005 84.1596C32.0005 83.8296 31.9405 83.4996 31.9305 83.1596C31.8105 81.0696 32.7905 79.5996 34.5505 78.5896C35.8505 77.8496 37.2805 77.5496 38.7505 77.4696C41.0405 77.3396 43.2505 77.7796 45.4205 78.4796C46.0305 78.6796 46.6105 79.1096 47.3105 78.9496C48.2805 75.5496 49.8405 75.1696 53.3605 75.2196C53.7305 74.9496 53.6405 74.4996 53.7605 74.1296C54.3005 72.3896 55.5405 71.5496 57.3005 71.3896C58.6505 71.2696 59.9505 71.4996 61.2005 72.0296C61.8105 72.2896 62.4105 72.5596 62.9705 72.7996C63.3705 72.5596 63.3605 72.1996 63.4105 71.8796C63.6905 70.2296 64.7105 69.1596 66.1105 68.3696C68.0705 67.2596 70.1905 67.1396 72.3205 67.5096C74.5605 67.8996 76.6805 68.6896 78.4405 70.2196H78.4205Z" fill="#B93D89"/>
    <path d="M165.91 6.33039C166.01 6.26039 166.12 6.23039 166.24 6.26039C166.5 6.09039 166.84 6.13039 167.1 5.96039C167.32 5.92039 167.55 5.88039 167.77 5.84039C168.07 5.72039 168.42 5.73039 168.7 5.55039C168.82 5.48039 168.95 5.46039 169.09 5.48039C169.43 5.14039 169.95 5.43039 170.3 5.14039L170.69 5.08039C171.03 4.74039 171.54 5.02039 171.9 4.75039C172.13 4.71039 172.36 4.68039 172.59 4.64039C173.03 4.50039 173.62 4.25039 173.85 4.73039C174.16 5.36039 173.49 5.67039 173.05 5.87039C171.04 6.76039 169.03 7.63039 167.02 8.52039C160.01 11.6504 153.3 15.3104 147.27 20.1104C137.73 27.7104 131.73 37.6404 128.26 49.2204C127.76 50.8804 127.29 52.5404 127.3 54.3004C127.26 54.9204 127.13 55.5304 126.96 56.1204C126.05 63.2704 126.69 70.2704 128.96 77.1204C129.15 77.6904 129.41 78.2304 129.55 78.8104C130.64 83.5304 132.91 87.5604 136.52 90.8104C136.82 91.0804 137.06 91.3904 137.21 91.7704C137.25 91.8904 137.24 92.0204 137.22 92.1404C137.15 92.6604 136.19 92.9604 136.77 93.6204C137.26 94.1704 137.84 93.7504 138.39 93.6204C139.69 93.6804 140.45 94.4804 140.99 95.5604C141.15 95.8904 140.78 96.6204 141.65 96.4104C142.54 96.5204 142.92 97.3204 143.52 97.8104C143.65 97.9404 143.79 98.0804 143.92 98.2104C143.83 99.6704 145.43 99.9204 145.89 100.98L146.02 101.09C144.62 102.62 143.15 104.09 141.54 105.41C140.51 106.05 139.76 105.32 139.02 104.83C134.82 102.09 131.07 98.8404 127.91 94.9404C126.34 93.0004 126.39 93.0504 124.71 94.8204C123.79 95.8004 123.31 97.3204 121.71 97.5204C121.66 97.4104 121.57 97.3704 121.46 97.3904C121.54 97.4604 121.66 97.5104 121.67 97.6504C117.86 103.95 111.57 106.31 105.84 102.97C104.23 102.03 102.66 101.02 101.1 100.02C100.88 99.8804 100.7 99.8004 100.93 99.9404C100.95 99.9604 100.95 100.02 100.97 100.08C101.13 100.27 101.25 100.45 101.37 100.65C102.32 102.53 102.58 104.39 101.37 106.26C100.54 106.88 99.9502 107.78 99.0402 108.31C98.8502 108.33 98.6702 108.28 98.5102 108.18C97.7802 107.33 98.4002 106.58 98.6502 105.78C98.9702 104.75 99.6802 103.68 98.5502 102.69C98.4002 102.59 98.2602 102.47 98.1302 102.34C97.9402 102.14 97.7802 101.91 97.6202 101.69C97.5102 101.54 97.4202 101.38 97.3502 101.21C97.2702 101.03 97.1302 100.79 97.2002 100.64C98.3702 98.2304 97.0902 95.9304 96.9002 93.5904C96.9002 93.4004 96.9202 93.2104 96.9702 93.0304C97.2302 92.4604 97.4702 91.9004 96.6002 91.6004C96.1602 91.4504 95.7302 91.2604 95.3502 90.9904C94.5702 90.4404 94.1502 89.7304 94.4002 88.7704C94.6502 87.8104 95.4702 87.6704 96.3002 87.6404C97.5202 87.5904 98.7102 87.8304 99.8002 88.3404C104.19 90.4004 108.76 92.1104 112.57 95.2704C114.2 96.6204 115.51 96.4304 116.86 94.7204C117.64 93.7404 119.48 93.2104 118.64 91.3504C119.33 90.3904 120.18 89.5904 121.09 88.8604C121.22 88.9004 121.36 89.0404 121.46 88.8604C121.51 88.7804 121.44 88.6604 121.38 88.5604C121.85 87.9004 122.41 87.3404 123.07 86.8704C124.09 87.1404 124.4 86.7104 124.19 85.7504C125.27 84.4504 126.48 83.2804 127.76 82.1704C127.92 82.1704 128.02 82.1004 128.04 81.9404C128.04 81.8804 127.97 81.8404 127.88 81.8404L127.91 81.8604C127.73 81.6104 127.8 81.2204 127.48 81.0404L127.52 81.0804C127.44 80.8904 127.28 80.7604 127.14 80.6304C126.91 80.4104 126.98 79.9804 126.61 79.8604C124.99 77.8004 123.91 75.4404 122.85 73.0704C120.95 68.8004 119.52 64.3604 118.92 59.7104C118.31 54.9904 118.43 50.2704 119.83 45.6704C123.2 34.5204 129.57 25.5004 139.08 18.7304C144.92 14.5704 151.28 11.4004 157.96 8.86039C158.2 8.77039 158.47 8.75039 158.73 8.69039C158.92 8.44039 159.27 8.53039 159.5 8.36039C159.63 8.33039 159.76 8.30039 159.89 8.27039C160.12 8.05039 160.46 8.13039 160.7 7.95039C160.81 7.88039 160.93 7.85039 161.06 7.87039C161.3 7.67039 161.65 7.73039 161.9 7.55039C162.01 7.48039 162.13 7.45039 162.26 7.47039C162.5 7.27039 162.84 7.33039 163.1 7.16039C163.22 7.09039 163.35 7.06039 163.48 7.08039C163.71 6.87039 164.04 6.93039 164.29 6.77039C164.51 6.73039 164.73 6.68039 164.96 6.64039C165.27 6.52039 165.62 6.53039 165.9 6.33039H165.91Z" fill="#171919"/>
    <path d="M149.91 103.02C151.65 102.91 153.33 103.41 155.03 103.61C155.62 103.68 156.2 103.82 156.8 103.82C157.73 103.82 158.65 103.82 159.56 104.12C160.05 104.28 160.61 104.21 161.14 104.22C163 104.22 164.87 104.2 166.73 104.22C169.66 104.27 172.53 103.77 175.4 103.25C178.94 102.61 182.29 101.32 185.66 100.1C186.03 99.9598 186.39 99.7698 186.74 99.5898C190.77 97.5298 194.57 95.1398 198.1 92.2798C201.01 89.9198 203.59 87.2398 206.1 84.5098C208.34 82.0798 210.38 79.4198 212.04 76.5498C213.9 73.3298 215.84 70.1498 217.41 66.7698C219 63.3198 220.29 59.7498 221.27 56.0998C222.43 51.7498 223.29 47.3298 224.19 42.9098C224.6 40.8998 224.77 38.8498 225.06 36.8198C225.3 35.1198 225.57 33.4198 225.8 31.7198C225.86 31.2598 225.85 30.7898 225.86 30.3298C225.87 29.5998 225.87 28.8798 226.08 28.1598C226.23 27.6598 226.24 27.1098 226.25 26.5798C226.28 25.5198 226.23 24.4698 226.56 23.4198C226.73 22.8698 226.65 22.2298 226.66 21.6398C226.67 17.8498 226.67 14.0498 226.68 10.2598C227.19 10.9998 227.26 11.8798 227.43 12.7098C227.96 15.3198 228.27 17.9498 228.32 20.6298C228.38 24.4198 228.43 28.2198 228.17 31.9998C227.91 35.7798 227.65 39.5598 227.19 43.3198C226.8 46.4898 226.4 49.6498 225.92 52.7998C224.82 60.0498 223.04 67.1298 220.46 73.9998C218.46 79.3098 216.01 84.3898 212.98 89.1898C208.6 96.1398 202.78 101.59 195.72 105.74C191.97 107.94 188.03 109.67 183.78 110.66C179.51 111.65 175.22 111.71 170.9 111.09C164.85 110.23 159.14 108.33 153.73 105.49C152.38 104.78 151.03 104.05 149.89 103.02H149.91Z" fill="#282A2B"/>
    <path d="M100.37 100.22C100.09 99.8503 99.8097 99.4903 99.5497 99.1003C99.4997 99.0303 99.5297 98.8303 99.5897 98.7703C99.6697 98.7003 99.8397 98.6703 99.9497 98.7003C100.14 98.7503 100.31 98.8603 100.48 98.9603C102.28 100.07 104.12 101.14 105.88 102.33C108.18 103.89 110.73 103.98 113.34 103.77C113.72 103.74 114.1 103.54 114.46 103.37C116.16 102.58 117.74 101.62 118.99 100.2C119.82 99.2603 120.88 98.5203 121.56 97.4303C122.16 97.1203 122.59 96.6103 123.01 96.0903C123.87 95.0003 124.72 93.9103 125.59 92.8403C126.1 92.2203 126.59 92.2103 127.04 92.8603C128.81 95.4503 131.03 97.6403 133.31 99.7403C135.45 101.71 137.8 103.43 140.28 104.96C140.66 105.2 141.14 105.28 141.58 105.43C140.47 106.59 139.36 107.75 138.25 108.91C136.65 110.41 135.06 111.92 133.46 113.41C133.05 113.79 133.04 114.16 133.32 114.63C134.29 116.29 135.3 117.93 136.17 119.65C137.59 122.44 138.69 125.34 139.29 128.43C139.64 130.22 139.61 131.99 139.54 133.79C139.33 133.91 139.13 133.88 138.96 133.71C137.5 129.79 134.23 128.36 130.49 127.74C129.11 127.51 127.73 127.4 126.5 126.67C126.27 126.54 126.02 126.38 125.77 126.36C121.66 126.04 117.92 124.08 113.84 123.68C111.33 123.43 110.67 122.7 111.52 120.34C113.26 115.48 109.93 111.62 105.72 111.32C103.16 111.14 101.89 109.46 100.76 107.52C100.51 107.1 100.43 106.65 100.77 106.22C101.72 104.87 101.79 103.43 101.25 101.91C101.1 101.48 100.93 101.05 100.76 100.62C100.61 100.5 100.51 100.34 100.36 100.22H100.37Z" fill="#212424"/>
    <path d="M126.81 54.3798C126.44 52.3198 127.29 50.4498 127.81 48.5498C129.09 43.8298 131.15 39.4298 133.54 35.1998C135.07 32.4898 136.91 29.9598 138.86 27.5098C140.24 25.7898 141.81 24.2698 143.33 22.6898C144.85 21.0998 146.61 19.7898 148.38 18.5098C149.13 17.9698 149.9 17.4398 150.65 16.8998C153.24 15.0398 155.96 13.3898 158.78 11.8898C160.25 11.1098 161.75 10.3898 163.24 9.64977C166.4 8.07976 169.6 6.62977 172.9 5.38977C173.14 5.29977 173.41 5.20977 173.51 4.91977C173.26 4.63977 172.9 4.73977 172.59 4.66977C173.92 4.01977 175.39 3.89977 176.81 3.63977C181.37 2.80977 185.93 1.94977 190.54 1.46977C193.64 1.14977 196.72 0.699766 199.82 0.419766C201.66 0.249766 203.53 0.309766 205.38 0.259766C205.64 0.299766 205.89 0.339766 206.18 0.389766C206.03 0.939766 205.55 0.689766 205.26 0.829766C204.97 0.969766 204.63 1.02977 204.31 1.08977C201.13 1.68977 197.94 2.28977 194.76 2.88977C191.88 3.42977 189.15 4.48977 186.34 5.25977C181.73 6.52977 177.2 8.04977 172.68 9.59977C169.6 10.6498 166.62 11.9498 163.85 13.6998C162.62 14.4798 161.27 15.0598 160.02 15.8198C156.83 17.7398 153.87 19.9498 150.93 22.2398C148.45 24.1798 146.3 26.4398 144.19 28.7198C141.85 31.2398 139.92 34.1098 138.13 37.0598C135.23 41.8298 133.43 46.9998 132.12 52.3798C131.9 53.2798 131.73 54.1898 131.55 55.0998C131.48 55.4398 131.32 55.7198 131.03 55.9098C129.63 55.3998 128.39 54.4298 126.82 54.3898L126.81 54.3798Z" fill="#1A1C1C"/>
    <path d="M118.64 91.3497C118.83 91.3997 119.05 91.4197 119.21 91.5197C120.04 92.0297 120.15 92.7197 119.41 93.2397C118.47 93.8897 117.63 94.6197 117.04 95.6197C116.14 97.1597 113.78 97.1797 112.47 96.0997C111.14 94.9997 109.76 93.9797 108.27 93.1097C106.43 92.0297 104.57 91.0197 102.53 90.3597C101.83 90.1297 101.17 89.8597 100.55 89.4497C99.1198 88.4997 97.5098 88.1797 95.8098 88.2597C95.3998 88.2797 94.9898 88.3497 94.8598 88.8097C94.7298 89.2697 94.6998 89.7597 95.0998 90.1097C95.5998 90.5397 96.0898 90.9997 96.8198 91.0397C97.1498 91.0597 97.4798 91.1197 97.7798 91.2397C98.2798 91.4297 98.4698 92.1797 98.0998 92.5797C97.7898 92.9197 97.3998 93.1897 97.0498 93.4897C95.6598 93.0497 94.4798 91.9597 92.8598 92.1397C92.3898 92.1897 91.9998 91.6597 92.0798 91.1797C92.3798 89.4097 92.0898 87.5097 93.1898 85.9097C96.2198 85.8397 99.0898 86.6097 101.89 87.6497C105.88 89.1397 109.54 91.2497 113.03 93.6697C113.41 93.9297 113.78 94.2197 114.17 94.4697C114.75 94.8497 114.94 94.8597 115.38 94.4197C115.99 93.8197 116.55 93.1697 117.14 92.5397C117.68 92.2297 118.07 91.7597 118.44 91.2797C118.49 91.3297 118.56 91.3597 118.63 91.3597L118.64 91.3497Z" fill="#171919"/>
    <path d="M124.2 85.7598C124.49 85.9098 124.85 86.0398 124.87 86.4098C124.9 86.8698 124.81 87.3398 124.42 87.6498C124.29 87.7498 124.04 87.7598 123.86 87.7098C123.45 87.5998 123.24 87.2498 123.07 86.8798C123.35 86.4098 123.72 86.0398 124.19 85.7598H124.2Z" fill="#171919"/>
    <path d="M121.38 88.5703C121.76 88.6403 122.16 88.6903 122.42 89.0103C122.64 89.2903 122.66 89.5903 122.39 89.8703C122.12 90.1403 121.81 90.1303 121.53 89.9003C121.21 89.6403 121.15 89.2403 121.09 88.8603C121.19 88.7603 121.29 88.6603 121.38 88.5703Z" fill="#171919"/>
    <path d="M171.9 4.75977C171.57 5.12977 171.13 5.09977 170.69 5.08977C171.03 4.75977 171.45 4.70977 171.9 4.75977Z" fill="#1A1C1C"/>
    <path d="M170.3 5.1503C169.97 5.5303 169.53 5.5003 169.09 5.4903C169.43 5.1503 169.85 5.1003 170.3 5.1503Z" fill="#1A1C1C"/>
    <path d="M168.71 5.55018C168.46 5.85018 168.13 5.88018 167.78 5.84018C168.03 5.56018 168.36 5.51018 168.71 5.55018Z" fill="#1A1C1C"/>
    <path d="M167.1 5.9697C166.87 6.2297 166.57 6.2897 166.24 6.2697C166.47 6.0097 166.77 5.9297 167.1 5.9697Z" fill="#1A1C1C"/>
    <path d="M160.71 7.95969C160.5 8.21969 160.21 8.28969 159.9 8.27969C160.11 8.01969 160.39 7.91969 160.71 7.95969Z" fill="#1A1C1C"/>
    <path d="M165.91 6.32987C165.66 6.63987 165.33 6.66987 164.97 6.63987C165.22 6.34987 165.55 6.29987 165.91 6.32987Z" fill="#1A1C1C"/>
    <path d="M127.48 81.0498C127.84 81.2098 127.93 81.5198 127.91 81.8698C127.65 81.6598 127.52 81.3798 127.48 81.0498Z" fill="#1A1C1C"/>
    <path d="M126.62 79.8701C127.01 79.9801 127.12 80.2801 127.15 80.6401C126.84 80.4701 126.71 80.1801 126.62 79.8701Z" fill="#1A1C1C"/>
    <path d="M164.3 6.78003C164.09 7.03003 163.8 7.09003 163.49 7.09003C163.7 6.84003 163.98 6.74003 164.3 6.78003Z" fill="#1A1C1C"/>
    <path d="M163.11 7.16046C162.89 7.42046 162.6 7.48046 162.27 7.47046C162.49 7.21046 162.77 7.12046 163.11 7.16046Z" fill="#1A1C1C"/>
    <path d="M161.91 7.54989C161.69 7.81989 161.4 7.87989 161.07 7.86989C161.29 7.59989 161.57 7.51989 161.91 7.54989Z" fill="#1A1C1C"/>
    <path d="M159.51 8.36976C159.31 8.61976 159.04 8.68976 158.74 8.69976C158.94 8.45976 159.19 8.33976 159.51 8.36976Z" fill="#1A1C1C"/>
    <path d="M127.14 80.6396C127.27 80.7896 127.39 80.9396 127.52 81.0896C127.29 81.0196 127.18 80.8596 127.14 80.6396Z" fill="#1A1C1C"/>
    <path d="M127.88 81.8496C128.23 82.0896 128.01 82.1396 127.77 82.1796C127.79 82.0596 127.83 81.9496 127.88 81.8496Z" fill="#1A1C1C"/>
    <path d="M93.1899 85.8902C93.2199 87.6702 93.0199 89.4202 92.5599 91.1402C92.4499 91.5602 92.6699 91.8802 92.9899 91.7602C94.8999 91.0502 96.1299 91.8902 97.0599 93.4702V93.4502C97.4199 95.1602 97.9699 96.9102 97.1799 98.5902C96.5799 99.8702 96.9899 100.71 97.8899 101.53L97.8399 101.48C98.2399 101.59 98.1299 102.02 98.3299 102.25H98.3199C99.5299 103.61 98.8599 104.98 98.1599 106.22C97.6099 107.21 97.8099 107.78 98.7299 108.25H98.7399C100.97 109.03 101.4 109.97 101.3 113.94C102.68 113.69 104.05 113.49 105.43 113.55C109.75 113.75 111.78 116.72 110.03 120.64C109.33 122.22 109.38 123.16 110.64 124.41C111.65 125.41 112.21 126.43 114 126.11C115.91 125.77 117.73 126.55 118.8 128.32C119.42 129.34 120.1 129.44 121.12 129.09C122.37 128.66 123.66 128.23 125.02 128.59C125.74 128.78 126.59 129.04 126.86 129.68C127.58 131.42 128.76 131.29 130.24 130.92C131.73 130.54 133.31 130.75 134.27 132.02C135.29 133.38 136.42 133.86 138.02 133.46C138.41 133.36 138.82 133.48 139.12 133.79C139.25 133.79 139.38 133.79 139.51 133.79C140.02 133.92 140.53 134.1 141.05 134.18C142.1 134.33 142.89 134.91 143.58 135.66C144.44 136.6 144.54 137.65 143.96 138.76C143.44 139.75 142.57 140.34 141.67 140.92C141.39 141.1 141.08 141.24 140.81 141.42C140.47 141.64 140.48 141.91 140.81 142.22C141.2 142.58 141.6 142.93 142 143.28C142.6 143.81 142.79 144.49 142.71 145.26C142.6 146.29 142.16 147.16 141.48 147.92C141.42 147.99 141.21 148.02 141.14 147.97C141.07 147.92 141.02 147.73 141.06 147.63C141.19 147.25 141.35 146.89 141.5 146.52C142.02 145.18 141.66 144.06 140.62 143.12C140.52 143.03 140.42 142.95 140.32 142.86C138.78 141.61 138.76 141.51 140.47 140.39C141.26 139.87 141.95 139.25 142.57 138.56C143.39 137.65 143.29 136.67 142.27 136.03C140.87 135.17 139.35 134.75 137.7 135.16C137.06 135.32 136.42 135.5 135.77 135.66C135.51 135.72 135.25 135.77 134.99 135.79C134.18 135.83 133.73 135.49 133.59 134.7C133.49 134.13 133.68 133.48 133.1 133.05C132.53 132.62 131.87 132.61 131.2 132.6C130.33 132.58 129.47 132.63 128.65 132.98C128.28 133.13 127.9 133.27 127.51 133.34C126.42 133.55 125.93 133.25 125.96 132.18C125.96 131.98 125.95 131.78 125.94 131.58C125.94 130.85 125.47 130.48 124.85 130.34C123.87 130.13 122.87 130.12 121.9 130.44C120.89 130.78 119.88 131.12 118.86 131.42C117.99 131.68 117.7 131.54 117.6 130.72C117.51 130.04 117.44 129.4 116.85 128.95C116.19 128.45 115.47 128.21 114.63 128.2C113.55 128.19 112.53 128.28 111.53 128.78C110.7 129.19 110.13 128.8 109.99 127.87C109.97 127.74 109.99 127.6 109.97 127.47C109.72 125.46 109.29 125 107.3 124.62C107.1 124.58 106.9 124.57 106.71 124.52C106.19 124.37 105.96 123.87 106.24 123.43C106.6 122.87 106.96 122.3 107.4 121.81C108.14 120.98 108.46 119.96 108.69 118.93C109.03 117.42 108.38 116.39 106.91 115.81C105.89 115.41 104.85 115.3 103.78 115.56C102.62 115.84 101.47 116.15 100.31 116.44C100.05 116.5 99.7899 116.55 99.5299 116.57C99.1199 116.6 98.7499 116.21 98.8299 115.79C98.9199 115.27 99.0599 114.75 99.2299 114.26C99.4499 113.62 99.5799 112.99 99.5799 112.31C99.5799 110.55 98.7999 109.5 97.0499 109.01C96.4799 108.85 95.8899 108.72 95.3399 108.33C95.3799 107.45 95.9299 106.74 96.3099 105.99C96.7199 105.18 96.8499 104.36 96.7599 103.48C96.7099 103.04 96.4999 102.73 96.0299 102.67C95.6999 102.63 95.3599 102.64 95.0399 102.58C94.1999 102.42 93.8299 101.79 94.0799 100.95C94.1799 100.63 94.3199 100.33 94.4799 100.04C95.1299 98.8602 95.4099 97.5602 95.7899 96.2902C96.0699 95.3502 95.8599 94.5802 95.3299 93.8502C94.7799 93.0902 94.3399 93.0602 93.6199 93.4102C92.9699 93.7302 92.3599 94.1502 91.5999 94.2202C90.7499 94.3002 90.2899 93.8602 90.4799 93.0502C90.7599 91.8202 91.1199 90.6102 91.3999 89.3802C91.7199 87.9902 91.7099 86.6102 91.1899 85.2602C90.5899 83.7002 88.9399 83.0402 87.4299 83.7302C86.6099 84.1002 86.0499 84.7502 85.4799 85.4102C85.3099 85.6102 85.2099 85.8702 85.0699 86.0902C84.1899 87.4802 83.8799 87.5302 82.6799 86.4402C81.7599 85.6102 80.5999 85.6002 79.6399 86.4102C78.9799 86.9702 78.4999 87.6802 77.9199 88.5302C78.0599 85.6402 80.5999 83.9902 82.9999 85.0402C83.6999 85.3402 83.7399 85.3702 84.1299 84.7802C84.7499 83.8202 85.4999 83.0002 86.4999 82.4202C88.8699 81.0302 91.5999 81.9002 92.6499 84.4102C92.8599 84.9002 93.0199 85.4002 93.2099 85.9002L93.1899 85.8902Z" fill="#B83E89"/>
    <path d="M64.8097 189.26C64.6697 190.57 64.3997 191.78 64.1597 193C63.8797 194.42 64.3797 195.64 65.2197 196.69C65.8197 197.44 66.7397 197.71 67.7397 197.47C68.6597 197.24 69.4897 196.87 70.1697 196.17C70.6297 195.69 71.0697 195.2 71.6897 194.89C72.3897 194.54 73.0297 194.68 73.3397 195.41C73.5997 196.01 73.7997 196.66 73.8897 197.31C74.0297 198.34 74.5297 199.18 75.0997 200C76.0097 201.29 77.3197 202 78.7997 202.06C80.4897 202.12 81.8397 201.21 82.7497 199.76C83.0997 199.2 83.3397 198.57 83.6597 197.99C83.9097 197.53 84.1597 197.05 84.4997 196.64C85.2597 195.71 85.6597 195.64 86.7397 196.12C86.9797 196.23 87.2197 196.35 87.4597 196.47C88.3497 196.92 88.5597 197.05 89.4997 195.99C89.7597 195.7 89.9397 195.33 90.1497 194.99C90.3597 194.65 90.5297 194.28 90.7697 193.97C91.4697 193.1 92.3497 193.2 92.7297 194.25C93.1497 195.39 93.7097 196.44 94.4397 197.39C95.0597 198.19 95.8497 198.8 96.9097 198.91C98.9197 199.11 100.05 198.19 100.62 196.85C100.85 196.3 101.12 195.77 101.21 195.16C101.28 194.71 101.44 194.26 101.61 193.83C101.95 192.96 102.57 192.66 103.51 192.86C104.22 193.01 104.88 193.34 105.64 193.34C107.09 193.34 107.74 192.86 107.93 191.43C108.02 190.71 107.99 189.97 108.03 189.24C108.04 189.05 108.11 188.82 108.38 188.86C108.49 188.87 108.64 188.97 108.67 189.06C108.93 190.02 109.24 190.96 109.18 191.99C109.09 193.75 108.02 195 106.3 195.27C105.53 195.39 104.88 194.98 104.18 194.82C103.47 194.66 103.35 194.7 103.18 195.34C103.01 195.98 102.9 196.64 102.71 197.27C102.06 199.42 100.7 200.92 98.4497 201.27C96.1297 201.63 94.0997 200.99 92.7497 198.86C92.4297 198.36 92.0997 197.86 91.7397 197.38C91.5497 197.12 91.2897 197.14 91.0597 197.35C90.9597 197.44 90.8897 197.55 90.8097 197.66C89.9297 198.96 88.6797 199.11 87.2897 198.74C87.0397 198.67 86.7997 198.53 86.5497 198.43C86.1897 198.3 85.8897 198.4 85.6997 198.73C85.5397 199.02 85.3697 199.31 85.2697 199.63C84.8697 200.87 84.0897 201.85 83.1697 202.73C81.4397 204.39 79.4597 204.89 77.1197 204.17C74.7597 203.44 73.2597 201.93 72.5297 199.6C72.3297 198.97 72.1097 198.34 71.8597 197.6C71.1197 197.81 70.5797 198.28 69.9897 198.65C67.9297 199.93 65.4497 199.56 63.8397 197.78C63.1297 196.99 62.8497 196.04 62.7997 195.04C62.7097 193.06 63.1897 191.22 64.3497 189.59C64.4597 189.44 64.6497 189.35 64.7997 189.23L64.8097 189.26Z" fill="#B93E89"/>
    <path d="M50.5905 157.36C51.3905 157.32 52.4605 156.95 53.5505 156.66C53.7405 156.61 53.9605 156.63 54.0305 156.84C54.0605 156.94 54.0005 157.11 53.9205 157.2C52.9105 158.33 51.5605 158.97 50.1405 159.3C48.5205 159.68 46.2105 158.9 45.4805 156.76C45.2605 156.11 45.1405 155.48 45.3105 154.81C45.6005 153.65 45.8505 152.48 46.6805 151.54C46.9405 151.24 47.1205 150.88 47.3305 150.54C47.4905 150.27 47.4305 150 47.2005 149.84C46.1705 149.14 45.4605 148.22 45.1205 147.01C44.9205 146.31 44.3305 146.18 43.6905 146.18C42.2705 146.18 40.9205 145.85 39.6605 145.21C37.6505 144.2 36.8105 142.19 37.4705 140.02C38.0105 138.26 38.9605 136.8 40.5005 135.7C41.4205 135.05 42.3605 134.43 43.3105 133.83C43.8205 133.51 43.8405 133.13 43.4505 132.67C43.1905 132.37 42.8805 132.1 42.6505 131.78C41.7305 130.5 41.7405 128.93 42.7305 127.71C43.5005 126.77 44.4705 126.09 45.6705 125.77C46.0605 125.67 46.4305 125.54 46.8205 125.45C47.0705 125.39 47.4505 125.3 47.5605 125.55C47.7405 125.98 47.3105 126.04 47.0305 126.17C46.3105 126.5 45.5205 126.75 44.8805 127.2C43.2005 128.4 43.1505 130.66 44.7705 131.75C44.9905 131.9 45.2205 132.04 45.4105 132.22C46.2505 133.03 46.2005 134.05 45.2605 134.75C44.0905 135.62 42.9105 136.5 41.6905 137.29C40.4905 138.06 39.8605 139.19 39.4405 140.47C38.9405 142 39.6505 143.3 41.2105 143.66C42.2405 143.9 43.3005 143.98 44.3505 144.14C44.7405 144.2 45.1505 144.22 45.5205 144.34C46.1005 144.54 46.6005 144.86 46.7805 145.51C46.8705 145.83 47.0105 146.14 47.1505 146.43C47.5205 147.2 48.0605 147.72 48.9805 147.75C49.3005 147.75 49.6405 147.85 49.9305 147.99C50.6705 148.36 50.8705 149.07 50.5205 149.84C50.2705 150.4 49.8505 150.82 49.4505 151.27C48.7505 152.07 48.1205 152.93 47.8305 153.99C47.7905 154.12 47.7305 154.24 47.7005 154.37C47.2405 156.21 47.9605 157.21 49.8305 157.32C49.9605 157.32 50.1005 157.32 50.5705 157.32L50.5905 157.36Z" fill="#B93E89"/>
    <path d="M47.9995 109.69C47.8995 108.17 48.6095 107.22 49.9895 106.59C50.6295 106.3 51.5295 106.47 51.8795 105.69C52.1695 105.03 51.6495 104.41 51.6095 103.75C51.4795 101.53 52.5095 99.3101 55.4395 98.7401C55.7795 98.6801 56.0895 98.7601 56.4195 98.8201C57.9495 99.1001 59.3295 99.6701 60.5895 100.6C61.1595 101.02 61.2295 100.98 61.7195 100.4C62.1495 99.8902 62.5795 99.3902 63.1695 99.0502C64.6295 98.2202 66.3395 98.9302 66.7895 100.55C66.8795 100.87 66.9495 101.19 67.0095 101.52C67.0495 101.72 67.0095 101.92 66.7895 101.97C66.6895 101.99 66.5195 101.91 66.4595 101.82C66.2695 101.55 66.1395 101.24 65.9395 100.97C65.2495 100.01 63.9895 99.9401 63.2295 100.85C62.8895 101.25 62.6795 101.75 62.3995 102.2C61.8695 103.05 61.2395 103.23 60.3895 102.74C59.8695 102.44 59.3795 102.1 58.8995 101.74C58.1295 101.18 57.2395 100.89 56.3295 100.69C54.7995 100.36 53.0495 101.3 53.4795 103.61C53.5795 104.13 53.7095 104.65 53.8595 105.15C54.0095 105.67 54.0395 106.2 53.9695 106.73C53.9095 107.24 53.6295 107.59 53.1295 107.73C52.4895 107.91 51.8395 108.04 51.2095 108.26C49.4695 108.88 49.2195 109.66 50.1795 111.29C50.2795 111.46 50.4395 111.6 50.5295 111.77C50.6895 112.1 51.1795 112.47 50.7595 112.78C50.4595 113.01 50.0195 112.62 49.7095 112.4C49.3395 112.13 49.0195 111.78 48.6795 111.47C48.1395 110.99 47.9395 110.38 48.0095 109.67L47.9995 109.69Z" fill="#B93E89"/>
    <path d="M122.65 175.54C122.65 176.03 122.85 176.37 123.1 176.68C123.51 177.21 123.71 177.86 124 178.45C125.23 180.9 122.99 184.4 120.54 184.82C120.09 184.9 119.6 185 119.16 184.92C117.93 184.7 116.75 184.33 115.71 183.5C116.23 183.05 116.68 183.41 117.1 183.37C117.56 183.32 118.03 183.34 118.5 183.37C119.26 183.41 119.94 183.2 120.6 182.85C122.07 182.06 122.67 180.79 122.2 179.18C121.92 178.23 121.46 177.33 121.07 176.41C120.67 175.45 120.78 174.93 121.64 174.37C122.2 174.01 122.82 173.76 123.4 173.43C124.55 172.77 124.64 171.68 123.59 170.89C122.9 170.37 122.11 170 121.27 169.75C121.14 169.71 121 169.67 120.91 169.59C120.82 169.51 120.74 169.37 120.74 169.27C120.74 169.18 120.88 169.04 120.97 169.03C122.72 168.84 124.08 169.61 125.17 170.88C125.9 171.73 125.66 173.37 124.73 174.13C124.07 174.67 123.32 175.1 122.64 175.56L122.65 175.54Z" fill="#B93E89"/>
    <path d="M202.3 57.7804C201.94 55.0404 203 52.2104 203.77 49.3304C204.65 46.0504 205.95 42.9204 207.36 39.8404C208.02 38.4004 208.95 37.0904 209.85 35.7804C210.33 35.0804 211.02 34.5404 211.8 34.1004C214.46 32.6104 216.77 33.7504 217.96 36.1004C218.65 37.4604 219.02 38.9704 219.07 40.5104C219.26 46.2204 218.2 51.7104 216.12 57.0304C215.56 58.4604 214.86 59.8104 214.21 61.1904C213.34 63.0304 212 64.5104 210.47 65.8004C209.07 66.9804 207.47 67.4404 205.65 66.6504C204.87 66.3204 204.25 65.7904 203.85 65.1304C203.04 63.7704 202.27 62.3604 202.28 60.6904C202.28 59.8304 202.28 58.9604 202.28 57.7704L202.3 57.7804Z" fill="#313334"/>
    <path d="M169.06 99.4297C168.23 99.2097 167.41 98.9398 166.53 99.0098C163.72 99.2397 161 98.6098 158.27 98.1198C155.52 97.6298 152.88 96.7498 150.24 95.8698C149.11 95.4898 148.24 94.8397 147.52 93.9597C146.47 92.6697 146.47 91.0497 147.47 89.7397C148.61 88.2397 150.11 87.8098 152.27 88.4098C153.86 88.8598 155.44 89.3597 157.03 89.8497C159.44 90.5897 161.93 90.9697 164.39 91.4297C165.83 91.6997 167.26 91.8997 168.73 91.8197C169.38 91.8197 169.78 92.2898 170.25 92.6198C172.24 94.0498 174.07 93.9297 175.93 92.3097C176.39 91.9097 176.71 91.1998 177.53 91.4098C181.18 90.9398 184.62 89.7597 187.99 88.3597C190.31 87.3897 192.61 86.3497 194.91 85.3097C195.39 85.0897 195.82 84.7797 196.28 84.4997C196.46 84.3897 196.66 84.3197 196.82 84.4697C197.07 84.7097 196.91 84.9598 196.73 85.1598C196.42 85.4998 196.09 85.8397 195.76 86.1697C194.78 87.1597 193.8 88.1497 192.8 89.1297C189.59 92.2797 185.82 94.6097 181.75 96.4597C179.63 97.4297 177.39 98.0598 175.11 98.4798C174.16 98.6598 173.58 99.0697 173.09 99.7797C172.5 99.3497 172.54 98.6097 172.24 98.0397C171.75 97.0797 171 96.3997 169.9 96.6097C168.57 96.8597 169.22 97.9198 169.26 98.6898C169.27 98.9598 169.3 99.2098 169.08 99.4098L169.06 99.4297Z" fill="#282A2B"/>
    <path d="M143.54 97.8203C142.63 97.8203 142.26 96.9303 141.54 96.6203C141.03 96.6003 140.93 96.1603 140.74 95.8203C140.07 95.0003 139.33 94.2603 138.34 93.8203C137.47 93.6403 137.1 93.0903 137.14 92.2203C135.97 91.2403 134.84 90.2403 133.98 88.9403C133.47 88.1803 132.71 87.5803 132.04 86.9303C131.55 86.4503 131.23 85.9203 131.02 85.2603C130.34 83.1103 129.58 80.9903 128.88 78.8403C128.51 77.7103 128.05 76.6103 127.72 75.4503C127.08 73.2103 126.75 70.9203 126.31 68.6403C125.62 65.1403 126.08 61.6103 125.98 58.1003C125.96 57.3203 126.25 56.5403 126.39 55.7603C126.67 55.7403 126.95 55.8403 127.06 56.0803C127.75 57.7103 129.12 58.3403 130.74 58.6403C131.34 59.2603 131.19 60.0003 131.04 60.7103C130.58 62.9503 130.58 65.1903 131.06 67.4303C131.13 67.7503 131.13 68.0903 131.15 68.4203C131.39 72.6203 132.28 76.6703 133.7 80.6403C134.38 82.5203 135.22 84.3303 136.02 86.1503C136.58 87.4203 137.35 88.6003 138.08 89.7803C139.54 92.1603 141.15 94.4403 142.93 96.5903C143.23 96.9603 143.52 97.3103 143.54 97.8103V97.8203Z" fill="#1A1C1C"/>
    <path d="M149.14 70.5795C148.44 70.0095 147.6 70.3295 146.82 70.2195C146.18 70.1295 145.84 69.7295 146 69.1295C146.98 65.5395 150.12 63.4195 153.31 63.4595C155.1 63.4795 156.56 64.5195 157.01 66.2295C157.23 67.0495 157.49 67.8795 157.54 68.7595C157.6 69.9295 157.69 69.9495 158.96 70.2895C159.73 70.4995 160.51 70.6695 161.26 70.9195C162.88 71.4495 163.91 72.5495 164.49 74.1695C165 75.5995 164.49 76.8595 163.79 77.9595C162.49 79.9895 160.57 81.2895 158.17 81.7795C157.52 81.9095 157.17 81.5495 157.06 80.9395C156.39 80.3695 156.38 79.5195 156.22 78.7595C155.54 75.4795 153.85 73.0295 150.65 71.7595C150.04 71.5195 149.38 71.3095 149.13 70.5795H149.14Z" fill="#171919"/>
    <path d="M149.14 70.5803C149.45 70.6903 149.76 70.8003 150.08 70.8903C154.24 72.2003 156.46 75.0903 156.98 79.3603C157.04 79.8803 157.05 80.4103 157.08 80.9303C156.46 82.0903 156.46 82.0603 155.31 81.9903C150.93 81.7203 146.94 77.8903 145.95 73.7303C145.77 72.9603 145.55 72.1903 145.62 71.3803C145.66 70.9203 145.9 70.6303 146.36 70.6103C147.28 70.5803 148.21 70.5803 149.13 70.5703L149.14 70.5803Z" fill="#9D1860"/>
    <path d="M132.74 54.94C132.76 51.91 134.57 50.24 137.63 50.25C140.38 50.26 142.37 52.14 142.32 54.82C142.27 57.64 140.26 59.62 137.36 59.8C136.06 59.88 135 59.06 134.05 58.17C133.05 57.24 132.59 56.13 132.74 54.94Z" fill="#181919"/>
    <path d="M177.51 91.4305C176.99 92.0105 176.51 92.6505 175.95 93.1805C174.3 94.7205 171.53 94.7005 169.87 93.1605C169.44 92.7605 169.1 92.2805 168.72 91.8305C168.08 90.5805 168.34 89.2505 168.39 87.9405C168.4 87.6305 168.59 87.3105 168.74 87.0205C169.58 85.4405 172.43 83.8905 174.76 85.0105C176.55 85.8705 177.45 87.2605 177.84 89.1005C177.9 89.4105 177.81 89.7505 177.77 90.0705C177.7 90.5205 177.61 90.9705 177.52 91.4205L177.51 91.4305Z" fill="#181919"/>
    <path d="M213.49 27.6298C213.49 25.2398 214.54 23.7198 216.67 22.8998C217.27 22.6698 217.82 22.6598 218.39 22.9498C219.86 23.7098 220.78 24.8398 220.67 26.5698C220.57 28.0498 220.19 29.4398 219.05 30.4998C217.98 31.4898 216.75 31.7898 215.39 31.2098C214.09 30.6598 213.51 29.6098 213.49 28.2298C213.49 28.0298 213.49 27.8298 213.49 27.6298Z" fill="#313334"/>
    <path d="M130.74 58.6501C130.13 58.8701 129.56 59.1401 128.87 58.8401C128.13 58.5101 127.5 58.0701 127.11 57.3701C126.83 56.8601 126.63 56.3101 126.4 55.7801C126.54 55.3201 126.68 54.8501 126.82 54.3901C127.35 54.1601 127.83 53.7601 128.48 53.9001C129.14 54.0501 129.7 54.3901 130.17 54.8501C130.49 55.1701 130.75 55.5501 131.03 55.9101C131.24 56.8601 131.37 57.8001 130.75 58.6601L130.74 58.6501Z" fill="#B54A88"/>
    <path d="M169.06 99.43C168.81 98.82 168.33 98.33 168.28 97.62C168.2 96.44 168.87 95.69 170.04 95.73C171.54 95.78 172.96 97.09 173.13 98.61C173.17 99 173.09 99.4 173.07 99.8C172.06 100.8 170.98 100.76 169.86 99.99C169.59 99.8 169.32 99.61 169.05 99.43H169.06Z" fill="#B54A88"/>
    <path d="M145.91 101C145.58 100.79 145.27 100.55 144.93 100.37C143.63 99.6805 143.63 99.6905 143.93 98.2305C144.58 98.9405 145.11 99.7605 145.94 100.3C146.19 100.46 146.01 100.77 145.9 101H145.91Z" fill="#171919"/>
    <path d="M139.14 133.79C137.78 134.05 136.42 134.32 135.03 134.59C134.94 134.39 134.84 134.22 134.8 134.04C134.4 132.29 133.56 131.53 131.82 131.42C131.16 131.38 130.5 131.41 129.85 131.61C129.03 131.87 128.2 132.08 127.38 132.31C127.31 132.16 127.21 132.04 127.21 131.92C127.21 131.09 127.09 130.31 126.37 129.78C125.59 129.2 124.68 128.98 123.73 129.11C122.48 129.28 121.25 129.59 120.09 130.11C119.73 130.27 119.36 130.41 119 130.55C118.94 130.47 118.88 130.42 118.87 130.36C118.74 129.12 118.35 128.01 117.19 127.37C115.93 126.67 114.59 126.38 113.16 126.82C112.59 126.99 112.02 127.15 111.45 127.32C110.46 124.31 110.41 124.25 107.87 123.2C108.27 122.59 108.69 122 109.07 121.38C109.77 120.22 110.17 118.98 110.05 117.59C109.95 116.36 109.37 115.45 108.3 114.86C107.6 114.47 106.85 114.22 106.03 114.17C104.49 114.07 102.98 114.12 101.49 114.61C101.14 114.72 100.81 115.03 100.39 114.88C100.99 110.44 100.93 110.2 98.7402 108.28C98.9002 108.08 99.1202 107.89 99.2202 107.66C99.5402 106.95 100.06 106.49 100.77 106.22C100.79 106.72 101.04 107.1 101.38 107.43C101.81 107.85 102.27 108.26 102.46 108.84C102.86 110.04 103.88 110.34 104.94 110.55C105.33 110.63 105.74 110.55 106.13 110.62C109.91 111.28 112.03 113.33 112.7 116.88C112.95 118.22 112.49 119.52 112.04 120.77C111.37 122.64 111.58 122.96 113.58 123C114.64 123.02 115.69 122.99 116.74 123.29C117.58 123.53 118.39 123.76 119.09 124.31C119.81 124.86 120.63 125.05 121.53 125C123.78 124.88 125.9 125.31 127.77 126.63C128.3 127.01 128.89 126.97 129.49 127C130.42 127.04 131.34 126.92 132.27 127.17C133.66 127.54 134.83 128.28 135.89 129.2C136.51 129.74 137.08 130.18 137.96 130.24C138.82 130.3 139.04 130.66 139.09 131.58C139.13 132.31 139.1 133.04 139.1 133.78L139.14 133.79Z" fill="#171919"/>
    <path d="M97.8901 101.54C97.2701 101.03 96.4401 101.03 95.6201 100.73C96.7301 98.38 97.6201 96.05 97.0601 93.46C97.5501 93.73 97.5801 94.19 97.5601 94.66C97.5201 95.49 97.6601 96.21 98.4201 96.74C98.8401 97.04 98.8001 97.56 98.6201 98.02C98.4501 98.45 98.2701 98.88 98.0301 99.27C97.5601 100.01 97.5901 100.76 97.8901 101.54Z" fill="#171919"/>
    <path d="M98.7305 108.27C98.0205 108.14 97.3205 108.01 96.6205 107.89C96.4405 107.34 96.9105 107.19 97.0805 106.89C97.2805 106.55 97.5205 106.23 97.7005 105.88C97.9105 105.47 98.1105 105.05 98.2305 104.61C98.3405 104.24 98.3605 103.83 98.3805 103.44C98.3905 103.05 98.3405 102.65 98.3205 102.26C98.7905 102.24 99.2505 102.23 99.5505 102.7C99.8105 103.11 100.01 103.54 99.8205 104.01C99.4805 104.85 99.6405 105.83 98.9205 106.58C98.5205 106.99 98.4705 107.67 98.7205 108.28L98.7305 108.27Z" fill="#171919"/>
    <path d="M137.14 92.2305C137.54 92.7605 137.94 93.3005 138.34 93.8305C137.96 94.8605 137.92 94.8905 137.18 94.6805C137.05 94.6405 136.92 94.6305 136.8 94.5805C136.03 94.2705 135.55 93.7305 135.63 93.1505C135.76 92.2705 136.46 92.2405 137.14 92.2305Z" fill="#171919"/>
    <path d="M121.59 97.4404C121.29 97.4004 121.02 97.4004 120.77 97.3304C120.44 97.2304 120.15 97.0504 120.19 96.6504C120.19 96.5404 120.3 96.3804 120.4 96.3504C120.8 96.2004 121.21 96.2104 121.43 96.6404C121.54 96.8704 121.54 97.1504 121.6 97.4404H121.59Z" fill="#171919"/>
    <path d="M140.74 95.8203C141.11 95.9803 141.38 96.2503 141.54 96.6203C141.27 97.0003 141.05 97.6803 140.5 97.3703C140.13 97.1703 140.4 96.5703 140.58 96.1603C140.63 96.0503 140.68 95.9303 140.74 95.8203Z" fill="#171919"/>
    <path d="M98.3298 102.26C98.0298 102.09 97.9098 101.8 97.8398 101.49C98.2398 101.6 98.3298 101.9 98.3298 102.26Z" fill="#171919"/>
    <path d="M141.22 55.0798C141.23 55.5598 140.99 56.2098 140.45 56.7498C139.82 57.3698 138.86 57.1698 138.55 56.3398C138.25 55.5398 138.59 54.1798 139.27 53.6498C139.65 53.3598 140.11 53.2498 140.56 53.4698C141.11 53.7298 141.21 54.2498 141.22 55.0798Z" fill="#F5F5F5"/>
    <path d="M176.72 89.3203C176.73 90.0803 176.48 90.7503 175.94 91.2803C175.66 91.5603 175.31 91.7803 174.88 91.7103C174.43 91.6403 173.99 91.0803 173.92 90.5603C173.83 89.8803 174 89.2503 174.36 88.6703C174.74 88.0603 175.37 87.7403 175.83 87.9003C176.36 88.0903 176.71 88.6403 176.73 89.3103L176.72 89.3203Z" fill="#F3F3F4"/>
</svg>