<svg width="240" height="165" viewBox="0 0 240 165" fill="none" xmlns="http://www.w3.org/2000/svg">
<path d="M160.925 123.828C160.926 123.844 160.926 123.861 160.926 123.878L160.925 123.828ZM167.454 69.3628L167.446 69.3605C167.39 69.3433 167.295 69.3149 167.185 69.2818C167.002 69.2269 166.775 69.1589 166.608 69.1076C161.242 67.5016 155.252 69.2977 151.565 73.6271C150.762 74.5741 150.306 75.2582 149.401 76.9527C148.994 77.7205 148.274 79.8803 147.947 81.4454C147.02 85.9084 147.574 90.2695 149.985 96.1801C150.797 98.1702 151.281 99.2159 153.998 104.832C157.286 111.625 158.89 115.669 160.17 120.453L160.171 120.454C160.313 120.987 160.494 121.729 160.638 122.35C160.645 122.382 160.653 122.413 160.66 122.444C161.299 122.031 162.081 121.539 162.541 121.262L162.541 121.262C165.407 119.54 168.582 117.996 172.106 116.602C174.38 115.701 175.934 115.138 180.685 113.473C186.071 111.583 188.807 110.424 191.326 109C195.743 106.503 198.449 103.593 200.518 99.1472C200.691 98.7746 200.819 98.4196 201.164 97.2181C202.329 93.1576 201.635 88.7228 199.261 85.1696C198.057 83.3703 196.368 81.7865 194.582 80.7715L194.577 80.7689C193.331 80.055 192.695 79.7731 192.222 79.6369C191.992 79.5741 191.543 79.4435 191.225 79.3502C187.483 78.2707 183.36 78.8371 179.858 80.9441C179.822 80.966 179.788 80.9875 179.754 81.0083C179.655 81.0703 179.564 81.1272 179.484 81.1774C179.431 81.2115 179.391 81.2369 179.365 81.2543L179.362 81.2562L179.337 81.2749C179.223 81.3589 179.034 81.4829 178.783 81.5631C178.519 81.6476 178.105 81.7059 177.658 81.5205C177.212 81.3351 176.961 81.0009 176.834 80.754C176.714 80.5194 176.668 80.2981 176.647 80.1583L176.645 80.1446L176.644 80.1308C176.583 79.6655 176.205 78.3729 175.813 77.4204L175.811 77.4161C174.588 74.421 172.366 71.9052 169.618 70.38C169.328 70.221 168.921 69.9965 168.713 69.8777C168.419 69.7159 167.851 69.4791 167.462 69.365L167.454 69.3628Z" fill="#787878"/>
<path d="M37.1056 36.2778C37.1156 36.2814 37.1256 36.2852 37.1355 36.2892L37.1056 36.2778ZM6.3407 19.4873L6.33745 19.4913C6.31308 19.5212 6.27255 19.5713 6.22532 19.6297C6.14688 19.7267 6.04986 19.8466 5.97755 19.935C3.68132 22.7781 3.25315 26.799 4.90696 30.0362C5.26963 30.7422 5.5626 31.1777 6.34436 32.1215C6.69932 32.5474 7.80397 33.4903 8.65328 34.0564C11.0761 35.6681 13.8087 36.3655 17.9267 36.3147C19.3135 36.2968 20.0563 36.2537 24.0754 35.9492C28.9378 35.5796 31.7439 35.5721 34.9098 35.9338L34.9104 35.9339C35.2627 35.9743 35.7492 36.041 36.1549 36.1011C36.1754 36.1042 36.1958 36.1072 36.2161 36.1102C36.1301 35.629 36.0331 35.0429 35.9834 34.7015L35.9833 34.701C35.6748 32.5733 35.5501 30.3021 35.6013 27.8563C35.6337 26.2774 35.687 25.2112 35.8838 21.9648C36.1057 18.2844 36.1002 16.3673 35.8823 14.5179C35.5007 11.2755 34.446 8.96318 32.3187 6.67001C32.1404 6.47778 31.9611 6.3174 31.3327 5.82622C29.2085 4.16713 26.3972 3.53608 23.6906 4.12197C22.3195 4.41995 20.9555 5.05957 19.9053 5.89264L19.9027 5.89471C19.1665 6.47469 18.8401 6.78961 18.6408 7.04154C18.546 7.16482 18.3562 7.40345 18.2211 7.57261C16.644 9.56455 15.9507 12.1743 16.3287 14.7754C16.333 14.8018 16.3372 14.8275 16.3412 14.8525C16.3532 14.9271 16.3642 14.9953 16.3743 15.0548C16.3811 15.095 16.3864 15.1246 16.3902 15.1445L16.3906 15.1466L16.3954 15.1662C16.417 15.2543 16.4435 15.397 16.4285 15.5668C16.4127 15.7456 16.344 16.0078 16.1221 16.2322C15.9002 16.4566 15.6388 16.5282 15.4602 16.5461C15.2906 16.563 15.1476 16.5381 15.0592 16.5175L15.0506 16.5155L15.0419 16.5133C14.7501 16.4396 13.8867 16.3611 13.2221 16.3717L13.2192 16.3717C11.132 16.3985 9.08034 17.1384 7.4864 18.4284C7.3194 18.5648 7.08414 18.7563 6.96161 18.8528C6.79179 18.9915 6.50909 19.2764 6.34395 19.4833L6.3407 19.4873Z" fill="#787878"/>
<path d="M235.394 102.209C235.36 102.306 235.304 102.446 235.226 102.628C235.076 103.026 234.956 103.327 234.864 103.53C234.782 103.745 234.657 104.035 234.49 104.397C234.332 104.772 234.19 105.06 234.065 105.258C233.95 105.47 233.798 105.699 233.611 105.947C233.433 106.207 233.259 106.395 233.087 106.509C232.926 106.636 232.734 106.732 232.513 106.795C232.301 106.871 232.085 106.89 231.864 106.852C231.248 106.733 230.804 106.252 230.534 105.409C230.263 104.566 230.198 103.561 230.338 102.396C230.435 101.585 230.635 100.86 230.937 100.221C231.239 99.5816 231.587 99.1222 231.981 98.8429L232.723 99.6922C232.601 99.6775 232.477 99.6851 232.349 99.7148C232.22 99.7557 232.095 99.8138 231.973 99.8893C231.862 99.9772 231.748 100.082 231.632 100.203C231.526 100.337 231.424 100.482 231.326 100.639C231.228 100.796 231.14 100.966 231.062 101.148C230.994 101.343 230.93 101.549 230.87 101.767C230.821 101.986 230.782 102.212 230.754 102.446C230.69 102.978 230.703 103.481 230.793 103.954C230.883 104.426 231.034 104.81 231.246 105.106C231.469 105.403 231.725 105.569 232.014 105.603C232.114 105.615 232.211 105.605 232.305 105.571C232.41 105.538 232.514 105.472 232.616 105.372C232.717 105.282 232.806 105.192 232.885 105.1C232.975 105.009 233.07 104.869 233.172 104.678C233.272 104.499 233.358 104.346 233.43 104.219C233.501 104.093 233.591 103.907 233.7 103.661C233.808 103.415 233.888 103.216 233.94 103.064C234.002 102.925 234.094 102.717 234.218 102.439C234.252 102.342 234.279 102.261 234.298 102.195C234.327 102.142 234.358 102.073 234.39 101.987C234.434 101.902 234.471 101.828 234.502 101.764C234.927 100.756 235.37 99.9705 235.832 99.4066C236.305 98.844 236.738 98.5188 237.131 98.4309C237.524 98.3541 237.892 98.4265 238.237 98.6481C238.593 98.871 238.883 99.2211 239.108 99.6985C239.342 100.188 239.503 100.765 239.592 101.429C239.691 102.105 239.698 102.799 239.613 103.509C239.454 104.83 239.042 105.923 238.375 106.789C237.717 107.668 237 108.06 236.223 107.967L235.868 105.999L236.178 105.951C236.241 106.274 236.372 106.493 236.572 106.607C236.784 106.722 237.012 106.744 237.257 106.672C237.502 106.6 237.727 106.464 237.931 106.263C238.605 105.623 239.027 104.689 239.197 103.459C239.266 102.972 239.264 102.476 239.189 101.972C239.126 101.469 239.011 101.021 238.844 100.63C238.688 100.239 238.481 99.9442 238.224 99.7444C237.965 99.5557 237.686 99.4828 237.388 99.5259C237.089 99.58 236.76 99.8334 236.402 100.286C236.055 100.74 235.719 101.381 235.394 102.209Z" fill="#787878"/>
<path d="M236.777 116.903L236.298 116.47L229.29 117.384C229.092 117.416 228.804 117.454 228.427 117.499C228.049 117.543 227.818 117.57 227.733 117.578C227.486 117.617 227.324 117.666 227.247 117.724C227.171 117.781 227.093 117.933 227.016 118.178L226.616 118.052L227.137 116.405L227.537 116.531C227.392 116.989 227.52 117.194 227.923 117.146L229.246 116.966C230.241 116.823 230.999 116.559 231.52 116.172C232.1 115.746 232.544 115.048 232.85 114.078L233.043 113.47L229.976 110.654C229.821 110.511 229.688 110.469 229.576 110.527C229.464 110.585 229.374 110.721 229.306 110.934L228.907 110.808L229.655 108.441L230.055 108.568C229.981 108.802 229.958 108.965 229.988 109.057C230.014 109.159 230.117 109.297 230.297 109.471C230.408 109.565 231.444 110.514 233.407 112.319L233.735 111.28L234.119 111.401L233.234 114.199C232.863 115.372 232.291 116.199 231.517 116.682L235.905 116.099L233.602 113.981L233.966 112.83L237.141 115.751L236.777 116.903Z" fill="#787878"/>
<path d="M234.518 123.473C234.017 124.422 233.266 125.846 232.264 127.745C231.262 129.643 230.51 131.067 230.009 132.016L228.62 131.056L228.816 130.685C228.978 130.783 229.139 130.887 229.296 130.995C229.454 131.104 229.618 131.14 229.789 131.104C229.955 131.077 230.098 130.95 230.218 130.723L231.932 127.475L231.086 127.749L224.604 124.328C224.555 124.302 224.51 124.278 224.471 124.258C224.436 124.252 224.396 124.243 224.351 124.232C224.306 124.221 224.261 124.223 224.216 124.237C224.171 124.251 224.123 124.27 224.072 124.294C224.032 124.323 223.988 124.37 223.942 124.434C223.89 124.507 223.838 124.594 223.786 124.693L223.415 124.497L224.589 122.272L224.96 122.468C224.882 122.616 224.829 122.74 224.802 122.84C224.785 122.944 224.793 123.024 224.827 123.08C224.865 123.151 224.901 123.202 224.936 123.233C224.98 123.269 225.042 123.307 225.121 123.349L232.151 127.06L233.568 124.375C233.683 124.157 233.707 123.968 233.64 123.806C233.569 123.655 233.446 123.54 233.273 123.461C233.094 123.392 232.919 123.318 232.745 123.239L232.941 122.868L234.518 123.473Z" fill="#787878"/>
<path d="M226.888 135.708C226.985 135.571 227.048 135.451 227.078 135.35C227.117 135.255 227.122 135.169 227.093 135.094C227.064 135.019 227.029 134.961 226.99 134.92C226.953 134.894 226.894 134.852 226.811 134.795L220.807 130.593C220.725 130.535 220.66 130.49 220.615 130.458C220.572 130.441 220.51 130.432 220.429 130.431C220.349 130.429 220.266 130.459 220.18 130.523C220.104 130.592 220.018 130.696 219.922 130.833L219.579 130.593L221.021 128.532L221.365 128.772C221.268 128.91 221.201 129.026 221.161 129.121C221.131 129.223 221.134 129.307 221.17 129.373C221.199 129.448 221.229 129.503 221.259 129.537C221.298 129.579 221.359 129.628 221.442 129.686L227.446 133.888C227.529 133.946 227.591 133.983 227.634 133.999C227.687 134.022 227.753 134.034 227.834 134.036C227.908 134.047 227.983 134.018 228.059 133.948C228.144 133.885 228.235 133.785 228.331 133.647L228.674 133.888L227.232 135.949L226.888 135.708Z" fill="#787878"/>
<path d="M219.725 138.462C219.641 138.521 219.514 138.602 219.344 138.704C218.99 138.941 218.717 139.115 218.524 139.227C218.332 139.354 218.062 139.516 217.714 139.713C217.368 139.926 217.085 140.077 216.868 140.166C216.651 140.27 216.394 140.368 216.097 140.46C215.801 140.568 215.55 140.619 215.344 140.612C215.139 140.621 214.927 140.587 214.71 140.509C214.494 140.447 214.307 140.337 214.15 140.177C213.718 139.721 213.639 139.072 213.911 138.229C214.182 137.386 214.715 136.532 215.508 135.667C216.059 135.065 216.644 134.592 217.262 134.249C217.88 133.905 218.431 133.735 218.914 133.738L219.022 134.861C218.931 134.778 218.826 134.711 218.705 134.661C218.576 134.619 218.441 134.593 218.298 134.584C218.156 134.59 218.002 134.608 217.837 134.639C217.673 134.686 217.505 134.745 217.334 134.816C217.163 134.886 216.993 134.973 216.824 135.075C216.655 135.193 216.482 135.324 216.306 135.466C216.139 135.616 215.976 135.777 215.817 135.95C215.455 136.346 215.172 136.762 214.969 137.198C214.767 137.634 214.666 138.034 214.666 138.398C214.674 138.77 214.785 139.054 215 139.25C215.074 139.318 215.159 139.366 215.255 139.393C215.36 139.428 215.482 139.435 215.624 139.413C215.758 139.399 215.884 139.378 216.001 139.349C216.127 139.327 216.286 139.269 216.48 139.174C216.666 139.086 216.825 139.012 216.957 138.951C217.089 138.89 217.271 138.791 217.502 138.654C217.733 138.517 217.914 138.403 218.045 138.31C218.176 138.233 218.373 138.118 218.635 137.964C218.72 137.905 218.789 137.854 218.842 137.812C218.896 137.786 218.962 137.748 219.039 137.697C219.124 137.654 219.198 137.615 219.259 137.58C220.192 137.009 221.01 136.63 221.714 136.441C222.426 136.259 222.968 136.247 223.339 136.405C223.702 136.571 223.959 136.845 224.111 137.226C224.27 137.615 224.302 138.069 224.206 138.587C224.11 139.122 223.905 139.684 223.591 140.276C223.277 140.883 222.878 141.45 222.395 141.978C221.496 142.959 220.523 143.607 219.477 143.921C218.431 144.252 217.619 144.153 217.042 143.624L217.901 141.818L218.18 141.96C218.043 142.259 218.022 142.513 218.119 142.722C218.223 142.939 218.396 143.09 218.637 143.175C218.878 143.259 219.14 143.279 219.423 143.235C220.343 143.108 221.231 142.595 222.086 141.695C222.426 141.34 222.714 140.935 222.947 140.482C223.189 140.036 223.356 139.606 223.448 139.19C223.549 138.782 223.553 138.422 223.461 138.109C223.36 137.805 223.177 137.584 222.909 137.445C222.635 137.314 222.22 137.329 221.665 137.487C221.118 137.654 220.472 137.979 219.725 138.462Z" fill="#787878"/>
<path d="M208.987 153.674L208.151 151.638L208.473 151.396C208.48 151.405 208.493 151.423 208.514 151.45C208.619 151.665 208.7 151.82 208.758 151.916C208.817 152.012 208.9 152.124 209.01 152.251C209.126 152.388 209.239 152.464 209.349 152.48C209.456 152.511 209.585 152.505 209.735 152.463C209.891 152.429 210.063 152.342 210.251 152.201L214.45 149.052C214.585 148.951 214.682 148.857 214.742 148.77C214.809 148.692 214.841 148.612 214.836 148.532C214.832 148.451 214.817 148.385 214.793 148.334C214.766 148.298 214.722 148.24 214.662 148.159L212.116 144.765C212.112 145.132 211.981 145.516 211.724 145.919C211.567 146.176 211.336 146.454 211.029 146.754C210.723 147.054 210.408 147.332 210.083 147.589C209.75 147.853 209.32 148.183 208.792 148.579L208.551 148.257C210.08 147.11 211.025 146.254 211.385 145.691C211.776 145.076 211.778 144.445 211.392 143.799L210.265 142.296C210.204 142.216 210.157 142.153 210.124 142.108C210.088 142.079 210.032 142.051 209.956 142.025C209.88 141.998 209.792 142.001 209.691 142.035C209.597 142.077 209.483 142.149 209.349 142.249L209.097 141.914L211.11 140.405L211.361 140.74C211.227 140.841 211.127 140.93 211.059 141.008C210.999 141.096 210.976 141.176 210.989 141.25C210.994 141.33 211.005 141.392 211.023 141.434C211.047 141.486 211.09 141.552 211.15 141.632L215.547 147.495C215.608 147.576 215.656 147.631 215.692 147.66C215.734 147.698 215.793 147.73 215.869 147.757C215.936 147.79 216.017 147.786 216.111 147.744C216.211 147.71 216.329 147.643 216.463 147.542L216.715 147.878L208.987 153.674Z" fill="#787878"/>
<path d="M201.343 157.871L201.325 157.226L195.824 152.789C195.665 152.668 195.439 152.486 195.146 152.244C194.853 152.001 194.674 151.852 194.609 151.797C194.41 151.645 194.264 151.562 194.169 151.546C194.074 151.53 193.911 151.579 193.68 151.692L193.495 151.316L195.046 150.555L195.231 150.932C194.799 151.143 194.74 151.378 195.053 151.635L196.097 152.468C196.887 153.09 197.602 153.455 198.241 153.565C198.95 153.69 199.761 153.529 200.675 153.081L201.247 152.8L201.166 148.637C201.163 148.427 201.101 148.302 200.982 148.261C200.862 148.22 200.702 148.249 200.501 148.347L200.316 147.971L202.545 146.878L202.729 147.254C202.509 147.362 202.375 147.459 202.33 147.543C202.274 147.633 202.245 147.803 202.243 148.053C202.252 148.198 202.281 149.603 202.331 152.269L203.31 151.789L203.487 152.15L200.852 153.442C199.748 153.984 198.754 154.141 197.871 153.915L201.322 156.686L201.264 153.558L202.348 153.026L202.427 157.34L201.343 157.871Z" fill="#787878"/>
<path d="M187.193 162.134L186.708 160.371L187.113 160.26C187.259 160.707 187.506 161.056 187.853 161.308C188.204 161.571 188.587 161.721 189.003 161.757C189.408 161.797 189.826 161.757 190.258 161.639C190.681 161.534 191.055 161.355 191.38 161.104C192.206 160.482 192.658 159.616 192.735 158.505C192.815 157.404 192.5 156.383 191.789 155.443C191.428 154.974 191.008 154.585 190.528 154.276C190.052 153.978 189.556 153.778 189.041 153.676C188.519 153.588 188.01 153.595 187.516 153.696C186.763 153.868 186.108 154.309 185.549 155.019C184.991 155.73 184.706 156.527 184.694 157.411L183.661 157.07C183.822 156.179 184.247 155.384 184.935 154.684C185.624 153.984 186.502 153.488 187.569 153.194C188.852 152.841 190.072 152.975 191.228 153.596C192.377 154.231 193.122 155.169 193.463 156.408C193.807 157.659 193.646 158.845 192.981 159.968C192.308 161.104 191.33 161.848 190.047 162.201C189.077 162.468 188.126 162.445 187.193 162.134Z" fill="#787878"/>
<path d="M182.675 164.05C181.607 164.15 180.003 164.298 177.866 164.497C175.728 164.695 174.125 164.844 173.057 164.943L173.102 163.255L173.52 163.216C173.526 163.406 173.527 163.597 173.522 163.788C173.517 163.98 173.577 164.137 173.701 164.26C173.813 164.384 173.998 164.435 174.254 164.411L177.911 164.071L177.219 163.513L176.541 156.215C176.536 156.159 176.532 156.109 176.528 156.065C176.513 156.032 176.499 155.994 176.483 155.951C176.468 155.907 176.442 155.871 176.406 155.84C176.369 155.81 176.327 155.78 176.279 155.751C176.233 155.733 176.17 155.722 176.091 155.718C176.001 155.715 175.9 155.719 175.789 155.729L175.75 155.312L178.255 155.079L178.294 155.497C178.127 155.512 177.994 155.536 177.896 155.567C177.799 155.61 177.736 155.661 177.708 155.719C177.67 155.79 177.647 155.849 177.64 155.894C177.634 155.951 177.635 156.024 177.644 156.113L178.378 164.028L181.401 163.748C181.646 163.725 181.818 163.641 181.917 163.498C182.004 163.355 182.034 163.189 182.005 163.001C181.965 162.814 181.931 162.626 181.902 162.438L182.32 162.399L182.675 164.05Z" fill="#787878"/>
<path d="M168.047 164.332C168.215 164.337 168.349 164.325 168.451 164.295C168.552 164.276 168.627 164.234 168.674 164.169C168.721 164.103 168.751 164.043 168.764 163.987C168.765 163.943 168.768 163.87 168.771 163.769L169.026 156.445C169.029 156.344 169.032 156.266 169.034 156.21C169.024 156.165 168.998 156.108 168.956 156.04C168.914 155.971 168.843 155.918 168.743 155.881C168.644 155.856 168.51 155.84 168.342 155.834L168.357 155.415L170.871 155.502L170.856 155.921C170.689 155.915 170.554 155.922 170.453 155.941C170.351 155.971 170.282 156.019 170.247 156.085C170.2 156.15 170.17 156.205 170.157 156.249C170.144 156.305 170.136 156.383 170.132 156.483L169.878 163.808C169.874 163.908 169.877 163.981 169.887 164.026C169.896 164.083 169.922 164.145 169.964 164.214C169.995 164.282 170.061 164.329 170.161 164.355C170.26 164.392 170.394 164.413 170.561 164.419L170.547 164.838L168.032 164.751L168.047 164.332Z" fill="#787878"/>
<path d="M160.645 159.84L160.37 159.454C160.324 159.389 160.309 159.307 160.326 159.208C160.34 159.12 160.38 159.053 160.444 159.007L160.83 158.731C160.908 158.676 160.99 158.656 161.079 158.671C161.167 158.686 161.239 158.732 161.294 158.809L161.569 159.195C161.615 159.259 161.631 159.336 161.616 159.424C161.599 159.523 161.559 159.596 161.495 159.642L161.109 159.917C161.031 159.972 160.949 159.992 160.86 159.978C160.772 159.963 160.7 159.917 160.645 159.84ZM163.801 163.138C162.713 163.886 161.512 164.15 160.2 163.931C158.888 163.712 157.844 163.073 157.069 162.014C156.28 160.964 155.993 159.799 156.207 158.52C156.419 157.252 157.069 156.244 158.157 155.496C159.233 154.758 160.427 154.498 161.739 154.717C163.051 154.937 164.102 155.571 164.89 156.621C165.665 157.68 165.947 158.844 165.735 160.112C165.521 161.391 164.877 162.4 163.801 163.138ZM160.804 155.326C159.718 155.519 158.81 156.07 158.08 156.98C157.337 157.898 156.986 158.911 157.028 160.018C157.07 161.124 157.496 162 158.306 162.646C159.106 163.289 160.048 163.515 161.135 163.322C162.221 163.13 163.136 162.574 163.879 161.655C164.609 160.746 164.953 159.737 164.911 158.631C164.858 157.523 164.432 156.647 163.633 156.003C162.833 155.359 161.891 155.134 160.804 155.326Z" fill="#787878"/>
<path d="M145.166 159.307L145.02 159.7L143.306 159.064L143.452 158.671C143.599 158.726 143.725 158.755 143.831 158.758C143.933 158.772 144.017 158.756 144.082 158.708C144.144 158.671 144.189 158.629 144.219 158.58C144.245 158.542 144.274 158.481 144.305 158.397L147.215 150.551L147.341 150.598C147.876 150.796 148.327 151.059 148.694 151.386C149.062 151.713 149.335 152.071 149.513 152.459C149.676 152.853 149.8 153.275 149.884 153.723C149.965 154.182 150.005 154.651 150.007 155.128C150.009 155.606 150.005 156.082 149.997 156.555C149.988 157.029 150.002 157.488 150.041 157.931C150.065 158.381 150.125 158.797 150.222 159.179C150.315 159.571 150.489 159.922 150.744 160.231C150.984 160.547 151.301 160.802 151.695 160.995L154.22 154.187C154.251 154.103 154.271 154.033 154.28 153.977C154.285 153.931 154.284 153.871 154.276 153.796C154.253 153.728 154.201 153.661 154.118 153.594C154.031 153.539 153.909 153.481 153.752 153.423L153.898 153.03L155.612 153.666L155.466 154.059C155.309 154 155.179 153.964 155.077 153.95C154.971 153.947 154.893 153.965 154.842 154.006C154.776 154.053 154.731 154.096 154.705 154.134C154.675 154.183 154.644 154.249 154.613 154.333L151.703 162.179L151.561 162.126C151.027 161.928 150.583 161.662 150.229 161.328C149.862 161.001 149.591 160.638 149.417 160.24C149.239 159.852 149.115 159.43 149.045 158.975C148.961 158.527 148.918 158.064 148.917 157.586C148.901 157.115 148.897 156.642 148.906 156.169C148.915 155.695 148.907 155.233 148.883 154.783C148.855 154.343 148.795 153.927 148.702 153.535C148.605 153.153 148.436 152.805 148.196 152.489C147.941 152.18 147.611 151.926 147.208 151.729L144.682 158.537C144.651 158.621 144.633 158.686 144.628 158.732C144.619 158.788 144.626 158.85 144.648 158.918C144.667 158.997 144.719 159.064 144.806 159.12C144.889 159.186 145.009 159.249 145.166 159.307Z" fill="#787878"/>
<path d="M144.163 37.3885C144.264 37.369 144.413 37.3471 144.61 37.3227C145.029 37.2504 145.35 37.2027 145.572 37.1797C145.799 37.142 146.111 37.1039 146.509 37.0654C146.913 37.0122 147.232 36.9895 147.467 36.9973C147.708 36.9904 147.982 37.0053 148.291 37.0421C148.605 37.0642 148.855 37.1203 149.04 37.2105C149.231 37.286 149.41 37.4034 149.577 37.5627C149.749 37.7073 149.875 37.8844 149.953 38.0939C150.162 38.6861 149.97 39.3117 149.378 39.9705C148.787 40.6294 147.952 41.1924 146.875 41.6597C146.127 41.9845 145.4 42.1778 144.696 42.2397C143.991 42.3015 143.419 42.2329 142.979 42.0337L143.338 40.9641C143.387 41.0769 143.456 41.1808 143.546 41.2759C143.646 41.3664 143.76 41.4452 143.886 41.5122C144.019 41.5644 144.166 41.61 144.33 41.6489C144.499 41.6732 144.676 41.6878 144.861 41.6928C145.046 41.6979 145.236 41.6882 145.433 41.6639C145.635 41.6248 145.846 41.5761 146.064 41.5179C146.278 41.4494 146.493 41.3685 146.708 41.275C147.201 41.0614 147.628 40.7967 147.991 40.481C148.354 40.1652 148.609 39.8411 148.757 39.5086C148.901 39.1659 148.915 38.8612 148.8 38.5945C148.76 38.5022 148.701 38.424 148.625 38.3597C148.543 38.2852 148.434 38.2291 148.296 38.1916C148.168 38.1496 148.044 38.1178 147.925 38.0963C147.802 38.0646 147.632 38.0529 147.416 38.0612C147.211 38.065 147.036 38.068 146.89 38.0701C146.745 38.0722 146.539 38.0885 146.272 38.1191C146.005 38.1496 145.793 38.1807 145.636 38.2122C145.484 38.229 145.258 38.2543 144.955 38.2879C144.854 38.3074 144.771 38.3254 144.705 38.3419C144.645 38.3436 144.569 38.352 144.478 38.3671C144.383 38.3719 144.3 38.3774 144.229 38.3836C143.145 38.525 142.243 38.5385 141.523 38.4243C140.799 38.2997 140.299 38.0898 140.025 37.7945C139.761 37.4947 139.637 37.14 139.655 36.7303C139.667 36.3104 139.823 35.8832 140.122 35.4488C140.427 34.9997 140.844 34.5691 141.372 34.1572C141.906 33.7305 142.501 33.3748 143.157 33.09C144.378 32.5605 145.53 32.3653 146.614 32.5043C147.704 32.6287 148.405 33.0498 148.716 33.7678L147.196 35.0672L146.999 34.8237C147.246 34.6068 147.369 34.3831 147.366 34.1526C147.359 33.9119 147.263 33.7038 147.077 33.5285C146.891 33.3531 146.66 33.2279 146.384 33.1528C145.492 32.8939 144.472 33.0012 143.324 33.4747C142.869 33.6602 142.442 33.9124 142.044 34.2313C141.642 34.5399 141.313 34.8651 141.059 35.2068C140.801 35.5383 140.651 35.8656 140.608 36.1887C140.576 36.5075 140.653 36.7846 140.841 37.0201C141.038 37.2512 141.423 37.4073 141.994 37.4885C142.561 37.5593 143.284 37.526 144.163 37.3885Z" fill="#787878"/>
<path d="M156.152 28.7818L156.02 29.4135L160.346 35.0032C160.473 35.1579 160.651 35.387 160.88 35.6905C161.109 35.994 161.248 36.1802 161.298 36.2492C161.457 36.4426 161.58 36.5579 161.669 36.5952C161.758 36.6324 161.927 36.6227 162.178 36.5659L162.271 36.9749L160.586 37.3561L160.493 36.9472C160.962 36.8411 161.074 36.6266 160.829 36.3037L160.007 35.2519C159.381 34.4648 158.771 33.9439 158.174 33.6891C157.513 33.403 156.687 33.3723 155.695 33.5968L155.073 33.7375L154.188 37.8065C154.143 38.0116 154.174 38.148 154.281 38.2155C154.388 38.283 154.55 38.292 154.768 38.2427L154.861 38.6516L152.44 39.1994L152.348 38.7905C152.587 38.7362 152.739 38.6731 152.803 38.6013C152.878 38.5271 152.946 38.3686 153.005 38.1258C153.03 37.9826 153.327 36.6087 153.895 34.004L152.832 34.2446L152.743 33.852L155.606 33.2043C156.805 32.9328 157.808 33.0096 158.615 33.4345L155.899 29.9397L155.232 32.9965L154.054 33.263L154.975 29.0483L156.152 28.7818Z" fill="#787878"/>
<path d="M162.965 27.417C164.037 27.3707 165.646 27.3012 167.791 27.2085C169.935 27.1158 171.544 27.0463 172.616 27L172.487 28.6842L172.069 28.7023C172.072 28.5119 172.08 28.3213 172.094 28.1305C172.108 27.9396 172.057 27.7796 171.939 27.6504C171.833 27.5207 171.651 27.4614 171.394 27.4725L167.725 27.631L168.388 28.2235L168.705 35.5455C168.707 35.6013 168.709 35.6516 168.711 35.6963C168.724 35.7293 168.737 35.7679 168.75 35.8121C168.763 35.8563 168.787 35.8944 168.822 35.9265C168.857 35.9586 168.898 35.9904 168.944 36.022C168.989 36.0424 169.051 36.0565 169.13 36.0643C169.22 36.0716 169.321 36.0728 169.432 36.068L169.451 36.4869L166.937 36.5955L166.919 36.1766C167.087 36.1694 167.22 36.1524 167.32 36.1257C167.419 36.0879 167.484 36.0403 167.515 35.983C167.557 35.914 167.582 35.857 167.592 35.8118C167.6 35.7555 167.603 35.6826 167.599 35.5933L167.256 27.6513L164.223 27.7823C163.977 27.793 163.802 27.8677 163.696 28.0066C163.601 28.145 163.563 28.3089 163.583 28.4983C163.613 28.6872 163.638 28.8764 163.657 29.0658L163.239 29.0839L162.965 27.417Z" fill="#787878"/>
<path d="M177.378 27.8317C177.211 27.818 177.076 27.8238 176.973 27.849C176.871 27.863 176.795 27.9017 176.745 27.9649C176.695 28.0281 176.662 28.0871 176.646 28.1419C176.643 28.1865 176.637 28.2589 176.628 28.3592L176.029 35.6635C176.021 35.7638 176.015 35.8418 176.01 35.8975C176.018 35.943 176.041 36.001 176.08 36.0715C176.119 36.142 176.187 36.1981 176.285 36.2398C176.383 36.2703 176.516 36.2924 176.683 36.3061L176.649 36.724L174.142 36.5184L174.176 36.1005C174.343 36.1142 174.478 36.1141 174.58 36.1C174.683 36.0748 174.754 36.0301 174.793 35.966C174.843 35.9028 174.876 35.8494 174.89 35.8057C174.906 35.7509 174.918 35.6734 174.926 35.5731L175.525 28.2687C175.533 28.1684 175.534 28.0956 175.526 28.0501C175.52 27.9934 175.497 27.9299 175.458 27.8594C175.43 27.7898 175.367 27.7397 175.268 27.7092C175.171 27.6675 175.038 27.6399 174.871 27.6262L174.905 27.2083L177.413 27.4139L177.378 27.8317Z" fill="#787878"/>
<path d="M183.37 32.6274C183.463 32.6705 183.597 32.7395 183.771 32.8343C184.154 33.0201 184.443 33.1682 184.636 33.2787C184.843 33.3806 185.119 33.5318 185.464 33.7324C185.823 33.9244 186.096 34.092 186.282 34.2353C186.482 34.3699 186.696 34.5421 186.925 34.7519C187.168 34.953 187.338 35.1442 187.436 35.3256C187.548 35.4984 187.625 35.6981 187.667 35.9246C187.723 36.1426 187.722 36.3596 187.663 36.5758C187.487 37.1784 186.967 37.5748 186.102 37.7653C185.237 37.9558 184.231 37.9269 183.084 37.6788C182.286 37.5062 181.583 37.2398 180.975 36.8794C180.366 36.5191 179.941 36.1298 179.7 35.7115L180.615 35.0515C180.589 35.1717 180.585 35.2966 180.603 35.4263C180.631 35.5583 180.677 35.6884 180.741 35.8166C180.818 35.9362 180.912 36.0594 181.022 36.1861C181.145 36.3042 181.28 36.4193 181.427 36.5312C181.575 36.6432 181.735 36.7466 181.909 36.8414C182.097 36.9276 182.296 37.0108 182.508 37.0908C182.721 37.16 182.943 37.2193 183.172 37.269C183.697 37.3824 184.199 37.4165 184.677 37.3714C185.156 37.3262 185.553 37.2118 185.867 37.0281C186.184 36.8335 186.373 36.5941 186.434 36.31C186.455 36.2116 186.454 36.114 186.429 36.0171C186.406 35.9093 186.35 35.7999 186.26 35.6888C186.18 35.5801 186.098 35.4824 186.014 35.3955C185.932 35.2978 185.801 35.1894 185.621 35.0703C185.452 34.9537 185.308 34.8538 185.188 34.7708C185.069 34.6878 184.892 34.5809 184.657 34.45C184.422 34.3192 184.232 34.2208 184.086 34.155C183.954 34.0805 183.755 33.9689 183.489 33.82C183.396 33.7769 183.317 33.7428 183.254 33.7176C183.204 33.684 183.138 33.6468 183.055 33.606C182.975 33.5543 182.904 33.5104 182.843 33.4744C181.88 32.9572 181.139 32.4424 180.621 31.9299C180.105 31.4065 179.822 30.9449 179.771 30.5449C179.731 30.1474 179.837 29.7872 180.09 29.4644C180.345 29.1307 180.721 28.8745 181.217 28.6958C181.727 28.5086 182.316 28.4016 182.986 28.3747C183.668 28.3393 184.359 28.3972 185.058 28.5485C186.359 28.8297 187.409 29.3428 188.209 30.0877C189.022 30.8241 189.346 31.5747 189.18 32.3397L187.187 32.5093L187.169 32.1965C187.497 32.1643 187.726 32.0539 187.859 31.8651C187.993 31.6655 188.036 31.4403 187.988 31.1895C187.939 30.9388 187.824 30.7023 187.643 30.4802C187.069 29.7498 186.178 29.2425 184.97 28.9583C184.491 28.8434 183.998 28.7995 183.488 28.8266C182.982 28.8428 182.525 28.9158 182.12 29.0454C181.717 29.1641 181.404 29.3424 181.181 29.5801C180.968 29.8202 180.87 30.0906 180.885 30.3913C180.911 30.6943 181.132 31.0453 181.55 31.4444C181.969 31.8325 182.576 32.2268 183.37 32.6274Z" fill="#787878"/>
<path d="M201.921 34.2249L200.585 35.9732L200.214 35.817C200.218 35.8067 200.227 35.7861 200.24 35.7552C200.372 35.5562 200.465 35.4073 200.519 35.3086C200.572 35.2099 200.627 35.0811 200.681 34.9222C200.741 34.753 200.749 34.6171 200.708 34.5146C200.68 34.4061 200.611 34.2979 200.498 34.19C200.391 34.0718 200.228 33.9671 200.012 33.876L195.174 31.8391C195.019 31.7741 194.889 31.7374 194.784 31.7293C194.682 31.7109 194.598 31.7239 194.531 31.7684C194.463 31.8128 194.414 31.8587 194.382 31.9059C194.364 31.9471 194.336 32.0141 194.297 32.1068L192.651 36.0174C192.969 35.8362 193.368 35.7551 193.845 35.7741C194.146 35.7795 194.503 35.8389 194.916 35.9522C195.329 36.0656 195.729 36.1973 196.115 36.3475C196.51 36.5021 197.012 36.7074 197.62 36.9633L197.464 37.3343C195.702 36.5924 194.487 36.2082 193.819 36.1816C193.09 36.154 192.545 36.4702 192.182 37.1302L191.453 38.8614C191.414 38.9541 191.384 39.0263 191.362 39.0778C191.355 39.1233 191.359 39.1857 191.374 39.2649C191.389 39.3441 191.437 39.4186 191.517 39.4886C191.601 39.5483 191.72 39.6106 191.875 39.6757L191.712 40.0621L189.393 39.086L189.556 38.6996C189.711 38.7646 189.839 38.8064 189.94 38.8248C190.046 38.833 190.127 38.8126 190.184 38.7638C190.251 38.7193 190.299 38.6787 190.326 38.6418C190.358 38.5946 190.394 38.5246 190.433 38.4319L193.277 31.6773C193.316 31.5845 193.339 31.5154 193.346 31.4698C193.357 31.414 193.356 31.3465 193.34 31.2673C193.335 31.1924 193.291 31.1252 193.207 31.0655C193.127 30.9956 193.01 30.9281 192.855 30.863L193.018 30.4766L201.921 34.2249Z" fill="#787878"/>
<path d="M209.402 38.7067L208.854 39.0473L207.798 46.0358C207.773 46.2344 207.73 46.5213 207.669 46.8966C207.608 47.272 207.57 47.5015 207.554 47.5853C207.524 47.8334 207.526 48.0024 207.56 48.0922C207.594 48.1821 207.719 48.2981 207.933 48.4404L207.701 48.7897L206.262 47.8344L206.494 47.485C206.894 47.7509 207.127 47.6838 207.191 47.2836L207.384 45.9623C207.521 44.9666 207.476 44.1651 207.249 43.5577C206.999 42.8822 206.451 42.2631 205.603 41.7005L205.072 41.348L201.518 43.518C201.338 43.6269 201.261 43.7433 201.286 43.8673C201.311 43.9913 201.417 44.1151 201.603 44.2388L201.371 44.5881L199.303 43.2154L199.535 42.8661C199.74 43.0021 199.891 43.0685 199.987 43.0652C200.092 43.0681 200.253 43.0073 200.47 42.8829C200.591 42.802 201.79 42.0678 204.066 40.6802L203.158 40.0774L203.38 39.742L205.826 41.3651C206.85 42.0453 207.487 42.8239 207.737 43.701L208.389 39.3227L205.718 40.9514L204.712 40.2836L208.396 38.0389L209.402 38.7067Z" fill="#787878"/>
<path d="M220.22 48.7734L218.943 50.0813L218.643 49.7883C218.955 49.4368 219.133 49.0472 219.175 48.6198C219.225 48.1843 219.161 47.7779 218.983 47.4005C218.812 47.0309 218.567 46.6899 218.247 46.3775C217.943 46.0648 217.6 45.8317 217.219 45.678C216.265 45.2782 215.289 45.3253 214.291 45.8194C213.301 46.3056 212.579 47.0929 212.125 48.1814C211.902 48.7296 211.778 49.2885 211.754 49.858C211.737 50.4196 211.814 50.9484 211.986 51.4445C212.174 51.9403 212.436 52.376 212.772 52.7516C213.301 53.3146 214.012 53.658 214.907 53.7818C215.802 53.9056 216.634 53.7495 217.404 53.3134L217.63 54.3781C216.78 54.6886 215.879 54.723 214.927 54.4813C213.976 54.2395 213.104 53.732 212.312 52.9586C211.36 52.029 210.861 50.9083 210.814 49.5964C210.782 48.2843 211.216 47.1683 212.114 46.2484C213.02 45.3206 214.126 44.8608 215.43 44.869C216.751 44.8771 217.887 45.346 218.839 46.2756C219.559 46.9786 220.019 47.8112 220.22 48.7734Z" fill="#787878"/>
<path d="M224.155 51.7073C224.779 52.58 225.717 53.8891 226.966 55.6345C228.216 57.3799 229.153 58.689 229.778 59.5617L228.297 60.3744L228.053 60.0335C228.214 59.9319 228.379 59.8349 228.546 59.7425C228.714 59.65 228.82 59.5193 228.864 59.3502C228.914 59.1903 228.864 59.0058 228.715 58.7967L226.577 55.8104L226.443 56.6898L220.484 60.9562C220.439 60.9887 220.398 61.018 220.361 61.0441C220.341 61.0727 220.315 61.1046 220.285 61.1397C220.256 61.1748 220.237 61.2158 220.229 61.2626C220.221 61.3094 220.217 61.3607 220.216 61.4166C220.223 61.466 220.246 61.5257 220.282 61.5959C220.325 61.6751 220.379 61.7602 220.444 61.8511L220.103 62.0952L218.639 60.0497L218.98 59.8057C219.077 59.942 219.165 60.0446 219.241 60.1134C219.327 60.1757 219.403 60.2042 219.468 60.1989C219.548 60.1963 219.61 60.1864 219.653 60.1695C219.705 60.146 219.767 60.1083 219.84 60.0562L226.303 55.4286L224.536 52.9604C224.393 52.7604 224.234 52.654 224.06 52.6412C223.893 52.6375 223.735 52.6955 223.587 52.8153C223.445 52.9441 223.3 53.0684 223.152 53.1881L222.908 52.8472L224.155 51.7073Z" fill="#787878"/>
<path d="M231.777 64.1956C231.698 64.048 231.62 63.9378 231.542 63.8651C231.475 63.7871 231.401 63.7444 231.321 63.7368C231.241 63.7292 231.173 63.7338 231.119 63.7504C231.079 63.7717 231.015 63.8061 230.927 63.8538L224.474 67.3293C224.386 67.377 224.317 67.4141 224.268 67.4406C224.233 67.4717 224.198 67.5228 224.16 67.594C224.122 67.6652 224.112 67.753 224.13 67.8575C224.158 67.9567 224.212 68.0801 224.292 68.2278L223.922 68.4266L222.729 66.2118L223.099 66.013C223.178 66.1606 223.252 66.2735 223.319 66.3514C223.396 66.4241 223.472 66.4593 223.547 66.4571C223.628 66.4646 223.69 66.4627 223.735 66.4514C223.789 66.4347 223.861 66.4025 223.949 66.3548L230.402 62.8793C230.49 62.8316 230.552 62.7922 230.586 62.7612C230.63 62.7248 230.671 62.6711 230.708 62.5999C230.752 62.5385 230.759 62.4583 230.731 62.3591C230.713 62.2546 230.664 62.1285 230.585 61.9808L230.954 61.782L232.147 63.9968L231.777 64.1956Z" fill="#787878"/>
<path d="M231.633 72.8524L231.439 73.2852C231.407 73.3573 231.343 73.4112 231.249 73.447C231.166 73.4788 231.088 73.4785 231.016 73.4461L230.583 73.2517C230.497 73.2129 230.437 73.1516 230.406 73.068C230.374 72.9844 230.377 72.8993 230.416 72.8128L230.611 72.3801C230.643 72.308 230.701 72.256 230.785 72.2242C230.879 72.1885 230.962 72.1868 231.034 72.2192L231.466 72.4135C231.553 72.4524 231.612 72.5136 231.644 72.5972C231.676 72.6808 231.672 72.7659 231.633 72.8524ZM232.889 68.4636C234.084 69.0261 234.918 69.9292 235.391 71.1729C235.863 72.4165 235.838 73.6402 235.315 74.8438C234.806 76.054 233.946 76.8895 232.733 77.3504C231.531 77.8073 230.333 77.7544 229.138 77.1919C227.958 76.6358 227.132 75.736 226.659 74.4923C226.186 73.2487 226.204 72.0218 226.713 70.8117C227.236 69.608 228.099 68.7777 229.301 68.3208C230.513 67.86 231.709 67.9076 232.889 68.4636ZM227.656 74.9923C228.371 75.8331 229.305 76.3393 230.458 76.5107C231.626 76.6886 232.678 76.4804 233.612 75.886C234.546 75.2916 235.088 74.4817 235.236 73.4564C235.388 72.4416 235.108 71.5137 234.393 70.6729C233.679 69.8321 232.738 69.3227 231.569 69.1448C230.416 68.9734 229.372 69.1848 228.438 69.7792C227.507 70.3841 226.966 71.1939 226.813 72.2088C226.661 73.2237 226.942 74.1515 227.656 74.9923Z" fill="#787878"/>
<path d="M238.983 86.4864L239.396 86.414L239.712 88.2145L239.299 88.287C239.271 88.1328 239.233 88.009 239.182 87.9157C239.143 87.8205 239.086 87.7566 239.013 87.7241C238.95 87.6898 238.89 87.6719 238.833 87.6705C238.787 87.6672 238.72 87.6733 238.632 87.6888L230.389 89.1342L230.366 89.0021C230.267 88.4404 230.266 87.9184 230.364 87.436C230.461 86.9536 230.632 86.5376 230.877 86.1882C231.135 85.8478 231.437 85.5281 231.781 85.2293C232.137 84.9285 232.521 84.6569 232.933 84.4145C233.344 84.172 233.757 83.9351 234.17 83.7037C234.583 83.4723 234.972 83.2282 235.336 82.9714C235.712 82.7238 236.041 82.4618 236.322 82.1856C236.613 81.9074 236.828 81.5802 236.967 81.2041C237.118 80.837 237.178 80.4349 237.147 79.9977L229.994 81.2519C229.906 81.2674 229.836 81.2854 229.782 81.3061C229.74 81.3248 229.689 81.3565 229.629 81.4011C229.581 81.4549 229.55 81.5342 229.534 81.6391C229.53 81.742 229.542 81.8761 229.571 82.0413L229.158 82.1137L228.842 80.3132L229.255 80.2408C229.284 80.406 229.318 80.5362 229.358 80.6314C229.408 80.7247 229.464 80.7831 229.524 80.8065C229.598 80.8389 229.658 80.8568 229.704 80.8601C229.761 80.8615 229.834 80.8544 229.922 80.839L238.165 79.3935L238.191 79.5422C238.289 80.1038 238.283 80.6213 238.174 81.0946C238.076 81.577 237.9 81.994 237.644 82.3454C237.398 82.6948 237.097 83.0145 236.739 83.3042C236.394 83.6031 236.016 83.8737 235.605 84.1162C235.206 84.3677 234.8 84.6091 234.386 84.8406C233.973 85.072 233.578 85.3115 233.201 85.5592C232.836 85.8049 232.507 86.0669 232.215 86.345C231.935 86.6213 231.719 86.943 231.567 87.31C231.429 87.6862 231.376 88.0984 231.41 88.5466L238.562 87.2923C238.65 87.2769 238.715 87.2598 238.758 87.241C238.811 87.2204 238.861 87.1832 238.908 87.1295C238.967 87.0738 238.998 86.9945 239.003 86.8916C239.018 86.7866 239.012 86.6516 238.983 86.4864Z" fill="#787878"/>
<path d="M132.331 147.675C132.266 147.596 132.175 147.475 132.06 147.314C131.796 146.98 131.602 146.721 131.476 146.537C131.334 146.355 131.152 146.099 130.928 145.768C130.689 145.438 130.517 145.169 130.411 144.958C130.291 144.75 130.173 144.502 130.058 144.213C129.927 143.926 129.858 143.68 129.848 143.474C129.824 143.27 129.841 143.057 129.902 142.834C129.947 142.614 130.042 142.419 130.189 142.25C130.61 141.784 131.252 141.654 132.113 141.86C132.974 142.066 133.867 142.531 134.791 143.254C135.434 143.757 135.951 144.304 136.341 144.893C136.731 145.483 136.944 146.019 136.979 146.5L135.867 146.695C135.943 146.598 136.001 146.488 136.042 146.363C136.074 146.232 136.089 146.095 136.087 145.952C136.07 145.81 136.04 145.659 135.996 145.497C135.937 145.337 135.865 145.174 135.782 145.009C135.698 144.844 135.598 144.681 135.483 144.52C135.352 144.361 135.209 144.199 135.054 144.035C134.891 143.879 134.718 143.729 134.533 143.584C134.11 143.254 133.674 143.004 133.223 142.836C132.773 142.668 132.366 142.598 132.003 142.626C131.633 142.663 131.359 142.796 131.18 143.025C131.118 143.104 131.077 143.193 131.057 143.291C131.03 143.398 131.033 143.521 131.066 143.66C131.09 143.793 131.121 143.916 131.159 144.031C131.19 144.155 131.26 144.309 131.37 144.495C131.472 144.674 131.558 144.827 131.629 144.953C131.701 145.08 131.813 145.254 131.968 145.474C132.122 145.694 132.25 145.865 132.353 145.988C132.44 146.113 132.57 146.3 132.744 146.55C132.809 146.63 132.865 146.695 132.911 146.745C132.941 146.797 132.984 146.859 133.041 146.932C133.091 147.013 133.135 147.084 133.174 147.143C133.816 148.028 134.258 148.815 134.501 149.502C134.737 150.198 134.791 150.737 134.662 151.119C134.524 151.494 134.271 151.772 133.903 151.952C133.528 152.141 133.078 152.208 132.554 152.152C132.014 152.098 131.437 151.938 130.823 151.67C130.193 151.404 129.596 151.051 129.033 150.61C127.985 149.789 127.264 148.87 126.869 147.851C126.459 146.833 126.494 146.017 126.977 145.4L128.844 146.117L128.724 146.406C128.416 146.293 128.161 146.292 127.959 146.404C127.751 146.525 127.614 146.709 127.549 146.956C127.483 147.202 127.483 147.465 127.549 147.744C127.747 148.652 128.328 149.497 129.291 150.279C129.672 150.592 130.097 150.846 130.567 151.044C131.03 151.25 131.473 151.384 131.894 151.444C132.309 151.513 132.668 151.489 132.972 151.372C133.268 151.249 133.475 151.048 133.592 150.771C133.701 150.487 133.655 150.075 133.453 149.534C133.245 149.002 132.871 148.382 132.331 147.675Z" fill="#787878"/>
<path d="M119.048 141.243L119.666 141.058L122.515 134.59C122.591 134.405 122.708 134.139 122.865 133.793C123.022 133.447 123.119 133.235 123.156 133.159C123.251 132.927 123.293 132.764 123.284 132.668C123.274 132.572 123.184 132.428 123.015 132.234L123.33 131.958L124.469 133.257L124.154 133.533C123.837 133.172 123.595 133.176 123.428 133.545L122.896 134.77C122.502 135.695 122.336 136.48 122.396 137.126C122.46 137.843 122.827 138.584 123.498 139.349L123.918 139.828L127.917 138.665C128.118 138.607 128.224 138.515 128.232 138.388C128.24 138.262 128.171 138.115 128.023 137.947L128.338 137.671L129.975 139.537L129.659 139.813C129.497 139.628 129.369 139.525 129.276 139.503C129.175 139.473 129.003 139.489 128.761 139.552C128.624 139.599 127.275 139.993 124.714 140.736L125.433 141.556L125.13 141.821L123.195 139.614C122.385 138.69 121.974 137.771 121.962 136.859L120.187 140.914L123.191 140.042L123.987 140.95L119.844 142.151L119.048 141.243Z" fill="#787878"/>
<path d="M114.599 135.907C114.046 134.986 113.218 133.606 112.114 131.765C111.009 129.924 110.181 128.544 109.629 127.623L111.17 126.933L111.386 127.293C111.217 127.381 111.046 127.464 110.871 127.543C110.697 127.621 110.581 127.743 110.523 127.908C110.46 128.063 110.494 128.251 110.627 128.472L112.516 131.621L112.72 130.755L119.005 126.985C119.053 126.956 119.096 126.93 119.134 126.907C119.157 126.88 119.185 126.851 119.218 126.818C119.25 126.785 119.272 126.746 119.284 126.7C119.295 126.654 119.304 126.603 119.31 126.548C119.306 126.498 119.289 126.436 119.258 126.363C119.222 126.281 119.175 126.192 119.117 126.096L119.477 125.88L120.771 128.037L120.411 128.253C120.325 128.109 120.246 128 120.175 127.925C120.095 127.856 120.022 127.822 119.957 127.822C119.876 127.818 119.814 127.823 119.77 127.836C119.716 127.855 119.651 127.888 119.574 127.934L112.758 132.024L114.32 134.627C114.446 134.838 114.596 134.957 114.768 134.983C114.935 135.001 115.097 134.956 115.254 134.848C115.406 134.731 115.56 134.619 115.717 134.512L115.933 134.871L114.599 135.907Z" fill="#787878"/>
<path d="M108.088 123.041C108.156 123.194 108.225 123.31 108.296 123.389C108.358 123.472 108.428 123.52 108.507 123.534C108.587 123.548 108.654 123.549 108.71 123.537C108.751 123.519 108.817 123.489 108.909 123.449L115.615 120.491C115.707 120.45 115.778 120.419 115.83 120.396C115.866 120.368 115.906 120.32 115.949 120.252C115.993 120.184 116.009 120.097 115.999 119.991C115.979 119.89 115.935 119.763 115.868 119.609L116.251 119.44L117.266 121.742L116.883 121.911C116.815 121.758 116.751 121.639 116.69 121.556C116.618 121.478 116.545 121.437 116.47 121.433C116.391 121.419 116.329 121.416 116.283 121.424C116.227 121.436 116.154 121.463 116.062 121.504L109.356 124.461C109.264 124.502 109.2 124.536 109.163 124.565C109.117 124.597 109.072 124.648 109.028 124.716C108.981 124.774 108.967 124.853 108.987 124.954C108.997 125.06 109.036 125.189 109.103 125.343L108.72 125.512L107.704 123.21L108.088 123.041Z" fill="#787878"/>
<path d="M109.445 115.488C109.438 115.385 109.435 115.234 109.435 115.036C109.416 114.611 109.409 114.287 109.413 114.064C109.404 113.834 109.406 113.519 109.417 113.12C109.415 112.713 109.432 112.393 109.469 112.161C109.492 111.921 109.541 111.651 109.616 111.349C109.677 111.04 109.764 110.799 109.877 110.626C109.975 110.446 110.114 110.283 110.293 110.138C110.458 109.985 110.649 109.882 110.867 109.83C111.481 109.698 112.077 109.966 112.657 110.635C113.237 111.305 113.692 112.203 114.021 113.329C114.25 114.113 114.351 114.858 114.325 115.564C114.298 116.271 114.159 116.83 113.906 117.242L112.89 116.753C113.008 116.718 113.119 116.662 113.225 116.585C113.327 116.496 113.42 116.394 113.502 116.277C113.57 116.152 113.634 116.011 113.693 115.854C113.738 115.689 113.774 115.516 113.803 115.333C113.831 115.15 113.845 114.959 113.845 114.761C113.832 114.555 113.81 114.34 113.779 114.116C113.738 113.895 113.684 113.672 113.619 113.447C113.468 112.932 113.259 112.475 112.991 112.075C112.723 111.676 112.433 111.382 112.122 111.194C111.799 111.008 111.499 110.956 111.22 111.038C111.123 111.066 111.038 111.114 110.965 111.182C110.881 111.253 110.812 111.355 110.757 111.487C110.7 111.609 110.653 111.728 110.617 111.843C110.57 111.962 110.537 112.128 110.518 112.344C110.496 112.548 110.477 112.722 110.461 112.867C110.445 113.011 110.436 113.218 110.433 113.487C110.43 113.755 110.434 113.97 110.446 114.129C110.444 114.281 110.44 114.509 110.436 114.814C110.443 114.916 110.45 115.002 110.458 115.069C110.453 115.129 110.451 115.205 110.455 115.297C110.448 115.393 110.443 115.475 110.44 115.546C110.445 116.64 110.346 117.536 110.143 118.236C109.929 118.939 109.659 119.409 109.331 119.644C109.001 119.869 108.634 119.947 108.229 119.879C107.814 119.814 107.41 119.606 107.016 119.255C106.609 118.896 106.233 118.429 105.891 117.854C105.534 117.271 105.255 116.636 105.055 115.949C104.681 114.672 104.631 113.504 104.905 112.446C105.164 111.38 105.669 110.738 106.421 110.518L107.52 112.189L107.254 112.354C107.069 112.081 106.863 111.932 106.634 111.906C106.394 111.883 106.176 111.952 105.979 112.115C105.781 112.277 105.628 112.491 105.519 112.756C105.151 113.609 105.13 114.634 105.457 115.831C105.584 116.307 105.781 116.762 106.048 117.196C106.304 117.634 106.586 118 106.893 118.295C107.19 118.593 107.496 118.783 107.811 118.865C108.123 118.937 108.408 118.895 108.665 118.738C108.919 118.571 109.122 118.209 109.273 117.652C109.415 117.098 109.472 116.377 109.445 115.488Z" fill="#787878"/>
<path d="M102 98.4206L104.174 98.7614L104.214 99.1619C104.203 99.163 104.18 99.1652 104.147 99.1685C103.909 99.1472 103.734 99.1365 103.621 99.1364C103.509 99.1362 103.37 99.15 103.204 99.1777C103.027 99.2064 102.904 99.2636 102.834 99.3492C102.751 99.4248 102.689 99.5377 102.648 99.6878C102.596 99.8391 102.581 100.032 102.604 100.265L103.122 105.489C103.138 105.656 103.168 105.788 103.211 105.884C103.243 105.982 103.295 106.05 103.366 106.088C103.437 106.126 103.501 106.148 103.558 106.153C103.603 106.149 103.675 106.142 103.775 106.132L107.997 105.714C107.686 105.52 107.425 105.209 107.214 104.78C107.075 104.513 106.957 104.171 106.86 103.753C106.762 103.336 106.687 102.922 106.635 102.512C106.582 102.09 106.523 101.551 106.458 100.895L106.859 100.855C107.047 102.757 107.289 104.009 107.585 104.609C107.908 105.262 108.446 105.591 109.199 105.595L111.068 105.409C111.168 105.4 111.246 105.392 111.302 105.386C111.345 105.371 111.398 105.337 111.461 105.286C111.523 105.235 111.566 105.158 111.589 105.054C111.602 104.952 111.599 104.818 111.583 104.651L112 104.609L112.248 107.113L111.831 107.154C111.814 106.987 111.79 106.855 111.758 106.757C111.715 106.66 111.658 106.598 111.588 106.571C111.517 106.533 111.458 106.511 111.413 106.504C111.356 106.499 111.278 106.501 111.177 106.511L103.884 107.233C103.784 107.243 103.712 107.256 103.669 107.272C103.614 107.288 103.556 107.322 103.494 107.373C103.43 107.413 103.392 107.484 103.38 107.587C103.356 107.69 103.353 107.825 103.37 107.992L102.952 108.034L102 98.4206Z" fill="#787878"/>
<path d="M102.371 89.7081L102.932 90.0275L109.578 87.622C109.764 87.5487 110.036 87.4495 110.395 87.3243C110.754 87.1991 110.975 87.1233 111.055 87.0968C111.288 87.0053 111.436 86.923 111.498 86.85C111.561 86.777 111.604 86.6125 111.626 86.3563L112.044 86.3935L111.891 88.1141L111.473 88.0769C111.516 87.598 111.346 87.4258 110.964 87.5601L109.71 88.021C108.77 88.3751 108.087 88.797 107.661 89.2867C107.187 89.8281 106.904 90.6055 106.814 91.6189L106.758 92.2537L110.36 94.3423C110.541 94.4482 110.681 94.4606 110.778 94.3794C110.875 94.2983 110.933 94.1463 110.953 93.9236L111.371 93.9608L111.151 96.4331L110.733 96.3959C110.755 96.1509 110.741 95.9869 110.692 95.904C110.645 95.81 110.514 95.6974 110.302 95.5662C110.173 95.4986 108.956 94.7954 106.651 93.4565L106.554 94.5423L106.153 94.5066L106.413 91.5833C106.522 90.3582 106.903 89.4268 107.554 88.7888L103.395 90.3044L106.101 91.8754L105.994 93.0781L102.264 90.9109L102.371 89.7081Z" fill="#787878"/>
<path d="M106.058 75.3978L107.817 75.8966L107.702 76.2999C107.244 76.1933 106.818 76.2234 106.422 76.39C106.015 76.5536 105.688 76.8038 105.442 77.1406C105.198 77.4667 105.015 77.8449 104.893 78.2751C104.764 78.6916 104.722 79.104 104.769 79.5124C104.873 80.5412 105.38 81.3764 106.29 82.0181C107.19 82.6567 108.226 82.9158 109.399 82.7952C109.987 82.7295 110.537 82.5718 111.05 82.322C111.552 82.0691 111.979 81.7488 112.333 81.3611C112.68 80.9596 112.938 80.5214 113.107 80.0465C113.35 79.3135 113.312 78.5241 112.994 77.6786C112.676 76.833 112.142 76.176 111.392 75.7075L112.22 75.0009C112.898 75.6001 113.358 76.3755 113.599 77.3272C113.841 78.2789 113.811 79.2872 113.509 80.3521C113.146 81.6321 112.399 82.6057 111.268 83.2729C110.13 83.9264 108.942 84.0777 107.706 83.7269C106.458 83.3731 105.526 82.6209 104.911 81.4702C104.289 80.3058 104.159 79.0836 104.522 77.8036C104.796 76.8355 105.308 76.0336 106.058 75.3978Z" fill="#787878"/>
<path d="M106.76 70.5405C107.229 69.5751 107.932 68.1269 108.87 66.196C109.808 64.2651 110.512 62.8169 110.981 61.8515L112.401 62.7653L112.218 63.1424C112.052 63.0493 111.888 62.9512 111.727 62.848C111.566 62.7449 111.401 62.7143 111.231 62.7562C111.067 62.7881 110.928 62.9197 110.816 63.151L109.211 66.4546L110.047 66.1525L116.64 69.3549C116.69 69.3793 116.735 69.4013 116.775 69.4208C116.811 69.4254 116.851 69.4324 116.896 69.4419C116.941 69.4514 116.986 69.4484 117.031 69.4329C117.075 69.4174 117.123 69.3968 117.172 69.3713C117.212 69.3408 117.254 69.2928 117.298 69.2273C117.347 69.1517 117.396 69.0637 117.445 68.9631L117.822 69.1463L116.723 71.4091L116.346 71.2259C116.419 71.075 116.468 70.9495 116.492 70.8492C116.506 70.744 116.495 70.6641 116.459 70.6095C116.418 70.54 116.38 70.4904 116.345 70.4608C116.299 70.4263 116.236 70.3896 116.156 70.3505L109.006 66.877L107.679 69.6074C107.572 69.8287 107.554 70.0189 107.626 70.1781C107.703 70.3272 107.829 70.4383 108.005 70.5113C108.185 70.5742 108.364 70.6422 108.54 70.7152L108.356 71.0923L106.76 70.5405Z" fill="#787878"/>
<path d="M114.1 57.8839C114.008 58.0242 113.949 58.1456 113.922 58.2482C113.885 58.3446 113.883 58.4299 113.914 58.5041C113.946 58.5783 113.982 58.6353 114.023 58.6753C114.06 58.6998 114.121 58.7396 114.205 58.7947L120.338 62.8079C120.422 62.863 120.487 62.9059 120.534 62.9365C120.578 62.9516 120.64 62.9588 120.72 62.9582C120.801 62.9575 120.883 62.9242 120.966 62.8584C121.04 62.7864 121.123 62.6803 121.215 62.54L121.565 62.7696L120.188 64.8745L119.837 64.6449C119.929 64.5046 119.993 64.3862 120.029 64.2897C120.056 64.1872 120.051 64.1035 120.013 64.0387C119.982 63.9645 119.95 63.9105 119.919 63.8767C119.878 63.8367 119.816 63.7892 119.732 63.7341L113.599 59.7208C113.515 59.6657 113.451 59.6306 113.408 59.6155C113.355 59.5942 113.288 59.584 113.207 59.5846C113.133 59.576 113.059 59.6076 112.985 59.6796C112.902 59.7454 112.814 59.8485 112.722 59.9888L112.372 59.7592L113.749 57.6543L114.1 57.8839Z" fill="#787878"/>
<path d="M121.777 53.8812L122.25 53.8456C122.329 53.8397 122.407 53.8695 122.483 53.9351C122.551 53.9935 122.588 54.062 122.593 54.1409L122.629 54.6139C122.636 54.7085 122.611 54.7897 122.552 54.8575C122.494 54.9253 122.417 54.9628 122.323 54.9699L121.85 55.0055C121.771 55.0115 121.698 54.9853 121.63 54.9269C121.554 54.8613 121.512 54.7891 121.507 54.7103L121.471 54.2373C121.464 54.1427 121.489 54.0615 121.548 53.9936C121.606 53.9258 121.683 53.8883 121.777 53.8812ZM117.321 54.8708C117.245 53.5524 117.641 52.3889 118.509 51.3801C119.376 50.3714 120.464 49.8099 121.771 49.6956C123.078 49.5655 124.222 49.9233 125.206 50.769C126.181 51.6074 126.706 52.6857 126.781 54.004C126.855 55.3066 126.459 56.4623 125.591 57.471C124.724 58.4798 123.637 59.0492 122.331 59.1792C121.023 59.2935 119.882 58.9315 118.907 58.0931C117.924 57.2474 117.395 56.1733 117.321 54.8708ZM125.555 56.3559C125.953 55.327 125.952 54.2646 125.553 53.1689C125.152 52.0574 124.468 51.2329 123.5 50.6953C122.531 50.1577 121.561 50.0681 120.589 50.4267C119.625 50.7768 118.943 51.4663 118.545 52.4953C118.147 53.5242 118.148 54.5944 118.549 55.7059C118.949 56.8016 119.632 57.6183 120.6 58.1559C121.576 58.685 122.546 58.7745 123.51 58.4244C124.475 58.0743 125.157 57.3848 125.555 56.3559Z" fill="#787878"/>
<path d="M130.254 40.9184L129.994 40.59L131.426 39.4536L131.686 39.782C131.564 39.8793 131.473 39.9724 131.415 40.0612C131.35 40.1413 131.321 40.2215 131.328 40.3018C131.328 40.3734 131.341 40.4346 131.367 40.4853C131.386 40.5273 131.423 40.5833 131.479 40.6534L136.681 47.2086L136.576 47.292C136.129 47.6464 135.671 47.8961 135.2 48.0409C134.73 48.1858 134.283 48.2338 133.859 48.185C133.436 48.1205 133.012 48.0079 132.585 47.8474C132.15 47.678 131.729 47.4703 131.319 47.2243C130.91 46.9782 130.505 46.7287 130.104 46.4757C129.704 46.2227 129.304 45.9976 128.905 45.8005C128.507 45.5877 128.12 45.4238 127.744 45.3088C127.36 45.1851 126.97 45.1521 126.573 45.2099C126.179 45.252 125.796 45.3911 125.427 45.6271L129.941 51.3153C129.997 51.3854 130.046 51.4388 130.09 51.4757C130.127 51.5037 130.179 51.5336 130.247 51.5653C130.317 51.5813 130.401 51.5712 130.501 51.5349C130.594 51.4899 130.706 51.4152 130.837 51.3109L131.098 51.6394L129.666 52.7757L129.405 52.4473C129.537 52.3431 129.635 52.2509 129.7 52.1708C129.758 52.082 129.782 52.0053 129.774 51.9406C129.767 51.8603 129.754 51.7991 129.735 51.7571C129.709 51.7064 129.669 51.646 129.613 51.5759L124.411 45.0207L124.529 44.9269C124.976 44.5724 125.433 44.3307 125.902 44.2015C126.372 44.0567 126.822 44.0131 127.254 44.0706C127.678 44.1194 128.102 44.232 128.528 44.4082C128.955 44.5688 129.373 44.7721 129.783 45.0182C130.194 45.2485 130.6 45.4902 131 45.7432C131.401 45.9962 131.8 46.2291 132.197 46.442C132.587 46.646 132.974 46.8099 133.358 46.9337C133.735 47.0486 134.121 47.0851 134.515 47.043C134.912 46.9851 135.299 46.8347 135.677 46.5918L131.163 40.9036C131.108 40.8335 131.062 40.7845 131.025 40.7564C130.982 40.7195 130.925 40.6931 130.855 40.6771C130.778 40.6524 130.694 40.6625 130.601 40.7076C130.501 40.7438 130.386 40.8141 130.254 40.9184Z" fill="#787878"/>
</svg>
