<svg width="90" height="83" viewBox="0 0 90 83" fill="#6b6060" xmlns="http://www.w3.org/2000/svg">
    <path d="M45.6607 81.7429C45.6711 81.7656 45.6811 81.7886 45.6908 81.8118M23.1702 2.35346L23.1583 2.35463C23.0692 2.36333 22.9204 2.37845 22.747 2.39607C22.459 2.42535 22.1028 2.46153 21.8391 2.48672C13.4018 3.35014 6.06893 9.29649 3.42603 17.4333C2.85298 19.2111 2.61238 20.4239 2.33056 23.2984C2.20704 24.5991 2.45357 28.0132 2.90526 30.3748C4.19894 37.1066 7.50655 42.8424 14.3091 49.6599C16.6011 51.9546 17.8842 53.128 24.9437 59.3595C33.4868 66.8964 38.0773 71.5871 42.6457 77.4924L42.6466 77.4936C43.1547 78.1512 43.8385 79.077 44.4011 79.8565C44.4296 79.8961 44.4579 79.9353 44.486 79.9743C45.1397 79.0326 45.9484 77.8986 46.4305 77.2496L46.4313 77.2485C49.4386 73.2053 52.9824 69.2322 57.1012 65.2645C59.7592 62.7021 61.6054 61.0244 67.2828 55.9741C73.7171 50.2463 76.8714 47.0598 79.5672 43.6295C84.2945 37.6164 86.3888 32.0165 86.7016 24.6506C86.7279 24.0332 86.7 23.4669 86.4851 21.5996C85.7569 15.2899 82.2114 9.5323 76.8287 5.96687C74.1001 4.16275 70.8194 2.93675 67.7315 2.5573L67.7238 2.55635C65.5658 2.28371 64.5136 2.25851 63.7728 2.34206C63.4147 2.38746 62.7113 2.4648 62.2119 2.51885C56.3522 3.17682 50.9151 6.33996 47.2402 11.2845C47.2037 11.3353 47.168 11.3849 47.1333 11.4331C47.0299 11.5767 46.9353 11.7082 46.8536 11.8237C46.7983 11.9019 46.7581 11.9598 46.7316 11.9992L46.7288 12.0033L46.7043 12.0439C46.5941 12.2261 46.4019 12.5071 46.0972 12.7633C45.7765 13.033 45.2318 13.3525 44.4995 13.3525C43.7672 13.3525 43.2225 13.033 42.9017 12.7633C42.597 12.5071 42.4048 12.2261 42.2947 12.0439L42.2839 12.026L42.2734 12.0079C41.9189 11.3966 40.6397 9.81964 39.538 8.72322L39.5331 8.71835C36.0836 5.26471 31.5155 3.05228 26.7865 2.51879C26.289 2.46493 25.5892 2.388 25.2301 2.34255C24.7243 2.28769 23.793 2.28605 23.1822 2.35217L23.1702 2.35346Z" stroke="#6b6060" stroke-width="4.6"/>
    <defs><rect width="90" height="83" fill="#6b6060"/></defs>
</svg>