<svg width="16" height="16" viewBox="0 0 16 16" fill="none" xmlns="http://www.w3.org/2000/svg">
<path fill-rule="evenodd" clip-rule="evenodd" d="M14.231 4.89058C14.4759 5.01808 14.5711 5.32001 14.4436 5.56495C14.1952 6.0421 13.8269 6.46981 13.3761 6.83927C12.1199 7.86885 10.1593 8.50075 8.0001 8.50075C5.84094 8.50075 3.88032 7.86885 2.62409 6.83928C2.17327 6.46981 1.80497 6.04209 1.5566 5.56496C1.42909 5.32002 1.52429 5.01809 1.76923 4.89058C2.01417 4.76307 2.3161 4.85827 2.44361 5.10322C2.61838 5.43895 2.89124 5.76529 3.25796 6.06583L3.25796 6.06584C4.29389 6.91486 6.01193 7.50075 8.0001 7.50075C9.98828 7.50075 11.7063 6.91486 12.7422 6.06584L12.7422 6.06583C13.109 5.76529 13.3818 5.43894 13.5566 5.10322C13.6841 4.85828 13.986 4.76307 14.231 4.89058Z" fill="#595959"/>
<path fill-rule="evenodd" clip-rule="evenodd" d="M9.5299 7.51716C9.79663 7.44569 10.0708 7.60398 10.1423 7.87072L10.8324 10.4465C10.9039 10.7133 10.7456 10.9874 10.4789 11.0589C10.2121 11.1304 9.93798 10.9721 9.86651 10.7053L9.17634 8.12953C9.10487 7.8628 9.26316 7.58863 9.5299 7.51716Z" fill="#595959"/>
<path fill-rule="evenodd" clip-rule="evenodd" d="M12.0976 6.76364C12.2929 6.56837 12.6095 6.56837 12.8047 6.76363L14.6904 8.64923C14.8856 8.84449 14.8856 9.16107 14.6904 9.35634C14.4951 9.5516 14.1785 9.5516 13.9833 9.35634L12.0976 7.47074C11.9024 7.27548 11.9024 6.9589 12.0976 6.76364Z" fill="#595959"/>
<path fill-rule="evenodd" clip-rule="evenodd" d="M3.90615 6.76363C4.10141 6.9589 4.10141 7.27548 3.90615 7.47074L2.02054 9.35634C1.82528 9.5516 1.5087 9.5516 1.31344 9.35634C1.11818 9.16108 1.11818 8.8445 1.31344 8.64923L3.19905 6.76363C3.39431 6.56837 3.71089 6.56837 3.90615 6.76363Z" fill="#595959"/>
<path fill-rule="evenodd" clip-rule="evenodd" d="M6.46231 7.51716C6.72905 7.58863 6.88734 7.8628 6.81586 8.12954L6.12566 10.7053C6.05419 10.9721 5.78002 11.1304 5.51329 11.0589C5.24656 10.9874 5.08827 10.7132 5.15974 10.4465L5.84994 7.87071C5.92141 7.60398 6.19558 7.44569 6.46231 7.51716Z" fill="#595959"/>
</svg>
