<svg width="44" height="42" viewBox="0 0 44 42" fill="none" xmlns="http://www.w3.org/2000/svg">
<g filter="url(#filter0_d_662_21056)">
<path d="M22.4932 37.9705C22.4976 37.9802 22.5019 37.9901 22.506 38L22.4932 37.9705ZM12.9013 4.02294L12.8962 4.02344C12.8582 4.02716 12.7948 4.03363 12.7208 4.04116C12.598 4.05368 12.4461 4.06916 12.3336 4.07993C8.73525 4.44913 5.60789 6.99184 4.48074 10.4712C4.23634 11.2314 4.13373 11.75 4.01353 12.9792C3.96086 13.5354 4.066 14.9953 4.25864 16.0051C4.81037 18.8837 6.22102 21.3364 9.1222 24.2516C10.0997 25.2328 10.6469 25.7346 13.6577 28.3992C17.3012 31.6221 19.259 33.6278 21.2073 36.153L21.2077 36.1535C21.4244 36.4347 21.716 36.8306 21.956 37.1639C21.9681 37.1808 21.9802 37.1976 21.9922 37.2143C22.271 36.8116 22.6159 36.3267 22.8215 36.0492L22.8218 36.0487C24.1044 34.3198 25.6158 32.6209 27.3724 30.9242C28.506 29.8285 29.2933 29.1111 31.7147 26.9516C34.4588 24.5023 35.8041 23.1398 36.9538 21.6729C38.9699 19.1017 39.8631 16.7071 39.9965 13.5574C40.0077 13.2934 39.9958 13.0512 39.9042 12.2528C39.5936 9.55467 38.0815 7.09268 35.7859 5.56807C34.6221 4.79661 33.223 4.27236 31.906 4.11011L31.9028 4.1097C30.9824 3.99312 30.5337 3.98234 30.2177 4.01807C30.065 4.03748 29.765 4.07055 29.552 4.09367C27.0529 4.37502 24.7341 5.7276 23.1668 7.84193C23.1512 7.86365 23.136 7.88486 23.1212 7.90547C23.0771 7.96688 23.0368 8.02311 23.0019 8.0725C22.9783 8.10594 22.9612 8.1307 22.9499 8.14754L22.9487 8.1493L22.9383 8.16666C22.8913 8.24457 22.8093 8.36473 22.6793 8.47428C22.5426 8.5896 22.3103 8.72623 21.9979 8.72623C21.6856 8.72623 21.4533 8.5896 21.3165 8.47428C21.1866 8.36473 21.1046 8.24457 21.0576 8.16666L21.053 8.159L21.0485 8.15126C20.8974 7.88987 20.3518 7.21555 19.8819 6.74671L19.8799 6.74462C18.4087 5.26782 16.4605 4.32176 14.4436 4.09364C14.2314 4.07061 13.933 4.03771 13.7798 4.01828C13.5641 3.99482 13.1669 3.99412 12.9064 4.02239L12.9013 4.02294Z" fill="white"/>
</g>
<path d="M22.2466 27.9861C22.2488 27.9907 22.2509 27.9953 22.253 28L22.2466 27.9861ZM17.4507 12.0108L17.4481 12.011C17.4291 12.0128 17.3974 12.0158 17.3604 12.0194C17.299 12.0253 17.223 12.0325 17.1668 12.0376C15.3676 12.2114 13.8039 13.4079 13.2404 15.0453C13.1182 15.403 13.0669 15.6471 13.0068 16.2255C12.9804 16.4872 13.033 17.1742 13.1293 17.6495C13.4052 19.0041 14.1105 20.1583 15.5611 21.5302C16.0499 21.9919 16.3235 22.228 17.8288 23.482C19.6506 24.9986 20.6295 25.9425 21.6037 27.1308L21.6039 27.1311C21.7122 27.2634 21.858 27.4497 21.978 27.6065C21.9841 27.6145 21.9901 27.6224 21.9961 27.6302C22.1355 27.4407 22.3079 27.2126 22.4107 27.082L22.4109 27.0817C23.0522 26.2681 23.8079 25.4686 24.6862 24.6702C25.253 24.1546 25.6467 23.817 26.8573 22.8007C28.2294 21.6482 28.902 21.0069 29.4769 20.3167C30.485 19.1067 30.9315 17.9798 30.9982 16.4976C31.0039 16.3734 30.9979 16.2594 30.9521 15.8836C30.7968 14.614 30.0407 13.4554 28.8929 12.7379C28.3111 12.3749 27.6115 12.1282 26.953 12.0518L26.9514 12.0516C26.4912 11.9968 26.2668 11.9917 26.1089 12.0085C26.0325 12.0176 25.8825 12.0332 25.776 12.0441C24.5265 12.1765 23.3671 12.813 22.5834 13.808C22.5756 13.8182 22.568 13.8282 22.5606 13.8379C22.5386 13.8668 22.5184 13.8932 22.501 13.9165C22.4892 13.9322 22.4806 13.9439 22.475 13.9518L22.4744 13.9526L22.4691 13.9608C22.4456 13.9974 22.4046 14.054 22.3397 14.1055C22.2713 14.1598 22.1551 14.2241 21.999 14.2241C21.8428 14.2241 21.7267 14.1598 21.6583 14.1055C21.5933 14.054 21.5523 13.9974 21.5288 13.9608L21.5265 13.9572L21.5243 13.9535C21.4487 13.8305 21.1759 13.5132 20.941 13.2926L20.9399 13.2916C20.2043 12.5966 19.2302 12.1514 18.2218 12.0441C18.1157 12.0332 17.9665 12.0177 17.8899 12.0086C17.7821 11.9976 17.5835 11.9972 17.4532 12.0105L17.4507 12.0108Z" fill="#AF5954"/>
<defs>
<filter id="filter0_d_662_21056" x="0" y="0" width="44" height="42" filterUnits="userSpaceOnUse" color-interpolation-filters="sRGB">
<feFlood flood-opacity="0" result="BackgroundImageFix"/>
<feColorMatrix in="SourceAlpha" type="matrix" values="0 0 0 0 0 0 0 0 0 0 0 0 0 0 0 0 0 0 127 0" result="hardAlpha"/>
<feOffset/>
<feGaussianBlur stdDeviation="2"/>
<feComposite in2="hardAlpha" operator="out"/>
<feColorMatrix type="matrix" values="0 0 0 0 0 0 0 0 0 0 0 0 0 0 0 0 0 0 0.25 0"/>
<feBlend mode="normal" in2="BackgroundImageFix" result="effect1_dropShadow_662_21056"/>
<feBlend mode="normal" in="SourceGraphic" in2="effect1_dropShadow_662_21056" result="shape"/>
</filter>
</defs>
</svg>
