<svg width="16" height="16" viewBox="0 0 16 16" fill="none" xmlns="http://www.w3.org/2000/svg">
<path d="M7.99967 12C11.6816 12 14.6663 8 14.6663 8C14.6663 8 11.6816 4 7.99967 4C4.31777 4 1.33301 8 1.33301 8C1.33301 8 4.31777 12 7.99967 12Z" fill="#090909"/>
<path fill-rule="evenodd" clip-rule="evenodd" d="M2.96644 5.61505C4.20507 4.58836 5.98455 3.5 7.99957 3.5C10.0146 3.5 11.7941 4.58836 13.0327 5.61505C13.6591 6.13427 14.1648 6.65235 14.5141 7.0406C14.689 7.23505 14.8254 7.39778 14.919 7.51296C14.9657 7.57057 15.0018 7.61635 15.0267 7.64833C15.0391 7.66432 15.0487 7.67687 15.0554 7.68572L15.0634 7.69621L15.0657 7.69932L15.0665 7.70033C15.0666 7.70048 15.067 7.70098 14.6662 8C15.067 8.29902 15.0669 8.29915 15.0668 8.2993L15.0657 8.30068L15.0634 8.30379L15.0554 8.31428C15.0487 8.32313 15.0391 8.33568 15.0267 8.35167C15.0018 8.38365 14.9657 8.42943 14.919 8.48704C14.8254 8.60222 14.689 8.76495 14.5141 8.9594C14.1648 9.34765 13.6591 9.86573 13.0327 10.385C11.7941 11.4116 10.0146 12.5 7.99957 12.5C5.98455 12.5 4.20507 11.4116 2.96644 10.385C2.34004 9.86573 1.83436 9.34765 1.48508 8.9594C1.31016 8.76495 1.1737 8.60222 1.08018 8.48704C1.03341 8.42943 0.997317 8.38365 0.972475 8.35167C0.960052 8.33568 0.950436 8.32313 0.943697 8.31428L0.935753 8.30379L0.933414 8.30068L0.932656 8.29967C0.932547 8.29952 0.932173 8.29902 1.3329 8C0.932173 7.70098 0.932271 7.70085 0.93238 7.7007L0.933414 7.69932L0.935753 7.69621L0.943697 7.68572C0.950436 7.67687 0.960052 7.66432 0.972475 7.64833C0.997317 7.61635 1.03341 7.57057 1.08018 7.51296C1.1737 7.39778 1.31016 7.23505 1.48508 7.0406C1.83436 6.65235 2.34004 6.13427 2.96644 5.61505ZM1.3329 8L0.93238 7.7007C0.800022 7.87808 0.799815 8.12164 0.932173 8.29902L1.3329 8ZM1.97517 8C2.04543 8.08331 2.13021 8.18132 2.22852 8.2906C2.55396 8.65235 3.02458 9.13427 3.60461 9.61505C4.77884 10.5884 6.33269 11.5 7.99957 11.5C9.66645 11.5 11.2203 10.5884 12.3945 9.61505C12.9746 9.13427 13.4452 8.65235 13.7706 8.2906C13.8689 8.18132 13.9537 8.08331 14.024 8C13.9537 7.91669 13.8689 7.81869 13.7706 7.7094C13.4452 7.34765 12.9746 6.86573 12.3945 6.38495C11.2203 5.41164 9.66645 4.5 7.99957 4.5C6.33269 4.5 4.77884 5.41164 3.60461 6.38495C3.02458 6.86573 2.55396 7.34765 2.22852 7.7094C2.13021 7.81869 2.04543 7.91669 1.97517 8ZM14.6662 8L15.0668 8.2993C15.1991 8.12192 15.1993 7.87836 15.067 7.70098L14.6662 8Z" fill="#595959"/>
<path d="M7.99967 9.66732C8.92014 9.66732 9.66634 8.92112 9.66634 8.00065C9.66634 7.08018 8.92014 6.33398 7.99967 6.33398C7.07921 6.33398 6.33301 7.08018 6.33301 8.00065C6.33301 8.92112 7.07921 9.66732 7.99967 9.66732Z" fill="white"/>
<path fill-rule="evenodd" clip-rule="evenodd" d="M5.83301 8.00065C5.83301 6.80404 6.80307 5.83398 7.99967 5.83398C9.19628 5.83398 10.1663 6.80404 10.1663 8.00065C10.1663 9.19726 9.19628 10.1673 7.99967 10.1673C6.80307 10.1673 5.83301 9.19726 5.83301 8.00065ZM7.99967 6.83398C7.35535 6.83398 6.83301 7.35633 6.83301 8.00065C6.83301 8.64498 7.35535 9.16732 7.99967 9.16732C8.644 9.16732 9.16634 8.64498 9.16634 8.00065C9.16634 7.35633 8.644 6.83398 7.99967 6.83398Z" fill="white"/>
</svg>
