<svg width="327" height="254" viewBox="0 0 327 254" fill="none" xmlns="http://www.w3.org/2000/svg">
<g clip-path="url(#clip0_904_19903)">
<path d="M27.0924 133.111C34.481 128.551 42.6146 126.25 51.1414 125.059C57.0191 124.237 62.9175 124.011 68.8574 124.011C71.0512 124.011 73.2656 124.052 75.4594 124.032C76.1217 124.032 76.7633 123.826 77.7153 123.662C77.4877 120.95 77.3014 118.383 77.0737 115.815C75.2732 95.6429 76.101 75.6762 81.6476 56.0588C84.7934 44.9456 89.1396 34.346 95.5141 24.6503C99.4463 18.652 104.02 13.229 109.712 8.79195C113.975 5.46417 118.611 2.85536 123.868 1.39689C124.654 1.17093 125.482 1.12984 126.289 1.00659C126.91 2.19802 128.069 2.67048 129.187 3.18403C132.602 4.78629 135.437 7.06644 138.086 9.71634C140.797 12.4073 141.998 15.5708 141.977 19.2888C141.977 22.5961 141.128 25.7595 140.197 28.9024C137.507 37.9819 133.409 46.4657 129.228 54.929C123.723 66.0832 118.052 77.1758 113.127 88.597C109.877 96.1154 106.628 103.654 104.165 111.481C102.696 116.164 101.557 120.909 100.833 125.757C102.116 126.908 103.586 127.154 105.076 127.442C109.236 128.263 113.396 129.167 117.556 130.03C122.212 131.201 126.89 132.372 131.463 133.522C132.705 132.844 132.684 131.673 132.891 130.626C135.23 118.937 138.314 107.454 142.701 96.3619C150.193 77.3812 159.921 59.7152 173.104 44.0007C177.968 38.2079 183.307 32.867 189.433 28.3683C196.967 22.822 205.225 18.9396 214.6 17.7071C219.691 17.0498 224.762 17.1936 229.646 19.0423C229.646 20.1721 230.039 21.1376 230.66 22.1031C232.647 25.1022 233.992 28.4094 234.903 31.8605C235.234 33.1546 235.545 34.6131 235.276 35.8661C234.696 38.516 233.951 41.1865 232.895 43.6926C230.474 49.4032 227.059 54.5387 223.272 59.4276C220.085 63.536 216.835 67.6033 213.586 71.65C209.219 77.0731 204.811 82.4961 200.382 87.8781C196.222 92.9519 191.876 97.9025 187.861 103.079C181.217 111.624 175.05 120.519 169.234 129.64C166.73 133.563 164.619 137.733 162.508 141.862C161.328 144.183 161.825 145.272 164.081 146.566C166.812 148.127 169.524 149.75 172.318 151.25C173.125 151.681 174.118 151.804 175.029 152.051C175.339 152.585 175.629 153.119 175.94 153.653C175.505 154.475 175.236 155.481 174.594 156.098C173.021 157.597 171.386 159.117 169.544 160.288C164.784 163.328 161.452 167.765 158.182 172.079C153.567 178.18 149.324 184.63 146.758 191.943C145.309 196.072 143.819 200.18 142.536 204.35C141.294 208.397 140.632 212.588 140.28 216.819C140.156 218.422 139.597 219.079 138.024 219.305C135.582 219.654 133.202 220.578 130.677 220.229C130.656 219.141 130.718 218.052 130.594 216.984C130.056 212.629 126.558 209.239 122.212 208.767C117.845 208.294 113.685 210.842 112.278 215.032C111.802 216.429 111.719 217.949 111.45 219.408C108.615 219.099 105.779 218.894 102.965 218.483C100.005 218.052 97.087 217.394 94.1481 216.901C93.0512 216.717 92.4924 216.1 92.2441 215.073C94.4379 212.608 96.5489 210.102 97.6665 206.918C97.9355 206.158 98.1839 205.336 98.1839 204.556C98.1839 204.145 97.6872 203.488 97.2939 203.405C96.9007 203.323 96.197 203.673 95.9694 204.042C95.4727 204.843 95.2243 205.788 94.8311 206.672C93.8377 208.972 92.5131 211.068 90.5263 212.608C89.3673 213.512 87.9806 214.231 86.594 214.745C84.276 215.607 82.2478 214.806 80.6335 213.06C79.1848 211.499 78.3776 209.568 78.3155 207.473C78.2534 205.295 78.5018 203.118 78.6467 200.94C78.688 200.263 78.9157 199.605 78.8743 198.927C78.8743 198.64 78.419 198.208 78.0879 198.126C77.7567 198.044 77.1358 198.188 77.0117 198.414C76.5356 199.379 76.0596 200.386 75.8527 201.433C75.149 204.987 75.4594 208.5 76.515 211.971C74.9007 211.745 73.2036 211.766 71.7134 211.232C66.8291 209.486 62.0276 207.575 57.2261 205.645C56.3775 205.316 55.6739 204.617 54.9081 204.083C55.7567 203.2 56.7087 202.399 57.4331 201.413C59.8131 198.085 59.8131 194.038 57.5365 190.69C55.4255 187.568 51.4725 185.924 47.8507 186.643C43.9391 187.424 40.9796 190.382 40.2759 194.326C40.1103 195.25 40.1103 196.216 40.0275 197.181C36.7575 195.25 33.3427 193.504 30.2382 191.327C23.6775 186.725 17.0961 182.104 11.0115 176.865C10.432 176.352 9.58343 176.167 8.85906 175.818C8.40374 171.853 8.85906 167.93 9.54203 164.027C11.7151 151.948 16.972 141.574 26.6578 133.686C26.8648 133.522 26.9475 133.234 27.0924 133.009V133.111ZM61.117 128.818C58.1367 129.188 55.1565 129.66 52.1555 129.886C45.8432 130.379 40.1103 132.577 34.7086 135.617C31.5214 137.404 29.1827 140.054 28.2721 143.752C28.0444 144.717 27.941 145.601 28.3549 146.525C29.8036 149.935 34.0049 152.441 37.6889 151.907C40.4001 151.517 43.1113 151.044 45.7604 150.346C55.4462 147.799 65.1734 145.539 75.1697 144.594C77.6118 144.368 79.9919 143.505 81.8132 141.636C83.7793 139.602 83.8 136.727 81.8132 134.693C80.323 133.173 78.4397 132.372 76.4942 131.673C71.5479 129.866 66.4566 128.962 61.1377 128.839L61.117 128.818ZM213.131 34.0379C213.048 28.4505 207.501 24.9995 202.306 27.2591C197.94 29.1489 194.276 32.107 190.82 35.1677C183.908 41.2686 177.699 48.0269 173.063 56.0998C170.869 59.9206 169.048 63.9057 167.868 68.1579C167.64 68.959 167.537 69.9245 168.427 70.3353C168.923 70.5613 169.834 70.397 170.31 70.0683C171.987 68.8769 173.684 67.6649 175.112 66.2064C180.037 61.2148 185.273 56.5928 190.82 52.2996C194.401 49.5264 198.064 46.8765 202.224 44.9456C204.583 43.8569 206.839 42.4806 209.074 41.1454C211.723 39.5431 213.317 37.2835 213.151 34.0584L213.131 34.0379ZM87.4012 69.185C87.4012 70.2737 87.3805 71.383 87.4012 72.4717C87.4218 73.2934 87.4425 74.1561 88.3946 74.5259C89.0568 74.7724 89.8433 74.0945 90.4021 72.8209C91.0644 71.3214 91.6439 69.7807 92.3682 68.3017C94.8725 63.2689 97.3974 58.2362 99.9431 53.224C103.979 45.2537 108.801 37.797 114.575 30.9566C115.817 29.4981 117.059 27.978 117.969 26.3142C120.308 22.0209 117.866 19.0013 114.699 17.6044C112.112 16.4541 108.801 17.666 106.897 19.9462C103.11 24.4859 100.067 29.5392 97.3146 34.7363C93.8584 41.2892 91.2299 48.2323 89.4708 55.422C88.3739 59.9206 87.4012 64.4809 87.4219 69.1645L87.4012 69.185ZM92.5338 145.519C92.9477 145.519 93.3617 145.56 93.7756 145.519C96.5696 145.21 98.3701 142.971 98.1218 140.075C97.9355 137.733 95.4313 135.597 92.9477 135.843C91.6025 135.967 90.2365 136.357 88.9534 136.788C87.4425 137.302 86.594 138.678 86.6147 140.301C86.6561 143.588 88.9327 145.601 92.5338 145.539V145.519Z" fill="#D482AE"/>
<path d="M203.153 127.339C205.015 126.908 206.857 126.353 208.761 126.107C220.972 124.443 233.183 124.176 245.435 125.593C257.418 126.969 269.049 129.66 280.246 134.118C291.07 138.432 301.087 144.122 309.676 152.071C315.078 157.063 319.589 162.712 322.715 169.388C323.584 171.237 324.101 173.23 324.784 175.14C323.667 177.769 323.108 180.583 322.383 183.336C319.051 196.134 311.311 205.336 299.638 211.499C291.194 215.957 282.253 218.935 272.94 220.948C266.628 222.304 260.191 222.674 253.817 223.578C249.967 224.112 246.159 223.228 242.372 222.633C240.095 222.283 238.171 220.907 237.384 218.75C236.018 215.032 235.004 211.211 233.845 207.432C238.647 207.082 243.448 206.857 248.229 206.343C255.224 205.603 262.054 204.042 268.594 201.372C272.05 199.975 275.341 198.27 278.197 195.846C282.15 192.477 284.323 188.513 282.585 183.192C282.543 183.069 282.564 182.925 282.543 182.781C282.999 177.05 280.039 172.901 276.148 169.224C274.761 167.93 273.085 166.923 271.491 165.855C265.158 161.562 257.998 159.056 250.671 157.166C244.566 155.584 238.398 154.167 232.169 153.242C228.133 152.647 224.056 151.928 219.896 152.092C214.535 152.277 209.175 152.154 203.794 152.133C200.607 152.133 196.944 150.387 194.543 147.819C194.564 147.696 194.564 147.532 194.646 147.429C194.957 146.977 195.288 146.546 195.598 146.114C198.724 141.883 201.228 137.384 202.263 132.187C202.573 130.585 202.863 128.982 203.173 127.36L203.153 127.339Z" fill="#BE5A98"/>
<path d="M182.769 248.207C177.864 250.528 172.587 251.535 167.289 252.316C143.902 255.705 120.846 253.877 98.0598 247.858C79.4539 242.948 61.7379 235.861 45.4293 225.57C37.8545 220.784 30.6729 215.463 24.4434 208.993C21.877 206.322 19.6005 203.385 17.3239 200.488C16.4132 199.318 15.8337 197.9 15.1094 196.585C16.6409 196.442 17.6757 197.448 18.7933 198.208C22.0633 200.406 25.3126 202.666 28.5412 204.925C29.8037 205.809 31.1489 206.404 32.7425 206.343C33.5704 207.801 34.8329 208.705 36.3644 209.301C37.3578 209.671 38.3719 210.02 39.3653 210.39C39.6965 210.965 39.9034 211.704 40.4001 212.074C41.6005 212.978 42.8837 213.8 44.2289 214.477C53.0248 219.038 62.1518 222.879 71.61 225.919C75.1491 227.049 78.7088 228.138 82.2686 229.185C94.1689 232.657 106.318 234.896 118.611 236.396C118.942 236.437 119.335 236.067 119.687 235.903C122.812 237.998 126.124 237.998 129.539 236.704C130.16 236.991 130.76 237.484 131.381 237.505C136.327 237.566 141.294 237.587 146.241 237.525C148 237.505 148.538 236.868 148.579 234.875C148.641 231.055 148.724 227.213 148.579 223.393C148.455 219.818 148.972 216.326 149.635 212.834C149.842 211.766 150.007 210.677 150.318 209.63C151.766 204.658 153.153 199.646 155.43 194.963C158.162 189.293 161.266 183.788 165.385 179.002C168.489 175.386 171.862 171.874 175.588 168.895C178.982 166.184 182.997 164.232 186.764 161.952C187.571 162.383 188.378 162.774 189.144 163.226C189.827 163.616 190.448 164.109 191.089 164.54C192.103 165.608 193.097 166.738 194.152 167.765C197.671 171.155 200.982 174.729 203.776 178.755C204.376 179.618 205.245 180.398 204.976 181.631C203.9 181.302 202.803 180.953 201.727 180.624C200.071 178.961 197.96 178.509 195.704 178.324C190.779 177.913 186.495 179.638 182.521 182.288C176.892 186.027 172.814 191.183 169.565 196.976C165.716 203.857 163.149 211.17 162.425 219.099C162.177 221.708 161.783 224.255 162.528 226.823C162.384 227.193 162.094 227.604 162.156 227.953C162.591 231.466 163.273 234.958 164.826 238.183C168.013 244.756 173.001 248.639 180.72 248.207C181.403 248.166 182.086 248.207 182.769 248.207Z" fill="#C46DA3"/>
<path d="M175.027 152.112C174.116 151.845 173.123 151.743 172.316 151.311C169.542 149.812 166.831 148.189 164.079 146.628C161.823 145.334 161.326 144.266 162.506 141.924C164.617 137.774 166.728 133.604 169.232 129.701C175.048 120.581 181.215 111.686 187.859 103.141C191.894 97.9642 196.22 93.0136 200.38 87.9398C204.809 82.5578 209.217 77.1347 213.584 71.7117C216.854 67.6649 220.083 63.5977 223.27 59.4893C227.057 54.6003 230.472 49.4443 232.894 43.7542C233.949 41.2481 234.694 38.5777 235.274 35.9278C235.543 34.6747 235.253 33.2163 234.901 31.9221C234.011 28.4711 232.645 25.1638 230.658 22.1647C230.037 21.2198 229.624 20.2543 229.644 19.104C245.104 22.4112 254.024 37.0987 249.906 52.5667C248.561 57.6405 246.305 62.3241 243.635 66.8227C239.847 73.2112 235.419 79.1478 230.617 84.7968C221.2 95.8894 211.68 106.9 202.242 117.972C199.842 120.786 197.503 123.683 195.185 126.558C194.792 127.051 194.233 127.627 194.895 128.325L194.937 128.263C194.502 128.263 194.067 128.263 193.612 128.284C192.971 129.167 192.37 130.092 191.708 130.954C187.403 136.603 183.078 142.252 178.732 147.86C177.573 149.36 176.227 150.716 174.986 152.133L175.027 152.112Z" fill="#C46DA3"/>
<path d="M117.574 130.05C113.414 129.188 109.254 128.284 105.094 127.462C103.604 127.175 102.135 126.928 100.852 125.778C101.576 120.93 102.714 116.185 104.184 111.501C106.626 103.654 109.875 96.1359 113.145 88.6175C118.091 77.1963 123.762 66.1242 129.247 54.9494C133.407 46.5067 137.505 38.0024 140.216 28.9229C141.147 25.78 141.996 22.6166 141.996 19.3093C141.996 15.5913 140.795 12.4278 138.105 9.73683C135.456 7.08693 132.6 4.80679 129.205 3.20452C128.088 2.69098 126.929 2.19797 126.308 1.02709C137.235 -2.4034 155.593 2.79369 159.049 20.0488C159.836 23.9723 159.608 27.9575 158.966 31.9015C157.994 37.8792 156.131 43.5898 153.999 49.2388C149.591 60.9066 144.417 72.2457 139.098 83.5232C132.434 97.6354 125.708 111.727 119.044 125.86C118.423 127.195 118.071 128.674 117.595 130.071L117.574 130.05Z" fill="#C46DA3"/>
<path d="M233.826 207.411C234.985 211.191 236.019 215.012 237.365 218.73C238.151 220.887 240.076 222.263 242.352 222.612C246.14 223.208 249.948 224.091 253.797 223.557C260.172 222.653 266.608 222.283 272.921 220.928C282.234 218.935 291.175 215.936 299.619 211.478C311.292 205.316 319.032 196.113 322.364 183.316C323.088 180.563 323.626 177.769 324.765 175.119C326.772 179.454 327.145 184.076 326.938 188.739C326.648 195.702 324.537 202.152 320.936 208.13C315.927 216.409 308.953 222.715 300.84 227.83C290.844 234.136 279.937 238.183 268.43 240.771C256.281 243.503 243.946 244.571 231.508 243.914C221.47 243.38 211.494 242.189 201.809 239.251C204.064 237.3 206.569 235.554 208.535 233.335C212.446 228.857 214.889 223.537 216.441 217.805C217.455 214.046 217.269 210.246 217.351 206.446C221.325 206.692 225.299 206.959 229.272 207.206C230.783 207.288 232.294 207.35 233.784 207.411H233.826Z" fill="#B73E89"/>
<path d="M32.7635 206.343C31.1906 206.404 29.8453 205.809 28.5622 204.925C25.3129 202.666 22.0842 200.406 18.8142 198.208C17.6967 197.469 16.6618 196.462 15.1303 196.585C12.1087 192.395 10.6392 187.526 9.2526 182.658C9.12842 180.419 8.98355 178.18 8.85938 175.941C9.58374 176.29 10.4323 176.475 11.0118 176.989C17.0965 182.227 23.6572 186.849 30.2386 191.45C33.343 193.627 36.7579 195.373 40.0279 197.304C40.3383 198.208 40.566 199.133 40.9799 199.995C42.9046 204.104 47.0232 206.281 51.4522 205.418C52.6525 205.192 53.7701 204.617 54.9291 204.206C55.6949 204.741 56.3986 205.418 57.2471 205.768C62.0486 207.699 66.8708 209.609 71.7344 211.355C73.2246 211.889 74.9424 211.869 76.536 212.095C77.7777 213.697 78.9988 215.32 80.1371 216.799C80.8615 216.984 81.4203 217.066 81.917 217.251C85.0007 218.38 87.8154 217.887 90.4438 215.997C90.9819 215.628 91.6442 215.422 92.2444 215.155C92.472 216.182 93.0515 216.799 94.1484 216.983C97.0873 217.497 100.005 218.134 102.965 218.565C105.78 218.976 108.615 219.181 111.45 219.49C111.802 220.517 112.216 221.523 112.506 222.571C113.023 224.42 114.327 225.837 115.838 226.556C118.156 227.645 120.784 228.24 123.434 227.542C126.083 226.844 127.987 225.098 129.498 222.9C130.036 222.119 130.284 221.174 130.677 220.291C133.202 220.64 135.582 219.736 138.024 219.366C139.577 219.14 140.135 218.483 140.28 216.881C140.632 212.649 141.294 208.459 142.536 204.412C143.819 200.242 145.309 196.113 146.758 192.005C149.325 184.671 153.567 178.242 158.182 172.141C161.452 167.827 164.785 163.39 169.545 160.35C171.387 159.179 173.022 157.659 174.595 156.159C175.236 155.543 175.505 154.536 175.94 153.715C176.706 154.249 177.513 154.742 178.258 155.317C181.114 157.515 183.929 159.733 186.764 161.931C183.018 164.211 178.982 166.142 175.588 168.874C171.863 171.853 168.51 175.366 165.385 178.981C161.266 183.767 158.162 189.252 155.43 194.942C153.153 199.646 151.787 204.638 150.318 209.609C150.007 210.657 149.842 211.745 149.635 212.813C148.973 216.306 148.435 219.798 148.579 223.372C148.724 227.193 148.642 231.034 148.579 234.855C148.538 236.847 148 237.484 146.241 237.505C141.294 237.566 136.327 237.546 131.381 237.484C130.76 237.484 130.16 236.971 129.539 236.683C129.518 235.738 129.58 234.773 129.435 233.848C129.373 233.355 129.084 232.76 128.69 232.452C126.683 230.952 124.51 229.863 121.902 230.254C119.998 230.541 118.777 232.061 118.984 233.992C119.046 234.649 119.439 235.245 119.688 235.882C119.315 236.046 118.942 236.416 118.611 236.375C106.318 234.875 94.1691 232.636 82.2688 229.165C78.7091 228.117 75.1493 227.049 71.6103 225.899C62.1521 222.858 53.0458 219.017 44.2292 214.457C42.8839 213.758 41.6008 212.957 40.4004 212.053C39.9037 211.684 39.7174 210.944 39.3863 210.369C40.3383 209.835 41.3731 209.404 42.2424 208.746C43.3186 207.966 43.422 207.041 42.8632 205.85C41.2903 202.501 37.4615 201.639 34.4192 202.522C33.8604 202.686 33.2809 203.344 33.0532 203.919C32.7635 204.658 32.8463 205.521 32.7428 206.343H32.7635Z" fill="#CB75A7"/>
<path d="M186.743 161.952C183.907 159.733 181.072 157.515 178.236 155.337C177.491 154.762 176.705 154.269 175.918 153.735C175.608 153.201 175.318 152.667 175.008 152.133C176.27 150.715 177.595 149.339 178.754 147.86C183.121 142.252 187.426 136.603 191.73 130.954C192.393 130.091 192.993 129.167 193.634 128.284C194.09 128.941 194.524 129.229 194.959 128.263L194.918 128.325C196.221 128.202 197.525 128.119 198.808 127.955C200.257 127.791 201.685 127.565 203.134 127.359C202.844 128.962 202.554 130.584 202.223 132.187C201.189 137.384 198.684 141.903 195.559 146.114C195.228 146.545 194.918 146.977 194.607 147.429C194.545 147.531 194.545 147.675 194.504 147.819C196.884 150.387 200.547 152.133 203.755 152.133C209.115 152.133 214.496 152.277 219.856 152.092C224.016 151.948 228.094 152.646 232.129 153.242C238.359 154.166 244.526 155.584 250.632 157.166C257.958 159.076 265.098 161.562 271.452 165.855C273.046 166.923 274.722 167.93 276.109 169.224C280 172.88 282.959 177.05 282.504 182.781C279.275 177.625 274.681 174.051 269.32 171.298C264.291 168.71 259.014 166.759 253.55 165.259C240.698 161.746 227.576 160.596 214.289 161.069C206.425 161.356 198.664 162.363 191.089 164.561C190.447 164.109 189.826 163.636 189.143 163.246C188.378 162.794 187.55 162.383 186.763 161.972L186.743 161.952Z" fill="#B73E89"/>
<path d="M217.373 206.446C217.27 210.246 217.477 214.067 216.462 217.805C214.91 223.536 212.468 228.857 208.557 233.335C206.611 235.553 204.086 237.3 201.83 239.251C199.285 239.908 196.718 240.586 194.173 241.244C188.564 241.572 183.39 240.422 178.94 236.807C178.837 236.724 178.692 236.724 178.568 236.683C174.366 231.835 173 226.145 173.414 219.921C174.035 210.513 177.305 202.111 183.162 194.696C183.659 194.079 184.383 193.648 185.004 193.135C185.004 194.511 185.253 195.928 184.921 197.222C183.907 201.146 184.404 205.11 184.176 209.054C184.011 211.971 184.59 214.786 185.191 217.559C186.391 223.043 190.965 226.453 196.159 226.022C198.457 225.837 200.444 224.831 202.079 223.372C204.21 221.462 206.218 219.408 207.915 217.045C210.44 213.533 212.054 209.671 213.482 205.686C214.041 204.165 214.248 202.461 215.676 201.372C216.235 203.056 216.794 204.761 217.352 206.446H217.373Z" fill="#1E1E20"/>
<path d="M8.85871 175.941C8.98289 178.18 9.12776 180.419 9.25194 182.658C7.55485 182.206 6.45795 180.974 5.36105 179.741C1.65643 175.51 -0.0406537 170.539 0.000738697 165.013C0.0421311 158.932 1.22181 153.057 3.93302 147.552C5.58871 144.204 7.69973 141.205 10.4937 138.678C14.0535 135.474 18.2134 133.419 23.0149 132.926C24.3602 132.783 25.7261 133.029 27.0714 133.091C26.9265 133.317 26.823 133.604 26.6367 133.769C16.9509 141.677 11.6941 152.03 9.52099 164.109C8.81732 168.012 8.362 171.935 8.83802 175.9L8.85871 175.941Z" fill="#1E1E20"/>
<path d="M178.568 236.683C178.693 236.724 178.858 236.745 178.941 236.806C183.391 240.422 188.565 241.572 194.173 241.243C191.172 244.859 187.282 247.036 182.77 248.187C182.087 248.187 181.404 248.145 180.721 248.187C173.022 248.618 168.013 244.736 164.826 238.162C163.274 234.958 162.591 231.465 162.156 227.932C162.115 227.583 162.405 227.172 162.529 226.802C163.15 227.665 163.75 228.549 164.392 229.411C165.695 231.116 166.854 232.986 168.365 234.485C170.456 236.539 173.022 237.669 176.126 236.889C176.892 236.683 177.741 236.745 178.548 236.683H178.568Z" fill="#DBC0BA"/>
<path d="M61.1156 128.818C66.4345 128.962 71.5258 129.866 76.4722 131.653C78.4176 132.351 80.301 133.173 81.7911 134.672C83.778 136.706 83.778 139.582 81.7911 141.615C79.9698 143.485 77.5898 144.348 75.1476 144.573C65.1307 145.518 55.4242 147.778 45.7383 150.325C43.0892 151.024 40.378 151.496 37.6668 151.886C33.9829 152.42 29.7816 149.914 28.3328 146.504C27.9396 145.56 28.0224 144.697 28.25 143.731C29.1607 140.034 31.4993 137.384 34.6866 135.597C40.109 132.557 45.8418 130.359 52.1335 129.866C55.1344 129.64 58.094 129.167 61.0949 128.797L61.1156 128.818Z" fill="#DC9DC0"/>
<path d="M213.129 34.0379C213.295 37.263 211.701 39.5431 209.052 41.1248C206.817 42.4806 204.581 43.8364 202.201 44.9251C198.041 46.856 194.378 49.5059 190.798 52.2791C185.251 56.5723 180.015 61.1942 175.089 66.1859C173.661 67.6444 171.964 68.8358 170.288 70.0478C169.812 70.3764 168.922 70.5408 168.404 70.3148C167.515 69.9245 167.618 68.9385 167.846 68.1374C169.025 63.8852 170.847 59.9001 173.04 56.0793C177.676 48.0269 183.885 41.2481 190.798 35.1472C194.275 32.0864 197.938 29.1284 202.284 27.2385C207.479 24.9789 213.025 28.43 213.108 34.0174L213.129 34.0379Z" fill="#DC9DC0"/>
<path d="M87.3985 69.1643C87.3571 64.4808 88.3298 59.9205 89.4474 55.4218C91.2066 48.2322 93.835 41.3096 97.2912 34.7362C100.044 29.5391 103.065 24.4858 106.874 19.9461C108.778 17.6659 112.089 16.454 114.676 17.6043C117.863 19.0011 120.285 22.0208 117.946 26.314C117.035 27.9779 115.794 29.4775 114.552 30.9565C108.778 37.7969 103.955 45.2742 99.9197 53.2239C97.374 58.2361 94.8491 63.2483 92.3449 68.3016C91.6205 69.7806 91.041 71.3212 90.3787 72.8208C89.8199 74.0944 89.0335 74.7723 88.3712 74.5258C87.4192 74.156 87.3985 73.2727 87.3778 72.4716C87.3364 71.3829 87.3778 70.2736 87.3778 69.1849L87.3985 69.1643Z" fill="#DC9DC0"/>
<path d="M54.9286 204.207C53.7696 204.617 52.6313 205.193 51.4516 205.418C47.0227 206.261 42.9041 204.104 40.9794 199.995C40.5861 199.133 40.3378 198.208 40.0273 197.304C40.1101 196.36 40.1101 195.394 40.2757 194.449C40.9794 190.505 43.9596 187.547 47.8505 186.766C51.4723 186.048 55.4046 187.691 57.5363 190.813C59.8129 194.162 59.8129 198.208 57.4328 201.536C56.7292 202.522 55.7565 203.323 54.9079 204.207H54.9286ZM50.0857 191.594C50.1892 190.402 49.0302 189.17 47.8298 189.211C45.5118 189.293 43.2146 191.881 43.4422 194.162C43.5457 195.106 44.3735 195.846 45.4084 195.867C47.6022 195.908 49.8994 193.812 50.0857 191.594Z" fill="#2B2A2D"/>
<path d="M130.676 220.311C130.283 221.174 130.014 222.14 129.496 222.92C128.006 225.118 126.102 226.864 123.432 227.563C120.783 228.261 118.155 227.645 115.837 226.577C114.326 225.878 113.022 224.44 112.505 222.592C112.215 221.544 111.801 220.537 111.449 219.51C111.718 218.052 111.801 216.532 112.277 215.135C113.684 210.965 117.844 208.418 122.211 208.87C126.557 209.321 130.055 212.711 130.593 217.086C130.717 218.154 130.655 219.243 130.676 220.332V220.311ZM117.141 218.031C119.417 217.949 121.508 215.833 121.508 213.574C121.508 212.156 120.1 211.068 118.734 211.499C116.768 212.095 115.547 213.45 114.947 215.381C114.533 216.717 115.692 218.093 117.141 218.052V218.031Z" fill="#2B2A2D"/>
<path d="M92.2646 215.155C91.6644 215.422 90.9814 215.628 90.464 215.997C87.8356 217.887 85.0209 218.38 81.9372 217.251C81.4198 217.066 80.8817 216.983 80.1573 216.799C79.019 215.32 77.7773 213.717 76.5562 212.095C75.5007 208.643 75.1902 205.11 75.8939 201.557C76.1009 200.509 76.5769 199.502 77.0529 198.537C77.1771 198.311 77.798 198.147 78.1291 198.249C78.4602 198.331 78.8949 198.742 78.9156 199.05C78.957 199.708 78.7293 200.386 78.6879 201.064C78.543 203.241 78.2947 205.418 78.3568 207.596C78.4189 209.691 79.226 211.622 80.6747 213.183C82.289 214.909 84.3173 215.73 86.6352 214.868C88.0219 214.354 89.4085 213.635 90.5675 212.731C92.5544 211.191 93.8789 209.095 94.8723 206.795C95.2449 205.911 95.5139 204.966 96.0106 204.165C96.2383 203.796 96.9419 203.426 97.3352 203.529C97.7077 203.611 98.2251 204.268 98.2251 204.679C98.2251 205.48 97.9768 206.281 97.7077 207.041C96.5901 210.205 94.4791 212.711 92.2853 215.196L92.2646 215.155Z" fill="#2B2A2D"/>
<path d="M92.5324 145.518C88.9313 145.58 86.6547 143.567 86.6133 140.28C86.6133 138.678 87.4204 137.281 88.952 136.768C90.2351 136.336 91.6011 135.946 92.9463 135.823C95.4506 135.597 97.9341 137.713 98.1204 140.054C98.3687 142.93 96.5682 145.19 93.7742 145.498C93.3602 145.539 92.9463 145.498 92.5324 145.498V145.518Z" fill="#DC9DC0"/>
<path d="M178.568 236.683C177.761 236.745 176.912 236.683 176.146 236.889C173.042 237.669 170.496 236.539 168.385 234.485C166.874 232.986 165.715 231.137 164.412 229.411C163.77 228.569 163.17 227.665 162.549 226.803C161.804 224.235 162.197 221.688 162.445 219.079C163.17 211.15 165.715 203.837 169.586 196.955C172.835 191.162 176.891 186.006 182.541 182.268C186.515 179.638 190.799 177.913 195.725 178.303C197.981 178.488 200.092 178.94 201.748 180.604C201.975 181.754 202.017 182.987 202.451 184.055C203.01 185.452 203.362 186.828 203.238 188.307C202.555 188.204 201.872 188.143 201.23 187.978C194.773 186.417 189.413 188.204 185.004 193.093C184.383 193.607 183.638 194.038 183.162 194.655C177.305 202.07 174.035 210.472 173.414 219.88C173.001 226.125 174.366 231.815 178.568 236.642V236.683Z" fill="#EBDECE"/>
<path d="M32.7617 206.343C32.8445 205.521 32.7617 204.658 33.0722 203.919C33.2998 203.344 33.8793 202.686 34.4381 202.522C37.5011 201.659 41.3092 202.522 42.8822 205.85C43.441 207.041 43.3375 207.966 42.2613 208.746C41.392 209.383 40.3572 209.835 39.4052 210.369C38.4118 209.999 37.3977 209.671 36.4043 209.28C34.8727 208.705 33.5896 207.781 32.7824 206.322L32.7617 206.343Z" fill="#B94C89"/>
<path d="M119.687 235.882C119.439 235.245 119.067 234.65 118.984 233.992C118.777 232.061 119.998 230.541 121.902 230.254C124.53 229.863 126.703 230.952 128.69 232.452C129.083 232.739 129.353 233.356 129.435 233.849C129.559 234.773 129.518 235.738 129.539 236.683C126.124 237.957 122.813 237.977 119.687 235.882Z" fill="#B94C89"/>
<path d="M203.236 188.348C203.34 186.849 202.988 185.472 202.45 184.096C202.015 183.028 201.974 181.795 201.746 180.645C202.822 180.974 203.919 181.302 204.995 181.652H204.913L206.01 182.617C207.024 184.527 208.121 186.397 209.01 188.369C209.611 189.725 209.921 191.204 210.356 192.641C207.996 191.224 205.616 189.786 203.257 188.369L203.236 188.348Z" fill="#D3B7B6"/>
<path d="M194.981 128.243C194.567 129.208 194.112 128.921 193.656 128.263C194.091 128.263 194.525 128.263 194.981 128.243Z" fill="#34387A"/>
<path d="M203.235 188.348C205.595 189.766 207.975 191.204 210.334 192.621C212.59 195.25 214.929 197.839 215.694 201.372C214.266 202.461 214.039 204.166 213.501 205.686C212.052 209.671 210.458 213.553 207.933 217.045C206.215 219.408 204.229 221.441 202.097 223.372C200.462 224.851 198.475 225.837 196.178 226.022C190.962 226.453 186.388 223.044 185.209 217.559C184.609 214.765 184.008 211.971 184.195 209.054C184.422 205.11 183.926 201.146 184.94 197.222C185.271 195.928 185.002 194.511 185.023 193.135C189.41 188.266 194.791 186.458 201.248 188.02C201.911 188.184 202.594 188.246 203.256 188.348H203.235Z" fill="#2B2A2D"/>
<path d="M50.0849 191.594C49.8986 193.812 47.6014 195.887 45.4076 195.867C44.3934 195.867 43.5449 195.127 43.4414 194.162C43.2138 191.881 45.511 189.273 47.829 189.211C49.0294 189.17 50.1884 190.402 50.0849 191.594Z" fill="#EBEAEB"/>
<path d="M117.142 218.031C115.693 218.072 114.534 216.696 114.948 215.361C115.548 213.45 116.79 212.095 118.736 211.478C120.102 211.047 121.509 212.136 121.509 213.553C121.509 215.813 119.419 217.928 117.142 218.011V218.031Z" fill="#F0EFF0"/>
</g>
<defs>
<clipPath id="clip0_904_19903">
<rect width="327" height="254" fill="white"/>
</clipPath>
</defs>
</svg>
