<svg width="302" height="56" viewBox="0 0 302 56" fill="none" xmlns="http://www.w3.org/2000/svg">
<path d="M239.443 12.56C242.411 9.67189 245.972 8.22781 250.127 8.22781C254.282 8.22781 257.826 9.67189 260.759 12.56C263.727 15.4129 265.211 18.8822 265.211 22.9679C265.211 27.0183 263.727 30.4876 260.759 33.3758C257.826 36.2287 254.282 37.6552 250.127 37.6552C245.972 37.6552 242.411 36.2287 239.443 33.3758C236.51 30.4876 235.043 27.0183 235.043 22.9679C235.043 18.8822 236.51 15.4129 239.443 12.56ZM252.694 35.2777C255.941 34.1154 258.455 31.9317 260.236 28.7266C262.051 25.4862 262.61 22.1578 261.912 18.7414C261.213 15.3249 259.45 12.8242 256.622 11.2392C253.828 9.65428 250.808 9.44295 247.561 10.6052C244.314 11.7676 241.782 13.9689 239.967 17.2092C238.186 20.4144 237.645 23.7252 238.343 27.1416C239.076 30.5581 240.84 33.0588 243.633 34.6437C246.426 36.2287 249.446 36.44 252.694 35.2777Z" fill="black"/>
<path d="M197.075 10.0909V15.8496H195.765C195.695 14.3703 195.242 13.1023 194.404 12.0457C193.566 10.9538 192.536 10.1789 191.313 9.72106C190.126 9.26319 188.834 9.03425 187.438 9.03425C186.076 8.99903 184.802 9.22797 183.614 9.72106C180.612 10.9186 178.534 13.1727 177.382 16.4835C176.23 19.7591 176.334 23.1227 177.696 26.5744C178.394 28.3003 179.337 29.8324 180.524 31.1708C181.711 32.474 183.038 33.4954 184.505 34.235C186.006 34.9395 187.542 35.3445 189.114 35.4502C191.523 35.5558 193.862 34.7634 196.132 33.0727C198.402 31.3821 199.92 29.1984 200.689 26.5216L203.517 28.4235C202.295 30.9947 200.357 33.0551 197.703 34.6049C195.05 36.1546 191.994 36.9295 188.538 36.9295C184.383 36.9295 180.821 35.503 177.853 32.6501C174.92 29.762 173.454 26.2927 173.454 22.2422C173.454 18.1565 174.92 14.6873 177.853 11.8343C180.821 8.9462 184.383 7.50213 188.538 7.50213C191.68 7.50213 194.526 8.36505 197.075 10.0909Z" fill="black"/>
<path d="M106.401 21.68C106.715 21.7504 107.169 21.8737 107.762 22.0498C109.054 22.3668 110.032 22.631 110.695 22.8423C111.394 23.0184 112.337 23.3002 113.524 23.6876C114.746 24.0398 115.688 24.3744 116.352 24.6914C117.05 24.9732 117.818 25.3606 118.656 25.8537C119.529 26.3116 120.175 26.7871 120.594 27.2802C121.048 27.7381 121.415 28.3016 121.694 28.9708C122.008 29.6048 122.148 30.274 122.113 30.9784C121.973 32.9508 120.647 34.5181 118.133 35.6804C115.619 36.8427 112.529 37.4239 108.862 37.4239C106.313 37.4239 103.991 37.0717 101.896 36.3673C99.8015 35.6628 98.2477 34.7471 97.2351 33.62L99.592 30.9784C99.592 31.3658 99.6618 31.7533 99.8015 32.1407C99.9761 32.5281 100.203 32.898 100.482 33.2502C100.797 33.5672 101.163 33.8842 101.582 34.2012C102.036 34.4829 102.525 34.7471 103.049 34.9936C103.572 35.2402 104.131 35.4515 104.725 35.6276C105.353 35.7685 106.017 35.8918 106.715 35.9974C107.413 36.0679 108.129 36.1031 108.862 36.1031C110.538 36.1031 112.092 35.8742 113.524 35.4163C114.955 34.9584 116.09 34.342 116.928 33.5672C117.766 32.7571 118.185 31.8942 118.185 30.9784C118.185 30.6614 118.115 30.362 117.976 30.0803C117.836 29.7633 117.591 29.4639 117.242 29.1821C116.928 28.9004 116.614 28.6538 116.3 28.4425C115.985 28.1959 115.514 27.9494 114.885 27.7028C114.292 27.4563 113.786 27.245 113.367 27.0689C112.948 26.8927 112.337 26.6814 111.533 26.4349C110.73 26.1883 110.084 26.0122 109.596 25.9066C109.142 25.7657 108.461 25.5543 107.553 25.2726C107.239 25.2021 106.977 25.1493 106.767 25.1141C106.593 25.0436 106.366 24.9732 106.086 24.9027C105.807 24.7971 105.563 24.709 105.353 24.6386C102.071 23.6876 99.4698 22.5958 97.5494 21.363C95.629 20.095 94.4593 18.8623 94.0403 17.6648C93.6562 16.4673 93.7435 15.2874 94.3021 14.125C94.8608 12.9275 95.8385 11.8885 97.2351 11.008C98.6667 10.0922 100.395 9.37018 102.42 8.84187C104.48 8.27832 106.628 7.99655 108.862 7.99655C113.017 7.99655 116.561 8.87708 119.494 10.6381C122.462 12.364 123.946 14.4597 123.946 16.9251L117.976 18.7743L117.714 17.8233C118.691 17.5063 119.32 17.0132 119.599 16.344C119.878 15.6396 119.861 14.9175 119.547 14.1779C119.233 13.4382 118.726 12.7866 118.028 12.2231C115.793 10.3564 112.738 9.38779 108.862 9.31735C107.326 9.28213 105.79 9.47585 104.253 9.8985C102.717 10.2859 101.373 10.8143 100.22 11.4835C99.0682 12.1174 98.2303 12.8747 97.7065 13.7552C97.2177 14.6358 97.0955 15.5339 97.3399 16.4496C97.6192 17.3654 98.527 18.2988 100.063 19.2497C101.6 20.1655 103.712 20.9756 106.401 21.68Z" fill="black"/>
<path d="M54.5507 7.99655L53.7127 9.84567L63.0354 30.0274C63.3147 30.591 63.6988 31.4187 64.1877 32.5105C64.6765 33.6024 64.9733 34.2716 65.078 34.5181C65.4272 35.2226 65.724 35.6628 65.9684 35.8389C66.2128 36.015 66.7366 36.1031 67.5396 36.1031V37.4239H62.145V36.1031C63.6464 36.1031 64.1353 35.5219 63.6115 34.3596L61.8308 30.5558C60.469 27.7028 58.9676 25.6776 57.3266 24.4801C55.5109 23.1417 53.0144 22.4725 49.837 22.4725H47.8467L42.3474 34.3596C42.0681 34.9584 42.0681 35.3987 42.3474 35.6804C42.6267 35.9622 43.1156 36.1031 43.8139 36.1031V37.4239H36.0624V36.1031C36.8306 36.1031 37.3369 36.015 37.5813 35.8389C37.8606 35.6628 38.1749 35.2226 38.524 34.5181C38.6986 34.0955 40.5492 30.0803 44.0758 22.4725H27.5777V21.2045H49.837C53.6778 21.2045 56.6806 22.1379 58.8454 24.0046L52.9795 11.3778L48.8419 20.3064H45.0709L50.7797 7.99655H54.5507Z" fill="black"/>
<path d="M155.817 7.4149L154.089 14.1246H152.832C152.832 14.0893 152.832 14.0189 152.832 13.9132C152.972 13.1736 153.059 12.6276 153.094 12.2754C153.129 11.9232 153.129 11.483 153.094 10.9546C153.059 10.3911 152.919 9.98605 152.675 9.73951C152.465 9.45774 152.134 9.2288 151.68 9.05269C151.226 8.84137 150.632 8.7357 149.899 8.7357H133.506C132.982 8.7357 132.563 8.78853 132.249 8.8942C131.934 8.96464 131.707 9.10552 131.568 9.31685C131.428 9.52818 131.341 9.72189 131.306 9.898C131.306 10.0389 131.306 10.2678 131.306 10.5848V23.9513C132.004 23.0355 133.052 22.3135 134.448 21.7852C135.321 21.433 136.421 21.1688 137.748 20.9927C139.075 20.8166 140.384 20.7109 141.676 20.6757C143.003 20.6405 144.696 20.6229 146.756 20.6229V21.845C140.786 21.845 136.823 22.2607 134.867 23.0003C132.737 23.8104 131.55 25.3953 131.306 27.7552V33.6723C131.306 33.9893 131.306 34.2359 131.306 34.412C131.341 34.5529 131.428 34.729 131.568 34.9403C131.707 35.1516 131.934 35.3101 132.249 35.4158C132.563 35.4862 132.982 35.5215 133.506 35.5215V36.8422H125.649V35.5215C126.173 35.5215 126.592 35.4862 126.906 35.4158C127.221 35.3101 127.43 35.1516 127.535 34.9403C127.675 34.729 127.762 34.5529 127.797 34.412C127.832 34.2359 127.849 33.9893 127.849 33.6723V10.5848C127.849 10.2678 127.832 10.0389 127.797 9.898C127.762 9.72189 127.675 9.52818 127.535 9.31685C127.43 9.10552 127.221 8.96464 126.906 8.8942C126.592 8.78853 126.173 8.7357 125.649 8.7357V7.4149H155.817Z" fill="black"/>
<path d="M164.014 7.27784L163.176 9.12696L172.499 29.3087C172.778 29.8723 173.162 30.7 173.651 31.7918C174.14 32.8837 174.436 33.5529 174.541 33.7994C174.89 34.5039 175.187 34.9441 175.432 35.1202C175.676 35.2963 176.2 35.3844 177.003 35.3844V36.7052H171.608V35.3844C173.11 35.3844 173.598 34.8032 173.075 33.6409L171.294 29.837C169.932 26.9841 168.431 24.9589 166.79 23.7614C164.974 22.423 162.478 21.7538 159.3 21.7538H157.31L151.811 33.6409C151.531 34.2397 151.531 34.68 151.811 34.9617C152.09 35.2435 152.579 35.3844 153.277 35.3844V36.7052H145.526V35.3844C146.294 35.3844 146.8 35.2963 147.044 35.1202C147.324 34.9441 147.638 34.5039 147.987 33.7994C148.162 33.3768 150.012 29.3616 153.539 21.7538L146.756 21.845V20.6229L159.3 20.4858C163.141 20.4858 166.144 21.4192 168.309 23.2859L162.443 10.6591L158.305 19.5877H154.534L160.243 7.27784H164.014Z" fill="black"/>
<path d="M37.1623 29.0057C37.1623 30.5202 36.3418 31.9291 34.7007 33.2322C33.0596 34.5002 30.825 35.504 27.9967 36.2437C25.2034 36.9833 22.1482 37.3531 18.8312 37.3531C14.711 37.3531 11.0273 36.7896 7.78009 35.6625C4.56777 34.5354 2.38549 33.0914 1.23325 31.3303L6.31359 26.4698L7.20396 27.4207C5.38831 29.4283 5.52797 31.2951 7.62296 33.0209C9.78778 34.782 13.1049 35.7682 17.5742 35.9795C17.9932 36.0147 18.4122 36.0323 18.8312 36.0323C22.7069 36.0323 26.0065 35.3455 28.73 33.9719C31.4535 32.5983 32.8152 30.9429 32.8152 29.0057C32.8152 27.9138 32.3438 26.9629 31.4011 26.1528C30.4933 25.3075 29.2712 24.6383 27.7349 24.1452C26.2334 23.6168 24.5225 23.1061 22.6021 22.613C20.6817 22.1199 18.7089 21.6797 16.6838 21.2922C14.6586 20.9048 12.6684 20.4117 10.7131 19.8129C8.79266 19.2142 7.0643 18.5626 5.52797 17.8582C4.02656 17.1537 2.80449 16.238 1.86174 15.1109C0.953914 13.9486 0.5 12.6278 0.5 11.1485C0.5 9.21136 1.32054 7.41507 2.96161 5.75967C4.60269 4.10428 6.81988 2.80109 9.6132 1.85012C12.4414 0.863921 15.5141 0.370824 18.8312 0.370824C21.5197 0.370824 24.0512 0.705425 26.4255 1.37463C28.8347 2.00861 30.8773 2.90675 32.5533 4.06905C34.2642 5.19613 35.5212 6.48171 36.3243 7.92578L30.0393 12.7335L29.2537 11.6768C31.5931 10.1271 32.082 8.34843 30.7202 6.34083C29.4283 4.50932 27.1064 3.1533 23.7544 2.27277C22.1133 1.85012 20.4722 1.6564 18.8312 1.69162C14.7808 1.69162 11.2717 2.71304 8.30383 4.75587C5.6851 6.55215 4.53285 8.47171 4.8471 10.5145C5.30102 13.1914 8.28638 15.2166 13.8032 16.5902C14.6761 16.8015 15.9156 17.1009 17.5218 17.4883C19.1279 17.8406 20.4548 18.1399 21.5023 18.3865C22.5847 18.633 23.8591 18.9676 25.3256 19.3903C26.827 19.8129 28.084 20.218 29.0966 20.6054C30.1092 20.9929 31.1567 21.486 32.2391 22.0847C33.3564 22.6835 34.2293 23.2999 34.8578 23.9338C35.5212 24.5678 36.0624 25.3251 36.4814 26.2056C36.9353 27.0509 37.1623 27.9843 37.1623 29.0057Z" fill="black"/>
<path d="M92.4962 9.31735C91.9724 9.31735 91.5535 9.37018 91.2392 9.47585C90.9249 9.54629 90.698 9.68717 90.5583 9.8985C90.4187 10.1098 90.3314 10.3035 90.2964 10.4797C90.2964 10.6205 90.2964 10.8495 90.2964 11.1665V34.254C90.2964 34.571 90.2964 34.8175 90.2964 34.9936C90.3314 35.1345 90.4187 35.3106 90.5583 35.522C90.698 35.7333 90.9249 35.8918 91.2392 35.9974C91.5535 36.0679 91.9724 36.1031 92.4962 36.1031V37.4239H84.64V36.1031C85.1637 36.1031 85.5827 36.0679 85.897 35.9974C86.2112 35.8918 86.4207 35.7333 86.5255 35.522C86.6651 35.3106 86.7524 35.1345 86.7873 34.9936C86.8223 34.8175 86.8397 34.571 86.8397 34.254V11.1665C86.8397 10.8495 86.8223 10.6205 86.7873 10.4797C86.7524 10.3035 86.6651 10.1098 86.5255 9.8985C86.4207 9.68717 86.2112 9.54629 85.897 9.47585C85.5827 9.37018 85.1637 9.31735 84.64 9.31735V7.99655H92.4962V9.31735Z" fill="black"/>
<path d="M59.7358 7.99655C63.0878 7.99655 68.1158 7.99655 74.8197 7.99655C81.5237 7.99655 86.5517 7.99655 89.9036 7.99655L89.2751 13.2797H87.9658C88.0007 12.681 88.0531 12.0822 88.1229 11.4835C88.1927 10.8847 88.0531 10.374 87.7039 9.95133C87.3896 9.52868 86.831 9.31735 86.0279 9.31735H74.5578L76.5481 11.2721V34.3596C76.5481 34.5358 76.5481 34.6943 76.5481 34.8351C76.583 34.9408 76.6179 35.0641 76.6528 35.205C76.6877 35.3458 76.7576 35.4691 76.8623 35.5748C76.9671 35.6804 77.0893 35.7861 77.229 35.8918C77.3686 35.9622 77.5607 36.015 77.8051 36.0503C78.0844 36.0855 78.3987 36.1031 78.7478 36.1031V37.4239H70.8916V36.1031C71.4154 36.1031 71.8344 36.0679 72.1486 35.9974C72.4629 35.8918 72.6724 35.7509 72.7771 35.5748C72.9168 35.3635 73.0041 35.1873 73.039 35.0465C73.0739 34.8704 73.0914 34.6414 73.0914 34.3596V9.31735H63.6115C62.8434 9.31735 62.2847 9.52868 61.9355 9.95133C61.6213 10.374 61.4816 10.8847 61.5165 11.4835C61.5864 12.0822 61.6387 12.681 61.6737 13.2797H60.3643L59.7358 7.99655Z" fill="black"/>
<path d="M90.5321 2.87535C90.5321 3.96954 89.6528 4.85655 88.5681 4.85655C87.4834 4.85655 86.604 3.96954 86.604 2.87535C86.604 1.78117 87.4834 0.894159 88.5681 0.894159C89.6528 0.894159 90.5321 1.78117 90.5321 2.87535Z" fill="black"/>
<path d="M233.391 9.46688C232.867 9.46688 232.448 9.51971 232.134 9.62537C231.819 9.69581 231.592 9.8367 231.453 10.048C231.313 10.2594 231.226 10.4531 231.191 10.6292C231.191 10.7701 231.191 10.999 231.191 11.316V34.4035C231.191 34.7205 231.191 34.967 231.191 35.1432C231.226 35.284 231.313 35.4601 231.453 35.6715C231.592 35.8828 231.819 36.0413 232.134 36.147C232.448 36.2174 232.867 36.2526 233.391 36.2526V37.5734H225.534V36.2526C226.058 36.2526 226.477 36.2174 226.791 36.147C227.106 36.0413 227.315 35.8828 227.42 35.6715C227.56 35.4601 227.647 35.284 227.682 35.1432C227.717 34.967 227.734 34.7205 227.734 34.4035V11.316C227.734 10.999 227.717 10.7701 227.682 10.6292C227.647 10.4531 227.56 10.2594 227.42 10.048C227.315 9.8367 227.106 9.69581 226.791 9.62537C226.477 9.51971 226.058 9.46688 225.534 9.46688V8.14608H233.391V9.46688Z" fill="black"/>
<path d="M200.63 8.14608C203.982 8.14608 209.01 8.14608 215.714 8.14608C222.418 8.14608 227.446 8.14608 230.798 8.14608L230.17 13.4293H228.86C228.895 12.8305 228.948 12.2317 229.017 11.633C229.087 11.0342 228.947 10.5235 228.598 10.1009C228.284 9.6782 227.725 9.46688 226.922 9.46688H215.452L217.443 11.4217V34.5092C217.443 34.6853 217.443 34.8438 217.443 34.9847C217.477 35.0903 217.512 35.2136 217.547 35.3545C217.582 35.4954 217.652 35.6186 217.757 35.7243C217.862 35.83 217.984 35.9356 218.123 36.0413C218.263 36.1117 218.455 36.1646 218.7 36.1998C218.979 36.235 219.293 36.2526 219.642 36.2526V37.5734H211.786V36.2526C212.31 36.2526 212.729 36.2174 213.043 36.147C213.357 36.0413 213.567 35.9004 213.672 35.7243C213.811 35.513 213.898 35.3369 213.933 35.196C213.968 35.0199 213.986 34.7909 213.986 34.5092V9.46688H204.506C203.738 9.46688 203.179 9.6782 202.83 10.1009C202.516 10.5235 202.376 11.0342 202.411 11.633C202.481 12.2317 202.533 12.8305 202.568 13.4293H201.259L200.63 8.14608Z" fill="black"/>
<path d="M231.427 3.02488C231.427 4.11906 230.547 5.00607 229.463 5.00607C228.378 5.00607 227.498 4.11906 227.498 3.02488C227.498 1.93069 228.378 1.04368 229.463 1.04368C230.547 1.04368 231.427 1.93069 231.427 3.02488Z" fill="black"/>
<path d="M299.248 3.11708V28.7934C299.248 30.9066 298.619 32.8086 297.362 34.4992C296.14 36.1546 294.517 36.9823 292.492 36.9823C289.768 36.9823 287.603 36.0665 285.997 34.235C284.391 32.3683 282.924 29.2865 281.598 24.9895C280.969 22.841 280.044 19.8119 278.822 15.9024C277.635 11.9576 276.849 9.36885 276.465 8.13611C275.662 5.49452 274.37 3.71584 272.589 2.80009C271.088 2.06044 269.918 2.27177 269.08 3.43407C268.591 4.1385 268.347 5.1423 268.347 6.44549V33.8124C268.347 34.1294 268.347 34.3759 268.347 34.552C268.382 34.6929 268.452 34.869 268.556 35.0804C268.696 35.2917 268.923 35.4502 269.237 35.5558C269.586 35.6263 270.023 35.6615 270.547 35.6615V36.9823H264.838V35.6615C265.361 35.6615 265.78 35.6263 266.095 35.5558C266.409 35.4502 266.636 35.2917 266.776 35.0804C266.915 34.869 266.985 34.6929 266.985 34.552C267.02 34.3759 267.037 34.1294 267.037 33.8124V6.44549C267.037 4.79009 267.509 3.3108 268.452 2.00761C269.394 0.704427 270.651 0.0352229 272.223 0C273.584 0 274.771 0.228938 275.784 0.686815C276.797 1.10947 277.635 1.77867 278.298 2.69443C278.996 3.57496 279.538 4.45549 279.922 5.33602C280.306 6.21655 280.707 7.36124 281.126 8.77009C281.44 9.75628 281.807 10.9714 282.226 12.4155C282.68 13.8243 283.082 15.0923 283.431 16.2194C283.78 17.3112 284.146 18.5088 284.531 19.8119C284.915 21.0799 285.299 22.3479 285.683 23.6158C286.067 24.8486 286.434 26.0461 286.783 27.2084C287.446 29.4978 288.319 31.435 289.401 33.0199C290.484 34.6049 291.654 35.4326 292.911 35.503C293.888 35.6087 294.779 35.2917 295.582 34.552C296.42 33.7772 297.031 32.879 297.415 31.8576C297.799 30.801 297.991 29.7796 297.991 28.7934V3.11708C297.991 2.83531 297.973 2.62399 297.939 2.4831C297.904 2.30699 297.816 2.11328 297.677 1.90195C297.572 1.69062 297.362 1.54974 297.048 1.47929C296.734 1.37363 296.315 1.3208 295.791 1.3208V0H301.5V1.3208C300.976 1.3208 300.54 1.37363 300.191 1.47929C299.876 1.54974 299.649 1.69062 299.51 1.90195C299.405 2.11328 299.335 2.30699 299.3 2.4831C299.265 2.62399 299.248 2.83531 299.248 3.11708Z" fill="black"/>
<path d="M81.0683 46.34L82.2926 46.1298V53.3296L81.0683 53.5266V46.5502H76.9915V53.3296L75.7803 53.5266V46.34H81.0683Z" fill="black"/>
<path d="M87.5552 46.1298C89.587 46.1298 91.2281 47.3648 91.2281 49.8348C91.2281 52.3048 89.587 53.5266 87.5552 53.5266C85.5233 53.5266 83.8952 52.3048 83.8952 49.8348C83.8952 47.3648 85.5233 46.1298 87.5552 46.1298ZM87.9589 53.3296C89.587 53.3296 90.0038 51.4771 90.0038 49.8348C90.0038 47.3648 88.3757 46.34 87.1514 46.34C85.5233 46.34 85.1065 48.1925 85.1065 49.8348C85.1065 52.3048 86.7346 53.3296 87.9589 53.3296Z" fill="black"/>
<path d="M96.809 49.1779C97.7337 49.4669 98.4501 50.1107 98.4501 51.2668C98.4501 52.9223 96.7699 53.5266 94.9855 53.5266C93.097 53.5266 92.2894 52.7121 92.2894 52.7121L92.4848 52.3048C93.1621 52.9354 94.0608 53.3033 94.9855 53.3296C96.5615 53.3296 97.2258 52.3048 97.2258 51.2668C97.2258 49.9136 96.4052 49.2173 95.3893 49.2173H94.3213V49.0071H95.5977C96.4052 49.0071 96.809 48.5998 96.809 47.772C96.809 46.7473 95.9494 46.34 94.7771 46.34C94.165 46.3268 93.5658 46.5502 93.097 46.9575L92.8886 46.5502C92.8886 46.5502 93.5007 46.1298 94.9855 46.1298C96.5615 46.1298 98.0333 46.5502 98.0333 47.772C98.0333 48.7574 97.3821 49.0859 96.809 49.1779Z" fill="black"/>
<path d="M105.342 46.34L106.567 46.1298V53.3296L105.342 53.5266V48.81C103.923 48.81 102.698 49.6246 101.266 49.6246V53.3296L100.054 53.5266V46.34L101.266 46.1298V49.4275C102.698 49.4275 103.923 48.5998 105.342 48.5998V46.34Z" fill="black"/>
<path d="M114.278 46.34L115.502 46.1298V53.3296L114.278 53.5266V52.7383C113.575 53.277 112.715 53.5529 111.829 53.5266C109.798 53.5266 108.169 52.3048 108.169 49.8348C108.169 47.3648 109.798 46.1298 111.829 46.1298C112.715 46.1035 113.575 46.3925 114.278 46.9312V46.34ZM112.233 53.3296C113.054 53.2902 113.809 52.8697 114.278 52.1997V47.6669C113.536 46.8655 112.507 46.3925 111.426 46.34C109.798 46.34 109.381 48.1925 109.381 49.8348C109.381 52.3048 111.009 53.3296 112.233 53.3296Z" fill="black"/>
<path d="M122.653 46.34L123.877 46.1298V53.3296L122.653 53.5266V48.3501L118.576 53.2639V53.3296L117.365 53.5266V46.34L118.576 46.1298V52.9486L122.653 48.0217V46.34ZM122.249 44.0802L122.458 44.8948C121.377 45.0656 120.283 45.1312 119.189 45.105V44.6977C121.429 44.6977 122.249 44.0802 122.249 44.0802Z" fill="black"/>
<path d="M136.252 46.1298L136.434 46.2086L132.788 55.2346C132.397 56.1937 131.042 56.128 130.534 55.7076L130.73 55.3003C131.146 55.6419 132.215 56.0755 132.592 55.1558L133.66 52.5413L132.879 53.0931L129.74 46.8655L130.743 46.1429L133.79 52.1865L136.252 46.1298Z" fill="black"/>
<path d="M141.267 42.8452C143.091 42.8452 144.732 44.4875 144.732 49.8348C144.732 52.3048 143.091 53.5266 141.059 53.5266C139.027 53.5266 137.399 52.3048 137.399 49.8348C137.399 47.3648 139.027 46.1298 141.059 46.1298C142.427 46.1298 143.599 46.6947 144.237 47.7983C143.938 44.4349 142.817 43.2525 141.267 43.2525C139.027 43.2525 138.207 44.2904 138.207 44.2904L137.998 43.4627C137.998 43.4627 139.027 42.8452 141.267 42.8452ZM141.463 53.3296C143.091 53.3296 143.508 51.4771 143.508 49.8348C143.508 47.3648 141.88 46.34 140.655 46.34C139.027 46.34 138.61 48.1925 138.61 49.8348C138.61 52.3048 140.239 53.3296 141.463 53.3296Z" fill="black"/>
<path d="M149.955 46.1298C151.986 46.1298 153.627 47.3648 153.627 49.8348C153.627 52.3048 151.986 53.5266 149.955 53.5266C147.923 53.5266 146.295 52.3048 146.295 49.8348C146.295 47.3648 147.923 46.1298 149.955 46.1298ZM150.358 53.3296C151.986 53.3296 152.403 51.4771 152.403 49.8348C152.403 47.3648 150.775 46.34 149.551 46.34C147.923 46.34 147.506 48.1925 147.506 49.8348C147.506 52.3048 149.134 53.3296 150.358 53.3296Z" fill="black"/>
<path d="M160.732 49.1779C161.644 49.4669 162.36 50.1107 162.36 51.2668C162.36 52.9223 161.136 53.5266 158.492 53.5266C157.802 53.5135 157.124 53.4347 156.447 53.3296L155.236 53.5266V46.34L156.447 46.1298H159.299C160.55 46.1298 161.957 46.5502 161.957 47.772C161.957 48.7574 161.305 49.0859 160.732 49.1779ZM156.447 46.34V49.0071H159.508C160.328 49.0071 160.732 48.5998 160.732 47.772C160.732 46.7473 159.912 46.34 159.104 46.34H156.447ZM158.492 53.3296C160.524 53.3296 161.136 52.3048 161.136 51.2668C161.136 49.9136 160.328 49.2173 159.299 49.2173H156.447V53.1194C157.124 53.2376 157.802 53.3033 158.492 53.3296Z" fill="black"/>
<path d="M167.38 46.1298C169.411 46.1298 171.053 47.3648 171.053 49.8348C171.053 52.3048 169.411 53.5266 167.38 53.5266C165.348 53.5266 163.72 52.3048 163.72 49.8348C163.72 47.3648 165.348 46.1298 167.38 46.1298ZM167.783 53.3296C169.411 53.3296 169.828 51.4771 169.828 49.8348C169.828 47.3648 168.2 46.34 166.976 46.34C165.348 46.34 164.931 48.1925 164.931 49.8348C164.931 52.3048 166.559 53.3296 167.783 53.3296Z" fill="black"/>
<path d="M177.033 46.34L178.258 46.1298V53.3296L177.033 53.5266V46.5502H173.751C173.608 48.048 173.556 49.5589 173.569 51.0698C173.569 52.7121 172.748 53.5266 171.732 53.5266L171.537 53.3296C172.553 53.3296 173.36 52.7121 173.36 50.8596C173.334 49.3487 173.412 47.8377 173.569 46.34H177.033Z" fill="black"/>
<path d="M183.377 49.0071C185.213 49.0071 186.633 49.6246 186.633 51.2668C186.633 52.9223 185.005 53.5266 183.168 53.5266C182.556 53.5529 181.931 53.4872 181.332 53.3296L180.121 53.5266V46.34L181.332 46.1298V49.3092C181.723 49.1384 182.361 49.0071 183.377 49.0071ZM183.168 53.3296C184.796 53.3296 185.409 52.3048 185.409 51.2668C185.409 49.9136 184.601 49.2173 183.168 49.2173C182.152 49.2173 181.501 49.5063 181.332 49.8348V53.1194C181.931 53.277 182.556 53.3427 183.168 53.3296Z" fill="black"/>
<path d="M193.924 52.0946L194.12 52.5019C193.508 53.1194 192.322 53.5266 191.476 53.5266C189.444 53.5266 187.816 52.3048 187.816 49.8348C187.816 47.3648 189.444 46.1298 191.476 46.1298C192.27 46.1166 193.052 46.34 193.716 46.7735L193.325 47.6144C192.83 46.8392 191.984 46.3662 191.072 46.34C189.444 46.34 189.027 48.1925 189.027 49.8348C189.027 52.3048 190.668 53.3296 191.879 53.3296C192.713 53.2639 193.468 52.804 193.924 52.0946Z" fill="black"/>
<path d="M201.32 46.34V46.5502H198.676V53.3296L197.451 53.5266V46.5502H194.807V46.34H197.451L198.676 46.1298V46.34H201.32Z" fill="black"/>
<path d="M207.983 49.1779C208.895 49.4669 209.611 50.1107 209.611 51.2668C209.611 52.9223 208.387 53.5266 205.743 53.5266C205.053 53.5135 204.375 53.4347 203.698 53.3296L202.487 53.5266V46.34L203.698 46.1298H206.551C207.801 46.1298 209.208 46.5502 209.208 47.772C209.208 48.7574 208.556 49.0859 207.983 49.1779ZM203.698 46.34V49.0071H206.759C207.579 49.0071 207.983 48.5998 207.983 47.772C207.983 46.7473 207.163 46.34 206.355 46.34H203.698ZM205.743 53.3296C207.775 53.3296 208.387 52.3048 208.387 51.2668C208.387 49.9136 207.579 49.2173 206.551 49.2173H203.698V53.1194C204.375 53.2376 205.053 53.3033 205.743 53.3296Z" fill="black"/>
<path d="M216.519 46.34L217.744 46.1298V53.3296L216.519 53.5266V48.3501L212.442 53.2639V53.3296L211.231 53.5266V46.34L212.442 46.1298V52.9486L216.519 48.0217V46.34Z" fill="black"/>
<path d="M223.41 53.3296C224.243 53.2639 224.999 52.804 225.455 52.0946L225.65 52.5019C225.038 53.1194 223.853 53.5398 223.006 53.5398C221.091 53.5398 219.529 52.4362 219.359 50.2421C219.346 50.1107 219.346 49.9793 219.346 49.8348C219.346 47.3648 220.974 46.1298 223.006 46.1298C223.11 46.1298 223.228 46.1429 223.332 46.1429C223.371 46.1429 223.41 46.156 223.449 46.156C223.514 46.1692 223.579 46.1692 223.644 46.1823C223.696 46.1823 223.735 46.1954 223.788 46.1954C223.84 46.2086 223.892 46.2217 223.944 46.2349C223.996 46.248 224.048 46.2611 224.1 46.2611C224.152 46.2743 224.191 46.2874 224.243 46.3006C224.296 46.3137 224.348 46.34 224.387 46.3531C224.439 46.3662 224.478 46.3794 224.53 46.4057C224.569 46.4188 224.621 46.4451 224.673 46.4582C224.712 46.4845 224.751 46.4976 224.79 46.5108C224.843 46.537 224.895 46.5633 224.934 46.5896C224.973 46.6159 225.012 46.629 225.051 46.6553C225.103 46.6816 225.142 46.7078 225.181 46.7341C225.207 46.7473 225.233 46.7604 225.246 46.7735C225.989 47.2991 226.484 48.1136 226.601 49.0071H225.455C223.735 49.0071 222.264 49.7691 220.557 49.8216V49.8348C220.557 52.3048 222.186 53.3296 223.41 53.3296ZM222.602 46.34C221.039 46.34 220.597 48.0348 220.57 49.6246C222.225 49.5589 223.67 48.8363 225.338 48.81C225.246 48.3764 225.077 47.9691 224.843 47.6013C224.777 47.4961 224.699 47.4042 224.634 47.3253C224.621 47.3122 224.595 47.2859 224.582 47.2728C224.53 47.2071 224.465 47.1414 224.4 47.0757C224.374 47.0626 224.348 47.0363 224.335 47.0232C224.256 46.9575 224.178 46.8918 224.087 46.8261C223.996 46.7604 223.905 46.7078 223.814 46.6684C223.801 46.6553 223.775 46.6422 223.748 46.629C223.683 46.5896 223.605 46.5633 223.527 46.5239C223.514 46.5239 223.488 46.5108 223.475 46.5108C223.384 46.4714 223.293 46.4451 223.201 46.4188C223.188 46.4188 223.162 46.4057 223.149 46.4057C223.071 46.3925 223.006 46.3794 222.928 46.3662C222.902 46.3662 222.876 46.3531 222.863 46.3531C222.772 46.34 222.68 46.34 222.602 46.34Z" fill="black"/>
</svg>
